<?xml version="1.0" standalone="no"?>
<!DOCTYPE svg PUBLIC "-//W3C//DTD SVG 1.1//EN" "http://www.w3.org/Graphics/SVG/1.1/DTD/svg11.dtd" >
<svg xmlns="http://www.w3.org/2000/svg">
<metadata>Generated by IcoMoon</metadata>
<defs>
<font id="ezy-icon" horiz-adv-x="1024">
<font-face units-per-em="1024" ascent="960" descent="-64" />
<missing-glyph horiz-adv-x="1024" />
<glyph unicode="&#x20;" horiz-adv-x="512" d="" />
<glyph unicode="&#xe900;" glyph-name="vertical-3-dots" horiz-adv-x="256" d="M256 832c0-70.692-57.308-128-128-128s-128 57.308-128 128c0 70.692 57.308 128 128 128s128-57.308 128-128zM256 448c0-70.692-57.308-128-128-128s-128 57.308-128 128c0 70.692 57.308 128 128 128s128-57.308 128-128zM256 64c0-70.692-57.308-128-128-128s-128 57.308-128 128c0 70.692 57.308 128 128 128s128-57.308 128-128z" />
<glyph unicode="&#xe901;" horiz-adv-x="744" d="M24.029 719.062c18.338 48.913 46.715 92.717 85.11 131.402l2.801-2.781c-38.019-38.307-66.083-81.64-84.216-130.007v0c-30.953-82.555-30.848-173.803-3.837-257.881l-3.758-1.209c-27.26 84.854-27.392 177.020 3.899 260.476z" />
<glyph unicode="&#xe902;" horiz-adv-x="744" d="M31.756 426.394c-4.435 10.5-8.313 21.24-11.635 32.224l3.778 1.142c3.282-10.85 7.113-21.465 11.494-31.831l0.001-0.004c11.303-26.821 25.359-52.748 42.171-77.777v0c16.645-24.781 33.517-47.112 50.616-66.989v0c15.638-18.188 34.929-39.767 57.878-64.74 2.935-3.186 5.916-6.53 8.941-10.031l0.002-0.004c2.656-3.080 5.709-6.227 9.163-9.433l-2.686-2.891c-3.545 3.293-6.702 6.542-9.467 9.748h0.002c0 0-0.001 0-0.002 0-3 3.47-5.952 6.782-8.857 9.937l-0.002 0.004c-22.968 24.993-42.29 46.608-57.965 64.835 0 0 0 0 0 0v0c-17.213 20.015-34.18 42.468-50.9 67.367v0c0 0 0 0 0 0-16.948 25.23-31.126 51.377-42.531 78.442 0 0 0 0 0 0h-0.001z" />
<glyph unicode="&#xe903;" horiz-adv-x="744" d="M721.66 713.957c3.509-9.262 6.538-18.462 9.094-27.598v0c22.579-80.795 16.349-171.794-13.32-248.425v0c-32.307-83.389-93.089-152.608-155.435-215.706v0c0 0 0 0 0 0-3.899-3.95-7.582-7.975-11.047-12.064 0 0 0 0 0 0v0c-57.947-68.458-103.467-145.050-136.57-229.79v0c-0.977-2.497-1.859-5.037-2.757-7.617l-0.193-0.551c-0.957-2.757-1.938-5.549-3.044-8.283-2.217-5.474-4.982-10.823-9.259-15.435 0 0 0.004 0 0.004 0l-1.441 1.335 1.438-1.335c-16.309-17.601-46.448-15.848-60.006 4.616-2.472 3.726-4.984 9.448-7.565 17.030-28.006 82.235-70.781 156.491-128.333 222.783h-0.003c-0.859 0.996-1.587 2.3-2.223 3.828l3.643 1.52c0.548-1.315 1.082-2.206 1.566-2.765-0.001 0-0.002 0-0.003 0.004l-1.49-1.296 1.493 1.292c57.882-66.67 100.914-141.371 129.087-224.095v0c2.55-7.495 4.932-12.828 7.118-16.124v0c12.097-18.255 39.189-19.901 53.825-4.108v0c3.812 4.112 6.361 8.968 8.491 14.23 1.063 2.631 2.016 5.341 2.977 8.101l0.197 0.563c0.89 2.564 1.8 5.175 2.8 7.743l1.839-0.721-1.835 0.721c0 0 0 0-0.004 0 33.26 85.138 79.006 162.107 137.236 230.9v0c3.533 4.171 7.282 8.267 11.252 12.288v0c62.299 63.051 122.569 131.781 154.561 214.359 29.381 75.882 35.541 166.010 13.202 245.936-2.521 9.019-5.518 18.107-8.984 27.264l3.69 1.397z" />
<glyph unicode="&#xe904;" horiz-adv-x="744" d="M498.586 937.252c23.068-8.289 44.213-18.244 63.425-29.87 75.485-45.649 128.717-110.149 159.657-193.437l-3.702-1.375c-30.629 82.459-83.283 146.25-157.995 191.434v0c-18.972 11.477-39.873 21.323-62.72 29.532l1.335 3.714z" />
<glyph unicode="&#xe905;" horiz-adv-x="744" d="M277.407 947.328c73.717 19.484 147.459 16.119 221.171-10.074l-1.323-3.719c-72.984 25.934-145.913 29.252-218.839 9.977-64.315-17.001-119.797-48.94-166.478-95.83l-2.797 2.785c47.178 47.39 103.278 79.682 168.266 96.861v0z" />
<glyph unicode="&#xe906;" horiz-adv-x="744" d="M482.288 922.044c4.604 4.63 9.334 9.53 14.19 14.701l2.875-2.702c-4.88-5.196-9.633-10.124-14.269-14.783v0c-59.179-59.497-118.545-118.803-178.095-177.919l-0.061-0.060-0.066-0.055c0.004 0.003-0.41-0.37-1.343-1.217-0.897-0.815-2.222-2.020-3.977-3.617-4.514-4.125-7.564-8.743-9.223-13.855l-3.754 1.219c1.893 5.834 5.356 11.018 10.314 15.55l0.003 0.003c3.113 2.833 4.926 4.482 5.358 4.868 59.533 59.099 118.884 118.389 178.047 177.869z" />
<glyph unicode="&#xe907;" horiz-adv-x="744" d="M257.888 697.998c9.738 10.283 20.222 19.213 31.452 26.784l2.206-3.273c-10.979-7.402-21.243-16.141-30.792-26.225l-2.866 2.714z" />
<glyph unicode="&#xe908;" horiz-adv-x="744" d="M111.932 850.474c49.327-49.011 98.523-98.193 147.586-147.547l0.003-0.002c0.891-0.9 1.534-1.957 1.831-3.167 0.297-1.208 0.221-2.447-0.135-3.668l-3.789 1.105c0.196 0.672 0.196 1.197 0.092 1.62-0.104 0.421-0.339 0.864-0.803 1.332-49.057 49.347-98.246 98.523-147.567 147.527l2.782 2.8z" />
<glyph unicode="&#xe909;" horiz-adv-x="744" d="M240.783 678.914l17.071 19.044 2.939-2.635-17.070-19.044-2.939 2.634z" />
<glyph unicode="&#xe90a;" horiz-adv-x="744" d="M229.112 669.024c4.359 4.372 8.378 7.793 12.052 10.22l2.175-3.293c-3.377-2.23-7.186-5.454-11.431-9.711-43.947-44.25-113.45-113.732-208.506-208.448l-2.786 2.796c95.056 94.716 164.553 164.192 208.492 208.434l0.002 0.002z" />
<glyph unicode="&#xe90b;" horiz-adv-x="744" d="M714.622 711.092c1.284 1.628 2.666 2.936 4.167 3.85l2.056-3.369c-1-0.61-2.048-1.564-3.131-2.933l-0.008-0.010c-1.469-1.838-2.595-3.168-3.34-3.912-60.274-60.284-120.556-120.554-180.854-180.813 0.004 0.004-0.13-0.138-0.398-0.429-0.469-0.5-1.347-1.441-2.658-2.855-2.048-2.194-5.104-5.478-9.169-9.846zM533.512 523.906v0c0 0 0 0 0 0z" />
<glyph unicode="&#xe90c;" horiz-adv-x="744" d="M396.95 741.129c58.029-9.415 104.905-49.556 122.829-104.697v0c8.988-27.7 10.398-55.16 4.254-82.417-4.332-19.196-12.757-38.475-25.305-57.832l3.312-2.15c12.761 19.688 21.39 39.396 25.844 59.116v0c6.305 27.976 4.844 56.155-4.352 84.502v0.001c-18.385 56.559-66.473 97.724-125.948 107.373v0c-33.208 5.383-65.403 0.345-96.531-15.079zM301.052 729.946c-3.428-1.695-7.204-3.349-11.329-4.963l1.438-3.676c4.216 1.649 8.097 3.349 11.641 5.101l0.002 0.001c30.418 15.072 61.782 19.967 94.146 14.72z" />
<glyph unicode="&#xe90d;" horiz-adv-x="744" d="M462.946 459.162l36.017 37.317 2.84-2.741-36.017-37.317-2.84 2.741z" />
<glyph unicode="&#xe90e;" horiz-adv-x="744" d="M243.957 676.604c-4.784-8.222-9.143-16.6-13.077-25.134-23.046-50.106-16.849-109.68 15.043-153.787 24.823-34.3 57.679-55.142 98.652-62.602 29.383-5.341 58.054-2.505 86.053 8.519 2.729 1.075 8.054 3.793 16.069 8.239 5.38 2.997 11.040 5.597 16.987 7.798l1.371-3.698c-5.762-2.139-11.24-4.655-16.439-7.55l-0.004-0.004c-7.983-4.423-13.529-7.27-16.534-8.456h-0.004c-28.676-11.292-58.093-14.206-88.204-8.732h-0.001c-41.992 7.645-75.734 29.062-101.143 64.173v0c-32.72 45.253-39.075 106.34-15.429 157.75l0.001 0.002c3.987 8.648 8.403 17.137 13.25 25.466l3.411-1.985z" />
<glyph unicode="&#xe90f;" horiz-adv-x="744" d="M465.766 456.397c-80.888-81.215-161.717-162.166-242.487-242.842v0c-8.132-8.117-14.56-14.009-19.256-17.617l-2.404 3.131c4.487 3.446 10.768 9.188 18.872 17.278 80.767 80.675 161.594 161.619 242.479 242.834l2.796-2.784z" />
<glyph unicode="&#xe910;" horiz-adv-x="744" d="M497.916 935.394c-4.868-5.184-9.61-10.098-14.23-14.742-59.179-59.494-118.541-118.798-178.088-177.91-0.079-0.066-1.875-1.697-5.388-4.894-4.736-4.329-7.993-9.229-9.769-14.703-11.104-7.486-21.478-16.321-31.122-26.504 0.553 1.894 0.151 3.526-1.204 4.894-49.061 49.35-98.254 98.53-147.578 147.538 46.93 47.14 102.72 79.255 167.372 96.346 73.322 19.38 146.656 16.038 220.006-10.025z" />
<glyph unicode="&#xe911;" horiz-adv-x="744" d="M497.916 935.394c22.957-8.249 43.981-18.15 63.071-29.701 75.099-45.417 128.043-109.562 158.83-192.435-1.252-0.763-2.469-1.895-3.651-3.395-1.477-1.842-2.54-3.092-3.198-3.749-60.27-60.284-120.556-120.554-180.85-180.81-0.055-0.055-4.147-4.447-12.276-13.186-5.856-6.302-12.343-11.973-19.46-17.010 12.658 19.523 21.185 39.014 25.576 58.474 6.223 27.616 4.789 55.436-4.301 83.46-18.156 55.85-65.638 96.504-124.388 106.036-32.787 5.315-64.567 0.349-95.341-14.9-3.486-1.723-7.315-3.401-11.486-5.033 1.776 5.473 5.033 10.374 9.769 14.703 3.513 3.197 5.309 4.829 5.387 4.894 59.547 59.112 118.908 118.416 178.088 177.91 4.62 4.644 9.362 9.558 14.23 14.742z" />
<glyph unicode="&#xe912;" horiz-adv-x="744" d="M110.539 849.074c49.324-49.008 98.517-98.188 147.578-147.538 1.355-1.368 1.757-3 1.204-4.894l-17.071-19.044c-3.526-2.329-7.44-5.651-11.742-9.966-43.943-44.246-113.443-113.726-208.5-208.442-27.136 84.468-27.254 176.175 3.868 259.18 18.235 48.64 46.456 92.208 84.663 130.704z" />
<glyph unicode="&#xe913;" horiz-adv-x="744" d="M719.817 713.258c3.486-9.21 6.498-18.354 9.039-27.431 22.457-80.361 16.262-170.924-13.261-247.181-32.15-82.983-92.676-151.958-154.998-215.032-3.935-3.986-7.652-8.046-11.15-12.174-58.088-68.628-103.723-145.408-136.901-230.349-4.246-10.854-6.77-22.536-14.864-31.26-15.471-16.695-44.086-14.998-56.914 4.36-2.329 3.513-4.776 9.039-7.341 16.581-28.090 82.475-70.993 156.956-128.711 223.437-0.671 0.776-1.302 1.875-1.894 3.296 4.591 3.525 10.946 9.342 19.064 17.443 80.768 80.679 161.596 161.623 242.483 242.842l36.017 37.317c7.117 5.041 13.603 10.709 19.456 17.010 8.133 8.739 12.225 13.131 12.276 13.186 60.298 60.256 120.58 120.526 180.85 180.81 0.658 0.658 1.725 1.908 3.198 3.749 1.185 1.5 2.402 2.632 3.651 3.395z" />
<glyph unicode="&#xe914;" horiz-adv-x="744" d="M242.252 677.597c-4.816-8.275-9.203-16.709-13.164-25.3-23.346-50.758-17.070-111.089 15.236-155.767 25.116-34.71 58.415-55.836 99.898-63.39 29.747-5.408 58.789-2.532 87.13 8.625 2.867 1.13 8.302 3.915 16.301 8.346 5.289 2.95 10.858 5.506 16.715 7.68-80.887-81.219-161.715-162.162-242.483-242.842-8.118-8.101-14.472-13.919-19.064-17.443-3.5 3.249-6.604 6.447-9.315 9.59-3.013 3.486-5.98 6.817-8.901 9.988-22.958 24.982-42.266 46.58-57.922 64.788-17.156 19.944-34.076 42.338-50.758 67.178-16.88 25.127-30.997 51.165-42.351 78.112-4.407 10.433-8.262 21.11-11.565 32.028 95.056 94.716 164.556 164.196 208.499 208.442 4.302 4.315 8.216 7.637 11.743 9.966z" />
<glyph unicode="&#xe915;" horiz-adv-x="1012" d="M804.916 956.66c1.201-2.484 1.032-5.024-0.508-7.62-40.041-68.75-79.872-138.308-119.494-208.677-61.904 35.861-126.738 52.268-194.512 49.22-128.167-5.795-227.208-63.896-297.124-174.302l-190.332 109.955 99.795 5.024c1.844 0.075 3.349 0.847 4.515 2.314 78.383 100.171 178.14 163.426 299.271 189.767 23.556 5.155 60.847 9.803 111.874 13.942 92.269 7.451 184.518 14.901 276.746 22.352 3.012 0.263 6.269-0.395 9.768-1.976z" />
<glyph unicode="&#xe916;" horiz-adv-x="1012" d="M804.92 956.659c5.039-0.753 8.297-2.672 9.764-5.757 41.73-88.205 83.387-176.409 124.968-264.613 21.75-46.097 36.086-80.792 43.012-104.084 34.506-115.974 28.841-231.387-16.993-346.233-0.75-1.883-0.657-3.725 0.282-5.531l45.947-89.128-190.613 110.689c56.332 107.697 60.642 215.487 12.925 323.374-30.744 69.389-80.509 124.385-149.294 164.988 39.622 70.368 79.453 139.927 119.494 208.676 1.54 2.596 1.709 5.136 0.508 7.62z" />
<glyph unicode="&#xe917;" horiz-adv-x="1012" d="M2.947 725.236l190.332-109.955c-52.494-89.784-63.218-186.907-32.174-291.367 28.843-96.861 76.652-186.045 125.421-273.589-26.567-45.757-53.096-91.817-79.587-138.175-0.753-1.318-1.656-2.108-2.709-2.371-1.28-0.379-2.634-0.282-4.064 0.282-43.839 87.262-87.395 174.657-130.67 262.184-21.411 43.274-35.673 76.989-42.785 101.15-36.012 121.844-28.937 241.394 21.223 358.65 0.79 1.844 0.715 3.688-0.226 5.532l-44.761 87.659z" />
<glyph unicode="&#xe918;" horiz-adv-x="1012" d="M502.538 649.487c80.041 37.31 185.538-24.666 193.947-112.157 0.185-2.068 1.185-3.612 2.991-4.628l52.776-30.422c0.488-0.282 0.919-0.657 1.262-1.105 0.347-0.447 0.601-0.959 0.746-1.504 0.149-0.544 0.185-1.113 0.113-1.673-0.077-0.56-0.258-1.101-0.54-1.588l-30.482-51.986c-0.657-1.145-1.020-2.431-1.060-3.741s0.246-2.604 0.835-3.765c7.789-15.3 11.119-34.264 10.442-50.97-2.33-54.074-26.846-96.147-73.547-126.21-14.187-9.107-30.027-14.171-47.527-15.187-1.302-0.085-2.56-0.492-3.665-1.181-1.101-0.689-2.016-1.641-2.657-2.77l-30.93-53.792c-1.169-1.992-2.749-2.407-4.741-1.242l-53.284 31.329c-1.024 0.589-2.181 0.907-3.366 0.927s-2.358-0.262-3.407-0.814c-39.174-20.488-90.765-9.877-128.131 13.772-36.99 23.371-58.458 56.014-64.404 97.933-0.377 2.52-1.656 4.423-3.838 5.701l-53.679 30.873c-0.289 0.165-0.542 0.383-0.744 0.649-0.202 0.262-0.35 0.564-0.434 0.883-0.084 0.323-0.103 0.657-0.056 0.984 0.048 0.331 0.16 0.645 0.331 0.927 9.52 16.408 19.756 33.925 30.706 52.551 4.516 7.732-3.443 16.090-5.193 23.483-18.627 79.924 33.867 168.712 118.366 178.59 2.258 0.263 3.931 1.374 5.023 3.33l29.462 51.478c1.806 3.199 4.29 3.857 7.45 1.976l51.309-30.368c1.919-1.129 3.894-1.223 5.926-0.282z" />
<glyph unicode="&#xe919;" horiz-adv-x="1012" d="M821.284 252.001l190.613-110.685-97.143-3.673c-2.104-0.073-3.894-0.863-5.362-2.371-7.337-7.507-12.869-17.045-19.754-25.229-81.884-97.236-184.066-156.841-306.551-178.817-22.165-3.951-59.59-7.47-112.269-10.554-91.968-5.418-180.455-10.631-265.461-15.634-4.14-0.226-5.87 1.447-5.193 5.023 1.43-0.564 2.785-0.661 4.064-0.282 1.053 0.262 1.956 1.052 2.709 2.371 26.491 46.358 53.021 92.418 79.587 138.175 37.63 0.714 85.458 2.633 143.483 5.757 54.337 2.935 105.968 10.123 154.886 21.56 105.44 24.612 184.235 82.73 236.391 174.358z" />
<glyph unicode="&#xe91a;" glyph-name="chat1" horiz-adv-x="1019" d="M69.769 960h880.594c39.822-7.327 66.765-34.77 66.765-74.729 0.091-236.112 0.077-466.047-0.046-689.812 0-21.845-7.964-40.018-23.893-54.522-13.958-12.743-27.976-19.115-42.052-19.115-181.985-0.15-363.829-0.228-545.541-0.228-2.635 0-5.167-0.974-7.1-2.731l-203.207-182.864h-11.969c-16.202 5.129-24.287 16.885-24.257 35.271 0.091 49.152 0.091 98.395 0 147.729 0 1.761-0.88 2.64-2.64 2.64-26.609-0.032-53.779-0.059-81.51-0.091-37.546 0-72.454 32.267-72.499 70.588-0.182 200.463-0.212 431.385-0.091 692.77 0 40.505 26.806 68.085 67.447 75.093zM190.1 178.483c15.519 0 26.442-14.108 26.533-28.672 0.364-38.562 0.364-77.141 0-115.735-0.006-0.214 0.051-0.419 0.164-0.601 0.114-0.177 0.28-0.319 0.477-0.405s0.419-0.114 0.636-0.082c0.218 0.032 0.422 0.127 0.588 0.269 50.851 46.207 101.46 92.101 151.825 137.671 5.552 5.006 11.954 7.509 19.206 7.509 183.168 0 367.411 0 552.732 0 4.779 0 9.366 1.893 12.743 5.266 3.381 3.372 5.279 7.942 5.279 12.711v688.674c0 4.599-1.825 9.009-5.079 12.261-3.249 3.252-7.66 5.079-12.261 5.079-287.753 0.061-575.518 0.061-863.3 0-22.164 0-19.888-15.064-19.888-33.451-0.030-222.792-0.030-447.329 0-673.61 0-4.492 1.784-8.797 4.959-11.969 3.175-3.177 7.481-4.961 11.971-4.961 36.288 0 74.092 0.014 113.414 0.046zM795.079 739.18h-568.524c-15.634 0-28.308-12.674-28.308-28.308v-0.637c0-15.634 12.673-28.308 28.308-28.308h568.524c15.633 0 28.308 12.674 28.308 28.308v0.637c0 15.634-12.675 28.308-28.308 28.308zM733.321 573.383h-505.445c-15.433 0-27.944-12.511-27.944-27.944v-1.092c0-15.433 12.511-27.944 27.944-27.944h505.445c15.433 0 27.944 12.511 27.944 27.944v1.092c0 15.433-12.511 27.944-27.944 27.944zM570.527 407.131h-344.156c-15.508 0-28.080-12.57-28.080-28.080v-1.001c0-15.51 12.572-28.080 28.080-28.080h344.156c15.506 0 28.080 12.57 28.080 28.080v1.001c0 15.51-12.575 28.080-28.080 28.080z" />
<glyph unicode="&#xe91b;" glyph-name="phone" horiz-adv-x="596" d="M501.931 960h-408.357c-49.77 0-90.356-40.473-90.356-90.356v-853.787c0-49.769 40.473-90.359 90.356-90.359h408.473c49.769 0 90.355 40.473 90.355 90.359v853.787c-0.113 49.769-40.586 90.356-90.471 90.356zM559.409 15.857c0-31.631-25.734-57.482-57.478-57.482h-408.357c-31.63 0-57.479 25.738-57.479 57.482v853.787c0 31.63 25.735 57.478 57.479 57.478h408.473c31.628 0 57.478-25.735 57.478-57.478v-853.787h-0.116zM490.594 812.846h-385.683c-18.253 0-33.104-14.851-33.104-33.104v-620.699c0-18.254 14.851-33.106 33.104-33.106h385.683c18.254 0 33.106 14.852 33.106 33.106v620.812c0 18.253-14.852 32.991-33.106 32.991zM490.823 159.043c0-0.113-0.116-0.229-0.229-0.229l-385.91 0.229 0.227 620.926 385.912-0.227v-620.699zM226.557 853.546h142.392c9.071 0 16.438 7.369 16.438 16.438s-7.368 16.439-16.438 16.439h-142.392c-9.070 0-16.439-7.369-16.439-16.439s7.369-16.438 16.439-16.438zM297.753 95.101c-29.476 0-53.511-24.035-53.511-53.509 0-29.478 24.035-53.513 53.511-53.513s53.511 24.035 53.511 53.513c0 29.474-24.035 53.509-53.511 53.509zM297.753 20.959c-11.337 0-20.634 9.296-20.634 20.633s9.297 20.633 20.634 20.633c11.337 0 20.633-9.296 20.633-20.633s-9.296-20.633-20.633-20.633z" />
<glyph unicode="&#xe91c;" d="M139.24 960h116.78l0.56-256-1.080-0.6-255.5 0.6v116.98c1.64 33.107 12.453 61.78 32.44 86.020 27.093 32.867 62.693 50.533 106.8 53z" />
<glyph unicode="&#xe91d;" d="M256.020 960h509.98c1.348-0.467 2.020-1.633 2.020-3.5 0.080-160.48 0.020-321.080-0.18-481.8-1 3.12-2.5 10.388-4.5 21.8-5.652 32.252-18.5 63.408-38.54 93.46-42.32 63.48-111.82 105.86-188.060 112.64-10.572 0.933-23.98 1.4-40.22 1.4-79.988-0.027-159.967-0.027-239.94 0l-0.56 256z" />
<glyph unicode="&#xe91e;" d="M766 960h119.020c43.72-2.52 79.080-20 106.080-52.44 20.308-24.387 31.272-53.32 32.9-86.8v-745.78c-2.532-43.732-20.008-79.092-52.42-106.080-24.388-20.308-53.328-31.272-86.82-32.9h-745.78c-43.72 2.532-79.080 20.008-106.080 52.42-20.32 24.412-31.287 53.36-32.9 86.84v116.82c158.84-0.2 317.673-0.16 476.5 0.12 2.292 0.012 4.060 0.42 5.3 1.22 25.708-2.56 49.128-2.060 70.26 1.5 70.268 11.84 126.768 47.332 169.5 106.48 26.88 37.212 42.072 80.12 45.58 128.72 0.492 6.84 0.728 14.22 0.7 22.14-0.012 7.56-0.012 15.040 0 22.44 0.2 160.72 0.26 321.32 0.18 481.8 0 1.867-0.672 3.033-2.020 3.5z" />
<glyph unicode="&#xe91f;" d="M0 704l255.5-0.6c0.28-0.787 0.42-1.587 0.42-2.4 0.067-80.173 0.087-155.832 0.060-226.98 0-21.532 0.16-34.868 0.48-40 3.587-57.308 23.287-107.308 59.1-150 42.8-51.012 98.212-81.212 166.24-90.6-1.24-0.8-3.008-1.208-5.3-1.22-158.827-0.28-317.66-0.32-476.5-0.12v511.92z" />
<glyph unicode="&#xe920;" d="M256.58 704c79.973-0.027 159.952-0.027 239.94 0 16.24 0 29.648-0.467 40.22-1.4 76.24-6.78 145.74-49.16 188.060-112.64 20.040-30.052 32.888-61.208 38.54-93.46 2-11.412 3.5-18.68 4.5-21.8-0.012-7.4-0.012-14.88 0-22.44 0.028-7.92-0.208-15.3-0.7-22.14-3.508-48.6-18.7-91.508-45.58-128.72-42.732-59.148-99.232-94.64-169.5-106.48-21.132-3.56-44.552-4.060-70.26-1.5-68.028 9.388-123.44 39.588-166.24 90.6-35.813 42.692-55.513 92.692-59.1 150-0.32 5.132-0.48 18.468-0.48 40 0.027 71.148 0.007 146.807-0.060 226.98 0 0.813-0.14 1.613-0.42 2.4l1.080 0.6zM682.56 448c0 45.236-17.968 88.616-49.956 120.604-31.988 31.986-75.368 49.956-120.604 49.956s-88.616-17.97-120.604-49.956c-31.986-31.988-49.956-75.368-49.956-120.604s17.97-88.616 49.956-120.604c31.988-31.988 75.368-49.956 120.604-49.956s88.616 17.968 120.604 49.956c31.988 31.988 49.956 75.368 49.956 120.604z" />
<glyph unicode="&#xe921;" d="M682.56 448c0-45.236-17.968-88.616-49.956-120.604-31.984-31.988-75.368-49.956-120.604-49.956-45.232 0-88.616 17.968-120.603 49.956s-49.956 75.368-49.956 120.604c0 45.236 17.97 88.616 49.956 120.604 31.987 31.986 75.371 49.956 120.603 49.956 45.236 0 88.62-17.97 120.604-49.956 31.988-31.988 49.956-75.368 49.956-120.604zM597.26 448c0 22.612-8.98 44.3-24.972 60.288-15.988 15.988-37.676 24.972-60.288 24.972s-44.296-8.984-60.288-24.972c-15.988-15.988-24.972-37.676-24.972-60.288s8.984-44.3 24.972-60.288c15.992-15.988 37.676-24.972 60.288-24.972s44.3 8.984 60.288 24.972c15.992 15.988 24.972 37.676 24.972 60.288z" />
<glyph unicode="&#xe922;" d="M512 362.74c47.088 0 85.26 38.172 85.26 85.26s-38.172 85.26-85.26 85.26c-47.088 0-85.26-38.172-85.26-85.26s38.172-85.26 85.26-85.26z" />
<glyph unicode="&#xe923;" glyph-name="message1" horiz-adv-x="1440" d="M204.836 959.94l1030.682 0.060c26.9 0 53.535-5.286 78.387-15.557s47.43-25.324 66.453-44.301c19.017-18.977 34.107-41.507 44.403-66.302 10.291-24.795 15.591-51.37 15.591-78.208l-0.062-615.265c0-54.199-21.577-106.181-59.994-144.508-38.411-38.327-90.517-59.859-144.84-59.859h-1030.56c-54.326 0-106.427 21.532-144.841 59.859s-59.995 90.309-59.995 144.508l-0.060 615.206c0 54.202 21.581 106.183 59.995 144.509s90.515 59.858 144.841 59.858zM644.113 397.448c32.976-24.853 78.471-29.179 118.368-17.533 13.318 3.882 38.85 20.175 76.603 48.873 169.573 129 339.788 257.661 510.644 385.981 1.024 0.767 1.722 1.89 1.958 3.147 0.231 1.256-0.017 2.554-0.692 3.637-16.93 27.457-39.655 46.809-68.18 58.056-14.122 5.563-37.489 8.345-70.105 8.345-318.048 0.080-634.205 0.12-948.479 0.12-52.834 0-84.526-1.541-95.077-4.623-34.3-10.046-61.038-30.959-80.214-62.739-0.477-0.788-0.649-1.722-0.482-2.62s0.66-1.697 1.385-2.243c184.096-139.287 368.854-278.754 554.272-418.402zM75.159 736.661c-0.284 0.209-0.619 0.336-0.971 0.368s-0.704-0.034-1.021-0.188c-0.316-0.155-0.584-0.393-0.774-0.69s-0.295-0.639-0.303-0.991l0.060-590.832c0.013-0.36 0.128-0.715 0.334-1.013s0.491-0.535 0.824-0.681c0.334-0.141 0.702-0.191 1.061-0.135s0.696 0.214 0.971 0.45l359.185 319.64c0.208 0.189 0.372 0.421 0.48 0.68s0.159 0.539 0.147 0.819c-0.011 0.28-0.084 0.555-0.214 0.804s-0.311 0.468-0.534 0.639l-359.246 271.13zM1365.071 142.651c0.27-0.248 0.602-0.411 0.962-0.467 0.36-0.062 0.726-0.017 1.058 0.129 0.332 0.152 0.613 0.388 0.81 0.692s0.304 0.664 0.298 1.024v591.19c0 0.345-0.107 0.683-0.293 0.974s-0.45 0.525-0.765 0.675c-0.309 0.149-0.658 0.209-1.001 0.173s-0.675-0.169-0.945-0.38l-359.306-271.13c-0.225-0.165-0.405-0.378-0.535-0.622s-0.203-0.514-0.214-0.79c-0.011-0.276 0.039-0.551 0.146-0.805 0.113-0.254 0.276-0.481 0.478-0.664l359.306-319.998zM794.253 315.859c-64.568-24.497-139.123-16.452-195.871 26.056-32.937 24.694-66.313 49.912-100.131 75.646-2.046 1.561-4.032 1.481-5.958-0.24l-394.387-350.862c-0.56-0.495-0.914-1.182-0.991-1.93-0.078-0.743 0.125-1.485 0.57-2.087 27.861-37.646 67.878-54.756 114.874-54.694 342.036 0.315 681.543 0.36 1018.524 0.118 46.738-0.039 83.923 17.869 111.565 53.732 0.625 0.793 0.923 1.795 0.833 2.796-0.090 1.007-0.563 1.935-1.317 2.611l-395.348 351.697c-0.287 0.256-0.647 0.408-1.030 0.429s-0.765-0.087-1.075-0.309c-23.951-17.25-48.904-36.104-74.859-56.556-28.965-22.854-54.098-38.321-75.399-46.406z" />
<glyph unicode="&#xe924;" glyph-name="call1" d="M554.667 917.333c0 11.316 4.495 22.168 12.497 30.17s18.855 12.497 30.171 12.497c113.117-0.124 221.574-45.116 301.562-125.105s124.98-188.441 125.103-301.562c0-11.316-4.497-22.168-12.497-30.17s-18.851-12.497-30.167-12.497c-11.316 0-22.167 4.496-30.173 12.497-8 8.002-12.497 18.854-12.497 30.17-0.099 90.496-36.096 177.256-100.084 241.247s-150.749 99.985-241.245 100.086c-11.316 0-22.17 4.496-30.171 12.497s-12.497 18.854-12.497 30.17zM597.335 704c45.26 0 88.669-17.981 120.681-49.987 32.006-32.006 49.984-75.416 49.984-120.68 0-11.316 4.497-22.168 12.497-30.17s18.851-12.497 30.167-12.497c11.316 0 22.173 4.496 30.173 12.497s12.497 18.854 12.497 30.17c-0.070 67.874-27.060 132.95-75.055 180.944-48 47.995-113.071 74.988-180.945 75.056-11.316 0-22.17-4.495-30.171-12.497s-12.497-18.854-12.497-30.17c0-11.316 4.495-22.168 12.497-30.17s18.855-12.497 30.171-12.497zM985.303 245.801c24.721-24.791 38.609-58.38 38.609-93.393 0-35.020-13.888-68.602-38.609-93.399l-38.831-44.759c-349.44-334.545-1199.784 515.586-870.398 866.135l49.066 42.667c24.822 24.035 58.109 37.331 92.66 37.012s67.586-14.229 91.959-38.718c1.322-1.323 80.384-104.022 80.384-104.022 23.459-24.645 36.518-57.384 36.463-91.409s-13.222-66.721-36.762-91.29l-49.408-62.122c27.343-66.437 67.544-126.816 118.294-177.668s111.048-91.177 177.428-118.65l62.505 49.705c24.576 23.523 57.263 36.672 91.281 36.719 34.013 0.047 66.74-13.009 91.375-36.463 0 0 102.656-79.017 103.983-80.343zM926.592 183.767c0 0-102.103 78.545-103.424 79.872-8.791 8.716-20.666 13.603-33.047 13.603-12.375 0-24.256-4.887-33.041-13.603-1.152-1.199-87.215-69.76-87.215-69.76-5.795-4.62-12.701-7.645-20.026-8.78-7.319-1.14-14.819-0.349-21.743 2.292-85.996 32.017-164.107 82.147-229.041 146.985s-115.176 142.874-147.321 228.823c-2.85 7.021-3.779 14.673-2.692 22.173s4.152 14.572 8.879 20.494c0 0 68.565 86.102 69.717 87.211 8.716 8.79 13.606 20.667 13.606 33.045s-4.89 24.255-13.606 33.046c-1.322 1.28-79.872 103.466-79.872 103.466-8.922 8-20.565 12.284-32.544 11.975s-23.386-5.189-31.882-13.639l-49.066-42.666c-240.726-289.45 496.168-985.472 749.823-745.769l38.871 44.8c9.105 8.436 14.58 20.084 15.255 32.483 0.675 12.393-3.497 24.57-11.631 33.949z" />
<glyph unicode="&#xe925;" glyph-name="location" d="M404.5 168.724h-178.7c-36.7 0-66.5 29.798-66.5 66.499 0 13.001 3.8 25.7 11 36.6l83.4 126.702c12.3 18.7 33.1 29.899 55.501 29.899h178.399l-83.1-259.699zM309.201 375.224c-4.502 0-8.602-2.202-11.1-6.001l-83.401-126.7c-1.401-2.2-2.2-4.7-2.2-7.301 0-7.299 5.999-13.3 13.3-13.3h139.899l49 153.201-105.499 0.1zM652.2 168.724h-285.6l42.799 259.598h200.002l42.799-259.598zM429.3 221.923h160.201l-25.301 153.301h-109.599l-25.301-153.301zM807.6 168.724h-178.7l-83.1 259.699h178.399c22.401 0 43.201-11.198 55.501-29.899l83.401-126.702c9.8-14.799 13.199-32.6 9.599-50s-13.699-32.299-28.6-42.099c-10.799-7.201-23.499-11-36.499-11zM667.699 221.923h139.901c2.599 0 5.1 0.801 7.299 2.2 4.002 2.601 5.3 6.4 5.702 8.401 0.399 2.001 0.698 6.001-1.901 10l-83.401 126.599c-2.501 3.801-6.599 6.001-11.1 6.001h-105.599l49.099-153.201zM516.7 287.3c-12.501 0-24.9 4.301-34.8 12.9-125.7 108.599-186.8 205.101-186.8 294.799 0 142.801 114.6 238.701 221.6 238.701s221.6-95.9 221.6-238.701c0-89.698-61.1-186.2-186.9-294.799-9.8-8.6-22.299-12.9-34.699-12.9zM516.7 780.5c-79.7 0-168.401-76.201-168.401-185.501 0-72.298 56.701-157.999 168.401-254.599 111.8 96.6 168.399 182.301 168.399 254.599 0 109.3-88.699 185.501-168.399 185.501zM516.7 487.899c-68.401 0-124.101 55.702-124.101 124.101 0 68.401 55.699 124.101 124.101 124.101 68.399 0 124.101-55.601 124.101-124.101s-55.702-124.101-124.101-124.101zM516.7 683c-39.1 0-70.9-31.799-70.9-70.9s31.799-70.9 70.9-70.9c39.1 0 70.9 31.799 70.9 70.9s-31.799 70.9-70.9 70.9z" />
<glyph unicode="&#xe926;" glyph-name="page-separator" d="M725.333 64v170.667h-426.667v-170.667h-85.333v213.333c0 11.317 4.495 22.168 12.497 30.169 8.002 8.003 18.854 12.498 30.17 12.498h512c11.317 0 22.168-4.495 30.169-12.498 8.003-8 12.498-18.852 12.498-30.169v-213.333h-85.333zM298.667 832v-170.667h426.667v170.667h85.333v-213.333c0-11.317-4.495-22.168-12.498-30.169-8-8.003-18.852-12.498-30.169-12.498h-512c-11.316 0-22.168 4.495-30.17 12.498-8.002 8-12.497 18.852-12.497 30.169v213.333h85.333zM85.333 576l170.667-128-170.667-128v256zM938.667 576v-256l-170.667 128 170.667 128z" />
<glyph unicode="&#xe927;" glyph-name="vcf" d="M551.832 452.813c29.254-10.684 56.115-25.635 80.589-44.851 0.311-0.236 0.565-0.539 0.741-0.889 0.176-0.348 0.27-0.731 0.276-1.122 0.004-0.389-0.080-0.776-0.248-1.128s-0.414-0.664-0.719-0.905c-11.639-9.251-20.615-20.617-26.931-34.099-0.989-2.15-2.439-2.509-4.352-1.075-165.274 124.211-388.966 9.267-393.626-190.925-0.068-1.638 0.717-2.458 2.355-2.458h266.24c1.843 0 3.056-0.87 3.635-2.611 6.111-17.785 16.265-32.768 30.464-44.954 2.015-1.741 1.69-2.611-0.973-2.611-97.382-0.274-194.695-0.274-291.942 0-57.65 0.154-67.276 37.786-58.265 89.805 19.797 114.618 83.951 194.081 192.46 238.387 2.015 0.819 2.099 1.808 0.256 2.97-85.555 54.17-118.579 162.56-72.55 250.624 96.154 183.961 372.992 112.947 364.339-94.822-2.73-65.298-33.434-117.471-92.109-156.518-1.706-1.161-1.587-2.099 0.358-2.816zM593.969 621.005c0 37.749-14.995 73.953-41.689 100.647-26.692 26.692-62.896 41.688-100.647 41.688-37.749 0-73.953-14.997-100.647-41.688-26.692-26.694-41.689-62.898-41.689-100.647 0-18.692 3.682-37.202 10.836-54.471 7.152-17.269 17.637-32.961 30.853-46.176 26.694-26.694 62.898-41.689 100.647-41.689 18.692 0 37.202 3.68 54.471 10.834s32.961 17.637 46.176 30.855c13.218 13.216 23.702 28.908 30.855 46.176s10.834 35.779 10.834 54.471zM735.949 239.36c23.347-0.137 46.694-0.291 70.042-0.461 14.131-0.137 24.236-2.236 30.31-6.298 30.362-20.224 13.466-65.28-22.221-64.666-25.872 0.442-51.78 0.666-77.722 0.666-1.741 0-2.628-0.889-2.662-2.662-0.647-35.226-0.682-59.376-0.102-72.448 2.56-56.678-69.837-58.829-70.4-2.97-0.272 25.121-0.461 50.244-0.563 75.366 0 1.876-0.938 2.832-2.816 2.867-22.151 0.442-44.167 0.58-66.048 0.41-15.155-0.137-25.889 1.159-32.205 3.891-33.792 14.643-22.63 67.584 14.080 67.021 27.888-0.41 55.74-0.563 83.558-0.461 1.81 0 2.732 0.903 2.765 2.714 0.137 24.029 0.102 47.956-0.102 71.782-0.135 13.447 1.382 23.056 4.557 28.826 18.944 34.406 66.099 16.998 66.253-21.658 0.172-39.596 0.24-65.862 0.205-78.797-0.033-2.083 0.991-3.123 3.072-3.123z" />
<glyph unicode="&#xe928;" d="M796.058 678.648c-111.729 135.86-304.896 174.193-459.256 88.399l459.256-88.399zM356.7 731.245c136.817 76.043 308.371 42.199 407.726-78.619l0.004-0.006c43.571-52.941 68.114-114.676 73.482-185.895l-46.303 0.051c-6.939 83.227-43.688 151.226-109.908 202.572l-0.002 0.002c-81.916 63.498-192.365 72.636-285.059 30.886zM336.802 767.047v0zM336.8 767.047l-180.054-238.413c21.814 101.265 90.958 188.887 180.054 238.413zM196.789 520.016l159.911 211.229c-79.565-44.227-140.763-122.352-159.911-211.229zM198.654 364.966l-1.866 155.044c-11.795-54.856-11.030-106.43 1.866-155.044zM510.673 208.794c-172.878 0.563-287.449 183.72-212.935 339.743l0.002 0.004c24.293 50.897 65.313 91.648 115.72 114.348v0c79.884 35.983 174.053 27.646 243.143-25.911zM156.746 528.634l-0.002-0.006c-13.022-60.557-12.391-118.721 2.321-174.172l0.001-0.006c42.768-161.006 183.793-271.655 351.994-274.223zM774.76 425.834c-6.099 0.006-11.889 2.423-16.169 6.629-4.274 4.2-6.717 9.855-6.916 15.751v0.002c-2.683 79.247-34.236 141.588-95.072 188.76zM774.783 425.834v0zM879.815 449.309l-83.753 229.333c53.412-64.901 81.265-141.64 83.753-229.333zM396.64 700.236l-135.864-134.048c28.32 59.329 76.317 107.231 135.864 134.048zM260.776 566.188c-84.897-177.764 39.152-385.401 232.458-397.775l0.076-46.465c-141.66 9.683-258.167 105.654-294.655 243.012zM510.636 167.834h-0.063c0.020 0 0.043 0 0.063 0z" />
<glyph unicode="&#xe929;" d="M644.506 800.256q-86.835-106.701-124.928-134.554-49.971-36.25-59.597-90.931" />
<glyph unicode="&#xe92a;" horiz-adv-x="1249" d="M994.836 550.4c8.098 19.276 18.153 36.559 30.167 51.853 35.74 45.527 99.94 72.985 155.056 48.239 34.937-15.663 52.906-56.22 48.038-93.868-2.275-17.502-7.932-35.355-16.966-53.559-25.651-51.702-47.487-101.044-48.339-157.917-0.369-23.892-1.356-44.825-2.961-62.794-12.45-138.492-79.159-257.255-210.926-312.672-40.892-17.166-82.102-25.399-123.632-24.697-122.429 2.058-217.852 56.371-288.428 152.648-45.812 62.509-87.173 131.781-124.084 207.811-41.261 84.965-73.804 165.831-97.63 242.598-4.887 15.661-7.279 32.16-7.178 49.494 0.401 59.13 49.994 92.662 106.666 91.357 2.243-0.068 3.113 0.987 2.611 3.162-9.589 41.562-7.379 83.526 26.653 113.091 23.761 20.647 53.877 28.762 90.354 24.345 0.494-0.058 0.993-0.002 1.46 0.162 0.469 0.165 0.893 0.434 1.241 0.787s0.612 0.782 0.77 1.252c0.158 0.471 0.207 0.971 0.143 1.463-5.288 38.551 4.467 68.919 29.264 91.106 27.507 24.596 71.178 33.38 106.416 22.086 23.056-7.396 40.274-23.525 51.651-48.389 0.971-2.108 2.46-2.577 4.469-1.406 25.197 14.724 52.337 19.426 81.416 14.105 49.193-8.935 68.217-52.957 77.505-96.477 8.382-39.404 15.911-80.765 29.164-118.462 17.603-49.996 42.883-98.484 75.846-145.469 0.072-0.111 0.172-0.199 0.293-0.254 0.119-0.057 0.252-0.078 0.381-0.061 0.131 0.014 0.256 0.068 0.358 0.15 0.102 0.084 0.18 0.193 0.223 0.317zM748.374 607.322c-26.036 57.825-43.035 117.811-50.999 179.953-3.381 26.604-7.748 51.568-13.101 74.892-3.664 16.113-13.603 34.033-31.623 36.442-29.014 3.915-67.666-9.136-66.46-44.273 0.969-28.679 5.001-54.747 12.095-78.206 9.136-30.353 14.541-49.895 16.214-58.629 14.457-75.344 39.956-143.208 79.561-214.639 5.353-9.603 12.716-11.913 22.086-6.926 21.719 11.577 44.073 21.651 67.064 30.218 0.233 0.078 0.446 0.207 0.627 0.379 0.18 0.17 0.324 0.379 0.418 0.61s0.141 0.483 0.133 0.737c-0.008 0.252-0.068 0.502-0.174 0.733-11.78 25.565-23.726 51.802-35.84 78.707zM867.84 309.86c-2.275 7.797-2.912 15.845-1.907 24.144 7.078 58.278 42.213 96.729 86.739 133.071 7.461 6.056 13.418 12.984 17.869 20.781 0.52 0.907 0.764 1.946 0.702 2.98-0.063 1.036-0.43 2.025-1.053 2.843-57.475 77.101-101.597 162.034-120.271 255.146-4.217 21.083-8.968 43.487-14.256 67.213-8.282 37.346-32.678 56.37-71.528 40.308-16.665-6.894-24.195-18.69-22.589-35.388 5.79-59.733 18.557-115.937 38.3-168.609 13.22-35.203 29.852-71.561 49.895-109.074 9.738-18.221 46.381 6.975 57.123-16.716 5.12-11.194-3.162-18.221-13.251-20.38-82.072-17.318-151.894-50.95-205.402-116.154-7.899-9.671-15.628-9.538-23.192 0.401l-7.379 9.738c-7.062 9.304-7.178 18.674-0.35 28.111 6.257 8.667 13.302 17.267 21.131 25.801 1.485 1.649 2.406 3.725 2.632 5.927 0.225 2.204-0.256 4.418-1.376 6.32-41.028 69.906-70.107 141.787-87.241 215.642-4.385 18.907-8.767 37.614-13.152 56.119-2.81 12.014-8.215 22.254-16.212 30.72-15.813 16.816-49.142 11.445-65.055-1.958-20.13-16.917-15.962-45.679-9.89-69.020 18.44-70.676 41.546-138.004 69.323-201.988 13.351-30.62 29.565-60.738 45.677-90.503 10.039-18.473 5.171-36.846-17.617-37.247-18.022-0.35-29.968 24.998-37.648 39.406-25.833 48.421-46.916 95.891-63.246 142.406-5.79 16.497-11.848 33.614-18.172 51.35-7.93 22.338-22.989 41.011-49.242 35.59-49.394-10.191-40.458-51.552-28.963-86.237 49.193-148.681 115.2-290.335 206.457-418.335 56.871-79.811 136.632-131.262 234.967-135.68 35.672-1.573 68.669 2.611 98.988 12.55 146.471 48.138 202.189 184.621 202.791 329.136 0.133 32.559 4.266 62.175 12.399 88.846 10.273 33.63 24.83 68.786 43.672 105.462 5.487 10.674 8.833 21.535 10.039 32.578 2.66 24.295-14.608 43.168-39.655 42.717-65.055-1.255-93.868-58.229-111.436-113.846-6.023-18.973-16.013-35.488-30.972-48.589-24.093-21.033-53.709-44.222-67.713-71.932-8.032-15.827-13.017-34.183-14.959-55.065-0.135-1.573-0.737-2.945-1.808-4.116-8.884-9.738-27.857-9.134-39.453-7.629-0.852 0.102-1.655 0.457-2.314 1.018-0.659 0.563-1.147 1.307-1.401 2.144z" />
<glyph unicode="&#xe92b;" glyph-name="link" d="M753.348 689.357c-49.992 49.992-131.024 49.996-181.009 0.014l-60.339-60.341c-16.662-16.662-43.677-16.662-60.339 0-16.664 16.664-16.664 43.677 0 60.341l60.339 60.339c83.315 83.316 218.381 83.296 301.689-0.012 83.313-83.313 83.306-218.39-0.005-301.698l-60.302-60.332c-16.659-16.666-43.672-16.673-60.341-0.016-16.666 16.659-16.673 43.675-0.014 60.341l60.309 60.339c49.987 49.987 49.999 131.040 0.011 181.025zM662.86 598.835c16.664-16.664 16.664-43.677 0-60.341l-241.361-241.359c-16.662-16.664-43.677-16.664-60.339 0-16.662 16.662-16.662 43.677 0 60.339l241.361 241.361c16.662 16.662 43.677 16.662 60.339 0zM331.007 508.334c16.662-16.662 16.662-43.677 0-60.339l-60.341-60.339c0 0 0 0 0 0-49.992-49.994-49.999-131.049-0.018-181.030 49.976-49.976 131.042-49.973 181.036 0.007 0.005 0.005-0.005-0.005 0 0l60.277 60.33c16.653 16.671 43.668 16.684 60.339 0.030s16.682-43.67 0.027-60.341l-60.275-60.33c-83.306-83.306-218.426-83.356-301.745-0.036s-83.286 218.403 0.019 301.709l60.339 60.341c16.664 16.662 43.679 16.662 60.341-0.002z" />
<glyph unicode="&#xe92c;" d="M733.068 290.036l-76.977 69.449c48.062 39.001 85.413 59.068 120.447 63.004 34.559 3.886 69.325-7.705 112.986-37.882 1.932-1.334 4.215-1.982 6.476-1.982v-42.49c0-189.446-45.003-230.049-254.976-230.049h-258.048c-209.973 0-254.976 40.603-254.976 230.049v48.958c2.73 0 5.46 0.938 7.543 2.817l54.467 49.144c36.946 33.333 68.11 57.862 96.284 74.038 28.069 16.113 52.606 23.61 76.468 23.61 23.865 0 48.399-7.497 76.471-23.61 28.171-16.176 59.337-40.705 96.281-74.038l182.468-164.632c4.168-3.756 10.918-3.756 15.086 0 4.165 3.761 4.165 9.855 0 13.614z" />
<glyph unicode="&#xe92d;" d="M196.923 675.436v-454.873c0-11.991-9.137-20.608-18.905-18.359-46.631 10.116-59.865 42.715-59.865 121.025v249.542c0 78.685 13.233 110.908 59.865 121.025 9.767 2.248 18.905-6.37 18.905-18.36z" />
<glyph unicode="&#xe92e;" horiz-adv-x="1065" d="M877.771 399.669c0-56.101-45.478-101.581-101.581-101.581-56.101 0-101.581 45.48-101.581 101.581s45.48 101.581 101.581 101.581c56.103 0 101.581-45.48 101.581-101.581z" />
<glyph unicode="&#xe92f;" d="M512 960c282.78 0 512-229.22 512-512s-229.22-512-512-512c-282.78 0-512 229.22-512 512s229.22 512 512 512z" />
<glyph unicode="&#xe930;" horiz-adv-x="1044" d="M303.182 960h420.962l9.994-0.621c0.184-0.782 0.477-1.409 0.877-1.882 0.217-0.263 0.5-0.381 0.848-0.355 1.386 0.112 2.763 0.007 4.129-0.315 1.19-0.276 2.499-0.384 3.924-0.325 2.857 0.118 5.728 0.273 8.614 0.463 4.94-0.618 9.878-1.202 14.813-1.754 5.302-0.591 10.107-1.324 14.418-2.198 5.585-1.137 11.258-2.352 17.021-3.647 3.174-0.71 5.835-2.198 8.8-2.809 3.516-0.723 6.752-1.629 9.708-2.72 4.686-1.721 9.368-3.446 14.045-5.174 3.095-1.137 6.205-2.431 9.333-3.883 2.603-1.209 5.612-2.487 9.028-3.834 3.043-1.202 5.859-2.691 8.448-4.465 2.523-1.735 4.962-3.183 7.322-4.346 2.523-1.248 5.134-2.556 7.836-3.923 4.889-2.471 10.43-6.107 16.626-10.91 1.217-0.939 2.464-1.836 3.746-2.69 3.074-2.050 5.933-4.248 9.007-6.258 2.83-1.843 4.938-4.277 7.52-6.367 6.177-5.013 12.231-10.562 18.164-16.646 2.8-2.871 5.599-5.726 8.397-8.565 3.049-3.095 5.71-6.091 7.983-8.988 1.847-2.346 3.826-4.701 5.933-7.066 4.051-4.543 6.851-9.994 10.822-14.567 1.315-1.505 2.306-3.252 2.978-5.243 0.088-0.282 0.272-0.531 0.522-0.709 0.582-0.414 1.262-0.631 1.704-1.222 2.109-2.845 3.834-5.729 5.175-8.653 1.901-4.13 4.809-7.51 6.771-11.462 2.812-5.677 5.663-11.462 8.554-17.356 1.497-3.065 2.198-6.308 3.754-9.255 2.415-4.563 3.953-9.737 5.767-14.616 0.84-2.254 1.686-4.783 2.531-7.589 0.77-2.543 1.593-5.066 2.474-7.569 1.489-4.219 1.952-8.397 3.42-12.753 1.151-3.398 1.888-6.787 2.218-10.172 0.453-4.661 2.236-8.849 2.552-13.423 0.168-2.415 1.163-4.612 1.311-6.959 0.178-2.673 0.248-7.072 0.207-13.195-0.012-6.031 0.041-9.853 0.158-11.463 0.315-4.225 0.412-8.020 0.287-11.383-0.217-5.782-0.326-8.69-0.326-8.722-0.119-50.375-0.033-97.708 0.256-142 0.014-2.077 0.418-4.379 1.212-6.908 0.33-1.053 0.131-1.942-0.592-2.673-0.131-0.137-0.143-0.285-0.039-0.442 0.053-0.080 0.086-0.164 0.098-0.256 0.039-0.207 0.023-0.424-0.049-0.631-0.426-1.202-0.535-2.48-0.326-3.834l-1.231 8.169c-0.020 0.141-0.076 0.274-0.158 0.391-0.082 0.115-0.19 0.209-0.317 0.274-0.125 0.066-0.264 0.1-0.408 0.1-0.141 0.002-0.283-0.031-0.41-0.096-7.141-3.58-13.965-7.909-20.47-12.988-16.032-12.517-31.277-25.924-45.74-40.221-14.612-14.442-29.145-29.387-43.6-44.835-8.423-8.995-16.679-17.693-24.769-26.098-4.749-4.921-9.296-9.665-13.64-14.232-15.505-16.273-31.508-32.254-48.007-47.938-17.543-16.675-35.877-32.444-55.003-47.307-5.251-4.080-10.648-8.012-16.194-11.796-8.929-6.091-17.996-12.329-27.369-17.947-18.567-11.137-35.844-19.614-51.831-25.428-7.608-2.773-15.362-5.394-23.259-7.864-5.007-1.569-10.23-2.494-15.297-3.844-7.707-2.060-16.173-2.662-24.244-3.756-0.809-0.104-2.867-0.641-6.179-1.606-2.13-0.618-4.469-0.958-7.018-1.026-10.787-0.274-20.148-0.084-28.078 0.573-2.615 0.215-5.272 0.588-7.973 1.112-6.732 1.321-13.502 1.735-20.244 3.027-7.858 1.503-15 3.107-21.426 4.809-4.073 1.077-8.235 2.165-12.487 3.262-2.458 0.631-4.139-0.152-5.046-2.345-2.001-4.839-4.041-9.353-5.685-14.154-0.705-2.036-1.485-4.014-2.347-5.933-1.714-3.803-1.96-7.973-3.498-11.835-1.3-3.267-2.212-6.681-2.73-10.24-0.553-3.875-1.657-7.6-2.572-11.403-1.321-5.47-1.952-11.078-3.045-16.597-0.52-2.621-0.903-5.29-1.153-8.004-0.803-8.641-1.333-17.287-1.597-25.94-0.004-0.143-0.039-0.283-0.106-0.41-0.066-0.127-0.16-0.238-0.274-0.324-0.115-0.084-0.248-0.143-0.387-0.17-0.141-0.027-0.287-0.020-0.424 0.016-2.247 0.625-4.54 1.159-6.879 1.606-8.081 1.559-16.058 3.924-23.929 7.096-19.599 7.899-37.192 19.206-52.777 33.923-7.096 6.695-13.425 13.441-18.983 20.234-6.216 7.588-12.612 17.471-19.188 29.645-6.101 11.305-10.172 23.654-13.523 35.965-1.626 5.982-2.177 12.171-2.908 18.36-0.479 4.067-0.872 8.407-1.182 13.019-0.303 4.502-0.627 8.87-0.975 13.107-0.088 1.12-0.608 2.163-1.45 2.908-5.552 4.927-10.867 9.767-15.946 14.518-6.361 5.951-12.777 13.036-19.249 21.248-2.374 3.025-4.307 6.326-6.515 9.48-7.391 10.596-12.298 22.817-16.853 35.293-1.122 3.088-1.98 6.529-2.572 10.32-0.518 3.344-1.12 6.84-1.802 10.486-1.044 5.573-1.577 12.507-1.597 20.806-0.010 3.459 0.719 6.978 0.877 10.457 0.287 6.16 1.647 12.083 2.662 18.104 0.532 3.16 1.372 6.478 2.523 9.955 4.151 12.562 8.54 23.368 13.167 32.414 11.53 22.53 26.855 42.922 44.173 61.057 13.916 14.58 29.366 28.254 46.35 41.028 19.941 15.008 40.567 27.881 61.874 38.625 12.97 6.543 25.919 12.802 39.59 18.223 4.205 1.669 9.015 3.437 14.428 5.302 7.598 2.621 15.079 5.419 22.747 7.5 6.791 1.843 13.423 3.893 20.253 5.243 6.486 1.272 12.892 3.164 19.425 3.942 9.865 1.182 19.309 3.637 29.37 4.012 16.196 0.604 32.129 0.555 47.8-0.15 4.874-0.223 7.92-0.459 9.136-0.709 10.979-2.241 18.117-3.752 21.416-4.534 19.436-4.612 37.29-12.155 53.565-22.628 18.168-11.682 33.397-26.774 45.691-45.277 2.040-3.074 3.852-6.554 5.263-10.002 8.317-20.283-9.699-40.645-24.621-52.156-10.465-8.081-21.633-15.155-33.499-21.219-20.513-10.492-41.071-18.68-61.676-24.56-13.611-3.883-27.339-7.44-41.236-9.826-2.474-0.424-4.85-1.212-7.322-1.567-0.449-0.066-0.895-0.211-1.341-0.434-0.44-0.223-0.887-0.446-1.339-0.67-0.788-0.387-1.604-0.604-2.445-0.651-3.987-0.203-7.934-0.326-11.835-0.365-2.853-0.027-6.302-0.41-10.349-1.153-0.324-0.059-0.604-0.19-0.848-0.393-1.235-1.032-2.685-1.63-4.346-1.794-9.83-0.952-19.669-1.094-29.518-0.424-2.228 0.158-4.327 0.75-6.427 1.38-0.229-0.068-0.387-0.010-0.473 0.166-0.125 0.25-0.326 0.395-0.602 0.434-4.131 0.539-8.546 1.051-13.244 1.538-7.608 0.788-15.532 3.361-22.737 5.569-11.538 3.529-21.699 9.421-30.484 17.68-5.755 5.415-9.832 11.295-12.231 17.641-2.214 5.855-3.797 11.915-4.749 18.184-1.696 11.155 0.266 22.292 2.345 33.313 0.143 0.754 0.197 1.513 0.158 2.275-0.006 0.106-0.037 0.209-0.088 0.301s-0.123 0.172-0.209 0.233c-0.086 0.061-0.184 0.102-0.287 0.121-0.104 0.018-0.211 0.014-0.313-0.014-3.285-0.94-6.269-2.073-8.95-3.4-13.984-6.949-26.008-17.416-35.963-29.626-4.151-5.091-8.249-11.061-12.29-17.908-1.931-3.273-3.133-6.584-4.848-9.994-2.208-4.395-2.849-8.79-4.762-13.146-0.735-1.669-1.251-3.391-1.546-5.165-0.967-5.736-2.298-11.768-2.771-17.652-0.182-2.241-0.223-4.252-0.117-6.031 0.551-9.763 1.714-17.875 3.488-24.334 2.72-9.902 7.326-19.237 13.818-28.008 5.040-6.82 11.033-13.289 17.977-19.407 1.153-1.014 1.28-2.257 0.365-3.508-3.201-4.362-6.291-8.473-9.275-12.329-3.211-4.149-5.478-8.337-8.278-12.517-2.161-3.213-4.035-6.423-5.618-9.628-2.49-5.046-4.841-10.248-7.057-15.602-1.313-3.187-2.41-6.521-3.291-10.004-0.84-3.344-1.79-6.738-2.849-10.181-1.546-5.067-1.487-11.414-2.324-17.091-1.46-9.816-1.473-20.189-0.041-31.123 0.78-5.913 1.38-11.905 2.957-17.75 2.47-9.191 5.612-17.924 9.423-26.196 2.318-5.026 4.88-9.734 7.686-14.123 3.195-5.007 6.226-9.419 9.097-13.236 6.117-8.161 13.9-16.337 23.347-24.531 5.79-5.014 11.569-9.505 17.336-13.472 0.229-0.156 0.485-0.264 0.756-0.319s0.549-0.055 0.817 0c0.27 0.055 0.526 0.166 0.752 0.322s0.418 0.356 0.563 0.588c0.612 0.961 0.967 2.058 1.065 3.293 1.163 14.375 3.697 27.986 7.598 40.831 3.877 12.761 8.487 24.031 13.828 33.815 6.793 12.425 14.797 23.855 24.009 34.288 1.065 1.212 2.435 2.238 3.351 3.451 0.729 0.965 1.511 1.851 2.345 2.66 3.037 2.982 5.937 5.829 8.704 8.534 0.274 0.276 0.561 0.553 0.856 0.829 6.164 5.835 12.669 11.248 19.515 16.241 8.626 6.296 14.873 10.654 18.735 13.079 20.316 12.753 40.911 24.015 61.784 33.786 15.981 7.483 40.139 18.706 72.479 33.667 11.837 5.47 23.21 11.295 34.869 17.148 5.442 2.734 10.838 5.626 16.194 8.673 6.609 3.758 11.872 6.9 15.788 9.423 37.452 24.119 64.817 56.758 82.098 97.915 0.604 1.446 1.153 2.871 1.645 4.278 1.262 3.635 2.82 7.066 4.033 10.721 3.488 10.482 5.994 19.657 7.52 27.527 1.937 10.021 3.639 19.968 5.104 29.843 0.455 3.056 0.721 6.031 0.7 9.157-0.104 17.832-0.082 35.019 0.070 51.565 0.059 6.431-0.565 13.029-1.874 19.79-1.448 7.412-2.187 15.108-3.961 22.46-2.136 8.81-4.712 17.49-7.727 26.038-1.083 3.056-2.474 5.814-3.578 8.761-0.801 2.148-1.702 4.272-2.701 6.367-5.407 11.393-11.592 22.215-18.557 32.465-2.533 3.745-5.45 7.096-8.18 10.684-2.208 2.898-4.403 5.549-6.584 7.953-9.265 10.217-18.387 18.782-27.369 25.694-11.346 8.726-22.622 16.039-33.825 21.939-30.835 16.242-64.215 25.359-100.143 27.349-15.868 0.877-33.391 1.271-49.248-1.597-8.051-1.459-16.075-1.813-23.988-3.725-13.906-3.361-26.669-6.712-39.52-11.521-13.214-4.948-25.553-10.056-37.020-15.326-17.299-7.944-33.735-16.863-49.308-26.758-12.227-7.766-19.986-12.819-23.278-15.158-20.23-14.363-38.849-29.373-55.853-45.031-20.007-18.422-39.119-38.636-57.34-60.641-6.582-7.952-12.722-16.232-18.991-24.549-7.668-10.172-14.567-20.011-20.697-29.518-3.332-5.175-6.889-10.191-10.043-15.671-5.222-9.066-10.861-17.887-15.778-27.3-1.724-3.312-4.002-6.318-5.442-9.757-1.104-2.632-2.769-4.938-4.030-7.52-5.603-11.414-10.887-22.559-15.848-33.44-0.67-1.473-1.248-2.894-1.734-4.268-1.321-3.686-3.036-7.066-4.445-10.682-2.431-6.23-4.856-12.37-7.273-18.422-1.35-3.389-2.149-6.918-3.578-10.289-1.922-4.504-2.809-9.105-4.8-13.609-1.202-2.73-1.646-5.47-2.237-8.358-0.857-4.1-2.927-7.797-3.775-12.005-1.114-5.538-3.055-11.088-4.238-16.398-0.9-4.041-1.902-8.106-3.006-12.192-1.804-6.654-2.129-13.582-3.864-20.126-0.756-2.832-1.298-5.464-1.626-7.895-0.644-4.737-1.301-9.443-1.971-14.123-0.374-2.562-0.861-5.239-1.459-8.032-0.637-3.015-0.982-6.201-1.035-9.56-0.427-29.77-0.47-59.091-0.128-87.962 0.026-2.666 0.348-5.261 0.966-7.784 0.677-2.746 1.189-5.302 1.537-7.668 0.759-5.106 1.449-10.33 2.562-15.426 1.393-6.353 2.881-12.673 4.465-18.962 1.584-6.273 3.916-13.9 6.997-22.874 0.854-2.497 1.807-5.048 2.858-7.657 0.972-2.425 1.958-4.964 2.957-7.619 3.594-9.548 8.387-19.614 14.379-30.198 5.605-9.896 11.629-19.38 18.076-28.453 3.045-4.289 6.859-8.634 10.623-13.257 2.279-2.798 4.606-5.558 6.978-8.278 2.281-2.615 4.747-5.226 7.401-7.836 10.047-9.849 20.146-18.61 30.296-26.284 10.895-8.233 21.897-15.389 33.008-21.467 15.755-8.606 32.217-16.146 49.385-22.618 13.228-4.977 27.044-8.839 40.587-12.575 5.204-1.43 10.742-1.608 16.093-3.301 2.57-0.809 5.384-1.436 8.446-1.884 9.554-1.393 19.022-2.65 28.404-3.774 6.164-0.735 15.976-1.212 29.44-1.43 7.995-0.125 17.474 0.057 28.432 0.543 7.168 0.322 13.687 0.92 19.554 1.794 7.504 1.124 14.95 2.245 22.344 3.361 3.527 0.532 7.092 1.343 10.693 2.435 3.645 1.104 7.53 1.133 11.215 2.208 8.036 2.339 15.632 4.612 22.786 6.82 3.168 0.979 6.388 2.062 9.658 3.252 29.44 10.713 57.262 25.141 82.778 42.969 24.705 17.261 47.561 36.164 68.565 56.711 16.355 15.999 29.751 30.003 40.192 42.013 8.26 9.492 16.933 19.169 24.797 28.918 6.234 7.727 13.091 16.316 20.568 25.772 4.088 5.171 8.069 10.299 11.946 15.385 1.083 1.419 2.118 2.779 3.105 4.080 13.468 17.82 27.89 37.403 43.266 58.751 1.339 1.86 2.736 3.738 4.188 5.636 3.006 3.932 5.657 8.092 8.684 12.065 2.966 3.883 5.667 7.903 8.573 11.856 6.932 9.421 14.115 19.005 21.545 28.748 8.679 11.401 16.022 20.713 22.028 27.941 9.519 11.452 19.665 22.551 30.433 33.292 2.687 2.687 8.831 7.823 18.43 15.405 0.788 0.621 1.016 1.36 1.468 2.187 0.342 0.631 0.768 1.2 1.282 1.706 0.84 0.827 1.569 1.753 2.187 2.779 0.565 0.932 0.903 2.017 1.016 3.252 0.498 5.454 0.627 10.94 0.383 16.458 0.461-2.398 0.631-4.772 0.514-7.125-0.059-1.11 0.078-2.329 0.414-3.656 0.342-1.354 0.551-2.556 0.631-3.609 1.024-13.679 1.356-23.249 0.995-28.709-0.553-8.417-0.7-14.596-0.444-18.538-0.571-1.202-0.881-2.623-0.926-4.268-0.006-0.262-0.125-0.455-0.354-0.58-0.514-0.283-0.78-0.664-0.799-1.145-0.004-0.012-0.002-0.027 0.004-0.039s0.016-0.020 0.031-0.025c0.012-0.004 0.027-0.002 0.039 0.004s0.020 0.018 0.025 0.031c0.131 0.229 0.211 0.446 0.236 0.651 0.027 0.242-0.055 0.291-0.246 0.147-0.229-0.172-0.358-0.381-0.385-0.631-0.354-3.561-0.528-7.668-0.522-12.321 0.014-61.854-0.051-123.714-0.197-185.582-0.012-5.577-0.076-11.162-0.186-16.755-0.080-3.518-0.809-6.928-1.135-10.416-0.158-1.663-0.453-3.408-0.887-5.235-0.42-1.8-0.815-3.602-1.182-5.411-0.006-0.039-0.025-0.068-0.049-0.088-0.074-0.066-0.156-0.115-0.248-0.147-0.295-0.098-0.457-0.305-0.483-0.621-0.42-6.019-1.503-11.604-3.252-16.755-1.319-3.914-1.872-7.954-3.379-11.758-1.044-2.621-1.952-5.329-2.72-8.122-1.303-4.69-3.619-9.105-5.245-13.748-2.374-6.84-5.933-13.384-8.454-20.292-0.541-1.479-1.321-3.088-2.347-4.829-1.556-2.642-3.068-5.313-4.532-8.014-1.38-2.542-2.945-5.163-4.692-7.864-3.273-5.059-6.443-10.033-9.511-14.922-2.089-3.322-4.671-6.111-6.889-9.314-1.544-2.22-3.297-4.52-5.263-6.898-2.068-2.511-4.248-5.095-6.533-7.756-3.377-3.942-7.326-8.116-11.848-12.517-4.368-4.258-8.622-8.44-12.763-12.546-4.696-4.659-11.643-10.67-20.834-18.037-1.518-1.214-3.111-2.351-4.78-3.41-4.1-2.601-7.727-5.569-12.073-8.169-6.085-3.654-12.143-7.34-18.174-11.059-2.404-1.487-4.927-2.66-7.412-4.041-1.812-1.006-3.688-1.905-5.628-2.699-3.951-1.616-7.815-3.715-11.934-4.938-1.262-0.381-2.494-0.838-3.697-1.37-7.635-3.377-15.337-6.334-23.112-8.87-3.172-1.038-6.494-1.939-9.964-2.701-2.984-0.657-6.337-1.544-10.062-2.66-4.942-1.491-10.215-2.425-15.819-2.8-2.494-0.168-4.76-1.272-7.264-1.438-4.966-0.346-11.205-2.238-15.088-1.933-4.837 0.375-9.64 0.33-14.41-0.137h-452.747c-3.871 0.178-7.748 0.27-11.631 0.276-3.312 0.006-6.212 0.19-8.702 0.551-3.873 0.553-7.815 0.868-11.641 1.745-4.854 1.11-9.665 1.919-14.428 2.425-2.542 0.262-4.766 0.784-6.672 1.567-4.524 1.853-9.097 2.257-13.629 3.746-3.24 1.063-6.275 2.017-9.107 2.857-2.806 0.836-5.689 1.847-8.653 3.035-5.992 2.413-12.149 4.876-18.469 7.393-2.72 1.083-5.572 2.236-8.555 3.459-1.642 0.676-3.157 1.448-4.543 2.316-2.020 1.272-4.258 1.753-6.091 3.242-3.321 2.72-7.54 4.563-11.225 7.008-1.866 1.227-3.89 2.404-6.071 3.527-2.188 1.13-4.182 2.359-5.982 3.686-3.022 2.228-6.17 4.35-9.442 6.367-0.828 0.512-1.025 0.936-1.498 1.745-0.158 0.262-0.371 0.469-0.641 0.621-3.653 2.017-7.171 4.694-10.555 8.032-0.815 0.801-1.692 1.513-2.631 2.138-1.981 1.321-3.046 3.291-5.302 4.436-0.664 0.334-1.156 0.85-1.478 1.546-0.749 1.616-1.984 2.56-3.706 2.828-0.381 0.059-0.598 0.281-0.65 0.662-0.269 1.905-1.403 3.156-3.4 3.754-0.368 0.113-0.631 0.348-0.788 0.711-0.611 1.419-1.639 2.517-3.085 3.291-0.409 0.217-0.734 0.561-0.926 0.977-0.788 1.688-2.063 2.877-3.824 3.568-0.388 0.15-0.654 0.42-0.798 0.807-0.624 1.708-1.8 2.957-3.528 3.746-0.436 0.203-0.775 0.565-0.946 1.016-0.598 1.569-1.731 2.628-3.4 3.172-0.197 0.066-0.378 0.172-0.53 0.313s-0.27 0.313-0.348 0.506c-0.384 0.975-0.927 2.040-1.666 2.787-2.102 2.124-3.886 4.262-5.352 6.416-1.124 1.657-3.262 2.701-3.686 4.653-0.118 0.532-0.42 0.92-0.907 1.161-1.419 0.711-2.26 1.917-2.523 3.619-0.066 0.44-0.269 0.795-0.611 1.063-0.572 0.461-1.206 0.813-1.902 1.055-0.348 0.119-0.585 0.348-0.71 0.69-0.986 2.695-2.339 5.204-4.061 7.53-1.183 1.595-1.39 4.227-3.587 4.71-0.401 0.092-0.69 0.322-0.867 0.69-1.104 2.394-1.961 5.173-3.489 7.352-0.611 0.86-1.17 1.81-1.675 2.849-0.867 1.774-1.988 3.535-3.361 5.282-1.311 1.665-1.695 3.774-2.691 5.597-3.318 6.058-5.434 10.162-6.347 12.311-2.365 5.579-4.747 11.196-7.145 16.853-1.209 2.859-2.096 5.476-2.661 7.856-0.447 1.878-1.055 3.633-1.823 5.261-1.872 3.992-2.681 8.428-4.070 12.546-2.188 6.466-3.41 13.375-5.154 20.007 0.453 1.565 0.164 3.211-0.867 4.938l-1.153 15.938c0.125 5.454 0.112 11.035-0.039 16.744-0.072 2.937-0.496 5.556-1.271 7.854-0.841 2.478-1.35 4.137-1.528 4.979-0.348 1.681-0.726 3.383-1.133 5.104-0.033 147.888-0.036 295.784-0.010 443.691 0 6.722 0.21 12.354 0.631 16.894 0.742 1.878 1.028 3.908 0.857 6.091-0.020 0.301 0.115 0.502 0.404 0.6 0.158 0.053 0.263 0.162 0.315 0.326 1.176 3.455 1.455 7.148 0.838 11.078-0.342 2.148-0.46 4.295-0.355 6.435 0.926 9.669 1.557 19.593 4.139 28.809 0.788 2.818 1.413 5.579 1.873 8.278 0.985 5.814 3.292 11.010 4.593 16.725 0.572 2.51 1.337 4.744 2.296 6.702 0.972 1.971 1.764 4.005 2.375 6.101 1.143 3.929 2.585 7.674 4.327 11.236 1.945 3.988 3.545 7.582 4.8 10.782 2.424 6.176 5.627 12.418 9.609 18.726 2.828 4.504 4.908 9.905 8.367 14.015 1.13 1.354 2.093 2.786 2.888 4.297 1.143 2.175 2.516 4.268 4.12 6.278 2.365 2.943 4.665 6.041 6.899 9.294 2.149 3.134 4.386 6.051 6.712 8.752 4.994 5.782 10.506 11.879 16.538 18.292 2.911 3.095 6.028 6.12 9.353 9.077 0.467 0.414 0.969 0.782 1.508 1.104 1.488 0.897 2.277 2.454 3.784 3.449 1.675 1.104 2.434 2.809 3.952 4.011 3.64 2.885 7.369 5.825 11.186 8.821 3.154 2.474 6.554 4.307 9.442 6.85 3.361 2.967 7.687 5.342 11.531 7.707 1.104 0.68 1.597 1.863 2.7 2.424 5.687 2.898 11.354 5.785 16.824 9.176 4.080 2.529 8.617 4.76 13.611 6.692 5.263 2.040 10.092 4.977 15.651 6.938 1.932 0.69 3.863 1.386 5.795 2.089 12.123 4.422 22.342 7.605 30.661 9.55 5.802 1.354 14.911 3.141 27.329 5.361 6.83 1.222 13.799 0.769 20.49 2.306 3.756 0.867 7.225 1.597 11.186 1.626 4.114 0.026 8.221 0.194 12.321 0.503z" />
<glyph unicode="&#xe931;" horiz-adv-x="1044" d="M1012.113 507.666l0.946-13.67-0.285-7.983c-0.014-0.322 0.092-0.598 0.315-0.827 0.446-0.479 0.426-0.985-0.059-1.518-0.145-0.164-0.115-0.287 0.088-0.365 0.125-0.053 0.147-0.135 0.070-0.248-0.381-0.524-0.575-1.122-0.582-1.792-0.047-3.883-0.123-7.75-0.227-11.6 0.244-5.519 0.115-11.006-0.385-16.46-0.111-1.235-0.449-2.32-1.014-3.252-0.618-1.026-1.348-1.952-2.189-2.779-0.512-0.506-0.938-1.075-1.28-1.706-0.455-0.827-0.68-1.567-1.468-2.187-9.599-7.582-15.743-12.718-18.43-15.405-10.768-10.742-20.914-21.84-30.435-33.292-6.005-7.227-13.347-16.54-22.026-27.941-7.432-9.742-14.612-19.327-21.545-28.748-2.908-3.953-5.607-7.973-8.575-11.856-3.025-3.973-5.677-8.133-8.681-12.065-1.452-1.898-2.849-3.777-4.19-5.636-15.374-21.348-29.796-40.931-43.266-58.751-0.985-1.3-2.019-2.66-3.105-4.080-3.875-5.085-7.858-10.213-11.944-15.385-7.477-9.456-14.334-18.045-20.568-25.772-7.866-9.746-16.538-19.425-24.797-28.916-10.441-12.012-23.839-26.016-40.192-42.015-21.004-20.546-43.86-39.449-68.565-56.709-25.516-17.83-53.338-32.258-82.778-42.971-3.271-1.19-6.49-2.273-9.658-3.252-7.156-2.208-14.75-4.481-22.786-6.82-3.686-1.075-7.569-1.104-11.215-2.208-3.6-1.092-7.166-1.903-10.695-2.435-7.391-1.116-14.838-2.236-22.342-3.361-5.868-0.874-12.386-1.473-19.554-1.794-10.959-0.485-20.437-0.666-28.432-0.541-13.464 0.215-23.278 0.692-29.44 1.427-9.382 1.124-18.85 2.382-28.404 3.774-3.062 0.449-5.878 1.075-8.446 1.884-5.351 1.694-10.891 1.872-16.095 3.301-13.541 3.736-27.359 7.598-40.585 12.575-17.168 6.472-33.63 14.012-49.385 22.618-11.11 6.078-22.114 13.234-33.008 21.467-10.15 7.674-20.249 16.435-30.296 26.284-2.654 2.609-5.122 5.22-7.401 7.836-2.372 2.72-4.698 5.48-6.978 8.278-3.764 4.622-7.58 8.97-10.625 13.257-6.445 9.073-12.47 18.559-18.074 28.453-5.992 10.586-10.785 20.65-14.379 30.198-0.999 2.654-1.984 5.194-2.957 7.619-1.051 2.609-2.004 5.161-2.858 7.657-3.081 8.976-5.414 16.601-6.997 22.874-1.584 6.289-3.072 12.61-4.465 18.962-1.114 5.095-1.804 10.32-2.562 15.426-0.348 2.365-0.861 4.921-1.537 7.668-0.618 2.523-0.94 5.118-0.966 7.784-0.342 28.871-0.299 58.192 0.128 87.962 0.053 3.359 0.398 6.545 1.035 9.56 0.598 2.793 1.084 5.47 1.459 8.032 0.67 4.68 1.327 9.386 1.971 14.123 0.328 2.431 0.871 5.063 1.626 7.895 1.735 6.543 2.060 13.474 3.864 20.126 1.104 4.086 2.106 8.151 3.006 12.192 1.183 5.31 3.124 10.861 4.238 16.398 0.848 4.209 2.917 7.905 3.775 12.005 0.591 2.888 1.035 5.628 2.237 8.358 1.991 4.504 2.878 9.105 4.8 13.609 1.429 3.371 2.227 6.9 3.578 10.289 2.418 6.052 4.842 12.192 7.273 18.422 1.409 3.617 3.124 6.996 4.445 10.682 0.486 1.374 1.065 2.796 1.735 4.268 4.961 10.881 10.243 22.028 15.848 33.44 1.262 2.583 2.927 4.889 4.030 7.52 1.44 3.441 3.715 6.445 5.442 9.757 4.917 9.413 10.555 18.233 15.778 27.3 3.154 5.48 6.711 10.496 10.043 15.671 6.13 9.507 13.029 19.345 20.697 29.518 6.267 8.317 12.407 16.597 18.991 24.549 18.219 22.006 37.333 42.22 57.34 60.643 17.005 15.656 35.621 30.666 55.853 45.029 3.291 2.339 11.051 7.392 23.278 15.158 15.573 9.895 32.008 18.815 49.308 26.758 11.467 5.27 23.806 10.378 37.018 15.325 12.853 4.81 25.616 8.16 39.522 11.521 7.913 1.912 15.935 2.267 23.988 3.726 15.858 2.868 33.38 2.474 49.248 1.597 35.928-1.991 69.308-11.107 100.143-27.349 11.203-5.9 22.477-13.213 33.825-21.939 8.983-6.912 18.104-15.477 27.369-25.694 2.181-2.405 4.375-5.056 6.582-7.954 2.73-3.587 5.648-6.938 8.182-10.683 6.963-10.25 13.15-21.072 18.557-32.465 0.999-2.095 1.898-4.217 2.701-6.367 1.104-2.945 2.492-5.706 3.578-8.761 3.015-8.548 5.591-17.228 7.727-26.038 1.774-7.352 2.513-15.049 3.961-22.46 1.307-6.76 1.931-13.357 1.872-19.79-0.15-16.546-0.174-33.733-0.068-51.565 0.018-3.125-0.248-6.101-0.7-9.157-1.464-9.875-3.166-19.823-5.106-29.843-1.524-7.87-4.030-17.046-7.52-27.525-1.21-3.658-2.769-7.088-4.030-10.723-0.492-1.407-1.040-2.832-1.645-4.278-17.281-41.157-44.646-73.796-82.098-97.915-3.916-2.523-9.179-5.665-15.788-9.423-5.356-3.047-10.754-5.939-16.194-8.673-11.659-5.853-23.032-11.678-34.869-17.148-32.34-14.961-56.498-26.184-72.479-33.667-20.873-9.771-41.468-21.031-61.784-33.786-3.865-2.423-10.109-6.783-18.735-13.079-6.846-4.993-13.353-10.406-19.515-16.241-0.295-0.276-0.582-0.553-0.858-0.827-2.765-2.707-5.667-5.552-8.702-8.536-0.834-0.809-1.616-1.696-2.345-2.66-0.918-1.212-2.288-2.238-3.351-3.451-9.212-10.433-17.215-21.862-24.009-34.288-5.341-9.783-9.951-21.053-13.828-33.815-3.901-12.845-6.435-26.456-7.598-40.831-0.098-1.235-0.453-2.333-1.065-3.293-0.145-0.231-0.338-0.432-0.563-0.588-0.227-0.156-0.481-0.266-0.752-0.322s-0.547-0.055-0.817 0c-0.27 0.055-0.528 0.164-0.756 0.319-5.769 3.969-11.547 8.458-17.336 13.472-9.447 8.194-17.23 16.37-23.347 24.531-2.871 3.817-5.904 8.229-9.097 13.236-2.806 4.389-5.368 9.097-7.686 14.123-3.811 8.272-6.953 17.005-9.423 26.196-1.577 5.845-2.179 11.837-2.957 17.75-1.432 10.934-1.419 21.307 0.039 31.126 0.84 5.675 0.78 12.024 2.327 17.089 1.059 3.443 2.007 6.836 2.849 10.181 0.881 3.484 1.978 6.818 3.291 10.004 2.214 5.353 4.567 10.555 7.057 15.602 1.583 3.205 3.455 6.414 5.618 9.628 2.8 4.18 5.065 8.368 8.278 12.517 2.984 3.856 6.074 7.967 9.275 12.329 0.915 1.251 0.788 2.494-0.365 3.508-6.945 6.117-12.937 12.587-17.977 19.407-6.492 8.772-11.098 18.108-13.818 28.008-1.774 6.459-2.937 14.572-3.49 24.334-0.104 1.78-0.066 3.791 0.119 6.031 0.473 5.884 1.804 11.915 2.771 17.652 0.295 1.774 0.811 3.496 1.546 5.165 1.913 4.356 2.552 8.751 4.76 13.146 1.716 3.41 2.918 6.722 4.85 9.994 4.041 6.846 8.137 12.816 12.29 17.908 9.953 12.21 21.977 22.678 35.963 29.626 2.681 1.327 5.665 2.46 8.95 3.4 0.1 0.029 0.209 0.033 0.311 0.014 0.104-0.018 0.203-0.059 0.289-0.121s0.158-0.141 0.209-0.233c0.051-0.092 0.082-0.195 0.088-0.301 0.039-0.762-0.014-1.52-0.158-2.275-2.081-11.020-4.041-22.157-2.347-33.313 0.954-6.269 2.537-12.329 4.751-18.184 2.398-6.347 6.476-12.227 12.231-17.641 8.784-8.26 18.946-14.152 30.482-17.68 7.205-2.208 15.129-4.78 22.737-5.569 4.698-0.487 9.114-0.999 13.246-1.538 0.276-0.039 0.477-0.184 0.602-0.434 0.084-0.176 0.244-0.231 0.473-0.166 2.099-0.631 4.198-1.223 6.425-1.38 9.851-0.67 19.689-0.528 29.518 0.424 1.663 0.164 3.111 0.762 4.348 1.794 0.242 0.203 0.524 0.334 0.846 0.393 4.049 0.743 7.498 1.126 10.349 1.153 3.903 0.039 7.85 0.162 11.837 0.365 0.842 0.047 1.655 0.264 2.443 0.651 0.455 0.223 0.901 0.446 1.341 0.67 0.446 0.223 0.893 0.369 1.339 0.434 2.474 0.354 4.85 1.143 7.324 1.567 13.896 2.386 27.625 5.943 41.236 9.826 20.605 5.88 41.163 14.068 61.676 24.56 11.866 6.064 23.034 13.138 33.499 21.219 14.922 11.512 32.938 31.873 24.619 52.156-1.409 3.449-3.222 6.928-5.261 10.002-12.294 18.504-27.525 33.595-45.691 45.277-16.275 10.473-34.13 18.016-53.565 22.628-3.299 0.782-10.437 2.294-21.416 4.534-1.217 0.25-4.262 0.485-9.136 0.709-15.671 0.705-31.605 0.754-47.8 0.15-10.064-0.375-19.505-2.828-29.37-4.012-6.533-0.778-12.939-2.671-19.425-3.942-6.83-1.35-13.464-3.4-20.253-5.243-7.668-2.079-15.149-4.878-22.747-7.5-5.415-1.866-10.224-3.633-14.428-5.302-13.67-5.421-26.62-11.68-39.59-18.223-21.309-10.744-41.933-23.618-61.874-38.625-16.984-12.771-32.436-26.448-46.352-41.028-17.316-18.135-32.641-38.527-44.171-61.057-4.626-9.046-9.015-19.851-13.169-32.414-1.149-3.478-1.991-6.795-2.523-9.955-1.014-6.021-2.374-11.944-2.66-18.104-0.158-3.48-0.887-6.998-0.877-10.457 0.018-8.298 0.551-15.233 1.595-20.806 0.684-3.645 1.286-7.141 1.804-10.486 0.592-3.791 1.448-7.231 2.572-10.32 4.553-12.476 9.462-24.697 16.853-35.293 2.208-3.152 4.139-6.455 6.515-9.48 6.472-8.212 12.888-15.297 19.249-21.248 5.077-4.751 10.394-9.591 15.946-14.518 0.842-0.745 1.36-1.788 1.448-2.908 0.348-4.237 0.674-8.606 0.977-13.107 0.307-4.612 0.702-8.952 1.182-13.019 0.729-6.189 1.282-12.378 2.908-18.36 3.351-12.311 7.42-24.66 13.521-35.963 6.578-12.175 12.974-22.057 19.19-29.647 5.558-6.793 11.887-13.537 18.981-20.234 15.585-14.717 33.178-26.024 52.777-33.923 7.873-3.172 15.849-5.538 23.931-7.096 2.339-0.446 4.633-0.981 6.879-1.606 0.137-0.037 0.283-0.043 0.422-0.016 0.141 0.027 0.274 0.086 0.389 0.17 0.115 0.086 0.209 0.197 0.274 0.324s0.102 0.266 0.106 0.41c0.262 8.653 0.795 17.299 1.597 25.94 0.25 2.714 0.633 5.382 1.153 8.004 1.094 5.519 1.724 11.127 3.045 16.597 0.915 3.803 2.019 7.528 2.572 11.403 0.518 3.559 1.427 6.973 2.73 10.24 1.536 3.863 1.784 8.032 3.498 11.835 0.86 1.919 1.642 3.897 2.345 5.933 1.647 4.801 3.686 9.314 5.687 14.154 0.907 2.193 2.589 2.976 5.046 2.345 4.252-1.098 8.413-2.185 12.487-3.262 6.427-1.702 13.568-3.305 21.426-4.809 6.742-1.292 13.513-1.706 20.244-3.027 2.699-0.524 5.358-0.897 7.973-1.112 7.93-0.657 17.289-0.848 28.078-0.573 2.55 0.068 4.889 0.408 7.018 1.026 3.31 0.967 5.37 1.501 6.179 1.606 8.071 1.096 16.538 1.696 24.244 3.756 5.067 1.35 10.289 2.277 15.297 3.844 7.897 2.47 15.651 5.091 23.259 7.864 15.987 5.814 33.264 14.291 51.831 25.428 9.372 5.618 18.44 11.856 27.369 17.947 5.544 3.785 10.942 7.717 16.191 11.796 19.126 14.862 37.462 30.632 55.005 47.307 16.499 15.684 32.5 31.664 48.007 47.94 4.342 4.565 8.888 9.31 13.64 14.232 8.088 8.403 16.343 17.103 24.766 26.098 14.455 15.446 28.989 30.39 43.602 44.833 14.461 14.297 29.708 27.703 45.74 40.221 6.504 5.079 13.328 9.409 20.47 12.99 0.127 0.063 0.268 0.096 0.41 0.094 0.141 0 0.283-0.035 0.408-0.1 0.127-0.066 0.236-0.16 0.317-0.274 0.082-0.117 0.137-0.25 0.158-0.391l1.231-8.169z" />
<glyph unicode="&#xe932;" d="M1024 0c0-35.328-28.672-64-64-64h-896c-35.328 0-64 28.672-64 64v896c0 35.328 28.672 64 64 64h896c35.328 0 64-28.672 64-64v-896z" />
<glyph unicode="&#xe933;" d="M704-64v384h128l32 160h-160v64c0 64 32.063 96 96 96h64v160c-32 0-71.68 0-128 0-117.6 0-192-92.193-192-224v-96h-128v-160h128v-384h160z" />
<glyph unicode="&#xe934;" horiz-adv-x="1044" d="M810.803 1.231c-16.56 7.875-32.367 1.911-47.421-5.732-134.967-68.671-287.132-78.688-427.774-25.94-258.298 96.868-395.756 374.911-310.235 636.971 27.638 84.73 72.299 155.312 133.983 211.746 70.137 64.155 150.060 106.809 239.769 127.962 203.639 48.058 418.916-32.251 541.319-201.728 62.804-86.929 94.822-185.747 96.059-296.454 0.926-84.537-21.193-161.892-57.555-237.165-14.070-29.182-21.656-60.623-21.539-92.353 0.231-55.122 41.167-89.399 75.676-125.819 2.15-2.284 3.373-5.284 3.426-8.413 0.053-3.127-1.065-6.158-3.135-8.493-11.002-12.567-52.517-12.681-68.266-12.392-51.995 1.081-103.43 13.685-154.307 37.81zM702.702 45.699c30.63 14.881 68.092 31.846 101.095 28.43 12.237-1.274 27.638-5.732 46.205-13.375 14.592-6.023 29.413-12.179 44.468-18.471 4.477-1.853 6.967-0.367 7.469 4.458 0.193 1.929-0.52 5.038-2.142 9.322-12.468 33.079-15.653 66.218-9.554 99.416 7.373 40.53 19.282 77.722 35.725 111.575 15.112 31.152 26.694 61.086 32.657 95.074 6.484 37.249 8.569 75.387 6.253 114.414-1.274 21.77-5.849 42.498-9.091 63.98-2.353 15.557-5.925 29.975-10.711 43.254-39.412 109.007-106.461 190.726-201.148 245.153-86.62 49.853-184.185 69.366-282.675 57.322-94.495-11.542-178.239-50.876-251.232-118.003-36.71-33.738-65.719-70.678-87.026-110.822-20.767-39.219-35.223-77.937-43.368-116.15-9.998-46.901-11.851-97.178-5.559-150.833 6.099-51.61 22.929-102.021 50.49-151.239 55.392-98.972 136.397-168.049 243.012-207.229 104.628-38.445 236.354-34.046 335.133 13.724z" />
<glyph unicode="&#xe935;" horiz-adv-x="1044" d="M702.704 45.699c-98.779-47.768-230.504-52.169-335.133-13.722-106.615 39.178-187.618 108.255-243.011 207.227-27.561 49.218-44.391 99.629-50.49 151.239-6.292 53.656-4.439 103.934 5.558 150.833 8.145 38.216 22.601 76.931 43.368 116.15 21.308 40.145 50.316 77.085 87.025 110.823 72.995 67.127 156.74 106.461 251.234 118.003 98.49 12.043 196.053-7.469 282.673-57.322 94.687-54.427 161.737-136.144 201.148-245.153 4.786-13.279 8.358-27.697 10.713-43.254 3.242-21.481 7.815-42.209 9.089-63.98 2.316-39.027 0.231-77.165-6.253-114.414-5.964-33.989-17.543-63.922-32.655-95.074-16.445-33.851-28.353-71.045-35.725-111.575-6.099-33.196-2.914-66.335 9.554-99.416 1.62-4.284 2.335-7.393 2.142-9.322-0.502-4.825-2.992-6.312-7.469-4.458-15.055 6.291-29.878 12.45-44.468 18.471-18.567 7.643-33.97 12.102-46.207 13.375-33.004 3.416-70.466-13.55-101.095-28.43zM742.887 618.691c0 6.607-1.3 13.15-3.83 19.255-2.529 6.103-6.234 11.651-10.908 16.323-4.671 4.674-10.22 8.378-16.323 10.908-6.105 2.529-12.648 3.83-19.255 3.83h-124.256c-13.345 0-26.143-5.3-35.58-14.737-9.435-9.435-14.737-22.233-14.737-35.578v-8.686c0-13.345 5.302-26.143 14.737-35.58 9.437-9.435 22.235-14.737 35.58-14.737h124.256c6.607 0 13.15 1.303 19.255 3.832 6.103 2.527 11.651 6.234 16.323 10.906 4.674 4.674 8.378 10.22 10.908 16.325s3.83 12.648 3.83 19.255v8.686zM742.945 450.14c0 13.513-5.368 26.472-14.924 36.028-9.554 9.556-22.516 14.924-36.028 14.924h-349.608c-13.513 0-26.474-5.368-36.028-14.924-9.556-9.556-14.924-22.516-14.924-36.028v-5.906c0-6.691 1.317-13.318 3.877-19.499 2.562-6.183 6.314-11.799 11.047-16.531 4.731-4.731 10.349-8.483 16.529-11.045 6.183-2.56 12.808-3.879 19.499-3.879h349.608c6.691 0 13.316 1.319 19.499 3.879 6.181 2.562 11.799 6.314 16.529 11.045 4.733 4.733 8.485 10.349 11.047 16.531 2.56 6.181 3.877 12.808 3.877 19.499v5.906zM516.52 285.46c0.033 6.447-1.204 12.839-3.639 18.809-2.437 5.97-6.025 11.401-10.559 15.985-4.536 4.583-9.931 8.229-15.874 10.727-5.945 2.499-12.323 3.801-18.77 3.836l-125.991 0.659c-13.023 0.068-25.539-5.040-34.796-14.199-9.255-9.161-14.494-21.621-14.561-34.644l-0.055-10.306c-0.033-6.449 1.204-12.839 3.639-18.809 2.437-5.97 6.025-11.403 10.559-15.987 4.536-4.581 9.931-8.227 15.874-10.725 5.945-2.499 12.323-3.803 18.77-3.836l125.991-0.659c13.023-0.070 25.539 5.038 34.796 14.199 9.255 9.159 14.494 21.621 14.561 34.642l0.055 10.308z" />
<glyph unicode="&#xe936;" horiz-adv-x="1044" d="M692.572 669.006h-124.256c-27.789 0-50.315-22.526-50.315-50.315v-8.686c0-27.789 22.526-50.317 50.315-50.317h124.256c27.789 0 50.317 22.528 50.317 50.317v8.686c0 27.789-22.528 50.315-50.317 50.315z" />
<glyph unicode="&#xe937;" horiz-adv-x="1044" d="M691.991 501.092h-349.608c-28.14 0-50.952-22.813-50.952-50.952v-5.906c0-28.142 22.813-50.954 50.952-50.954h349.608c28.142 0 50.954 22.813 50.954 50.954v5.906c0 28.14-22.813 50.952-50.954 50.952z" />
<glyph unicode="&#xe938;" horiz-adv-x="1044" d="M467.675 334.817l-125.991 0.659c-27.118 0.141-49.213-21.725-49.357-48.843l-0.053-10.306c-0.141-27.118 21.725-49.215 48.843-49.357l125.991-0.659c27.118-0.143 49.215 21.725 49.357 48.843l0.053 10.306c0.143 27.118-21.725 49.215-48.843 49.357z" />
<glyph unicode="&#xe939;" d="M561.146 467.894l-461.702-462.948c-22.068 20.931-33.994 49.639-33.994 80.749v726.112c0 31.698 12.526 60.414 35.194 81.936l460.502-425.848z" />
<glyph unicode="&#xe93a;" d="M960.203 448.76c0-41.878-22.682-78.954-60.262-99.901l-131.211-72.964-207.589 192.002 172.386 172.859 166.414-92.113c37.581-20.947 60.262-58.024 60.262-99.883z" />
<glyph unicode="&#xe93b;" d="M561.142 467.894l-460.502 425.851c5.962 5.992 13.724 11.37 21.478 16.154 37.574 22.726 82.911 23.334 121.678 1.79l489.734-270.933-172.388-172.861z" />
<glyph unicode="&#xe93c;" d="M768.731 275.894l-524.935-290.085c-18.485-10.772-39.376-15.548-59.652-15.548-21.468 0-42.938 5.38-62.026 17.336-8.364 4.788-16.116 10.768-22.678 17.351l461.702 462.95 44.734-41.269 162.855-150.735z" />
<glyph unicode="&#xe93d;" d="M508.518 916.173h6.963c28.956 0 52.429-23.473 52.429-52.429v-74.957c0-28.956-23.473-52.429-52.429-52.429h-6.963c-28.956 0-52.429 23.473-52.429 52.429v74.957c0 28.956 23.473 52.429 52.429 52.429z" />
<glyph unicode="&#xe93e;" d="M301.67 728.166h4.915c30.652 0 55.501-24.849 55.501-55.501v-210.125c0-30.652-24.849-55.501-55.501-55.501h-4.915c-30.652 0-55.501 24.849-55.501 55.501v210.125c0 30.652 24.849 55.501 55.501 55.501z" />
<glyph unicode="&#xe93f;" d="M715.726 727.968l7.373-0.013c29.521-0.052 53.411-24.025 53.359-53.546l-0.122-70.041c-0.052-29.521-24.025-53.411-53.546-53.359l-7.373 0.013c-29.521 0.052-53.411 24.025-53.359 53.546l0.122 70.041c0.052 29.521 24.025 53.411 53.546 53.359z" />
<glyph unicode="&#xe940;" d="M510.566 677.581h2.867c30.2 0 54.682-24.482 54.682-54.682v-349.389c0-30.2-24.482-54.682-54.682-54.682h-2.867c-30.2 0-54.682 24.482-54.682 54.682v349.389c0 30.2 24.482 54.682 54.682 54.682z" />
<glyph unicode="&#xe941;" d="M97.894 537.907h7.782c29.974 0 54.272-24.298 54.272-54.272v-71.68c0-29.974-24.298-54.272-54.272-54.272h-7.782c-29.974 0-54.272 24.298-54.272 54.272v71.68c0 29.974 24.298 54.272 54.272 54.272z" />
<glyph unicode="&#xe942;" d="M916.908 537.838l7.372 0.116c30.083 0.473 54.853-23.531 55.326-53.614l1.119-71.262c0.473-30.083-23.531-54.853-53.614-55.326l-7.372-0.116c-30.083-0.473-54.853 23.531-55.326 53.614l-1.119 71.262c-0.473 30.083 23.531 54.853 53.614 55.326z" />
<glyph unicode="&#xe943;" d="M716.466 488.76l5.734-0.010c30.087-0.053 54.434-24.485 54.382-54.572l-0.37-212.172c-0.053-30.087-24.485-54.434-54.572-54.382l-5.734 0.010c-30.087 0.053-54.434 24.485-54.382 54.572l0.37 212.172c0.053 30.087 24.485 54.434 54.572 54.382z" />
<glyph unicode="&#xe944;" d="M300.032 344.371h7.782c29.86 0 54.067-24.207 54.067-54.067v-68.403c0-29.86-24.207-54.067-54.067-54.067h-7.782c-29.86 0-54.067 24.207-54.067 54.067v68.403c0 29.86 24.207 54.067 54.067 54.067z" />
<glyph unicode="&#xe945;" d="M508.675 159.238l6.963-0.012c28.842-0.050 52.183-23.473 52.133-52.315l-0.131-74.957c-0.050-28.842-23.473-52.183-52.315-52.133l-6.963 0.012c-28.842 0.050-52.183 23.473-52.133 52.315l0.131 74.957c0.050 28.842 23.473 52.183 52.315 52.133z" />
<glyph unicode="&#xe946;" d="M520.034 669.528c-1.726 69.81 26.765 124.514 85.197 163.657l4.628-6.908c-55.546-37.21-82.641-88.598-81.553-154.603 29.364 0.281 56.027 8.245 80.091 23.892l4.532-6.971c-25.971-16.888-54.856-25.299-86.544-25.242h0.008c-0.002 0-0.004 0-0.008 0-1.358 0-3.088 0.346-4.485 1.692-1.399 1.346-1.81 3.064-1.864 4.424l-0.002 0.059z" />
<glyph unicode="&#xe947;" d="M694.721 855.941c-0.057 1.297-0.461 3.098-2.009 4.435-1.552 1.34-3.4 1.473-4.688 1.342v0l-0.041-0.005c-30.683-3.447-58.266-12.927-82.672-28.48l4.467-7.012c22.634 14.422 48.194 23.417 76.743 26.947 2.054-52.276-14.621-97.093-50.074-134.71l-0.002-0.002c-8.2-8.712-17.525-16.329-27.982-22.852l4.399-7.055c11.049 6.889 20.931 14.959 29.637 24.205 37.564 39.858 54.989 87.678 52.222 143.186z" />
<glyph unicode="&#xe948;" d="M611.703 829.883c0.637-17.445 1.178-34.267 1.622-50.467v-0.002c0.133-4.96-0.367-10.306-0.852-15.512-0.072-0.771-0.143-1.539-0.213-2.303-0.551-6.054-0.973-11.966-0.487-17.655v-0.004c0.631-7.449-0.049-13.709-0.754-20.195-0.084-0.774-0.17-1.552-0.252-2.335l-0.002-0.025c-0.43-3.848-0.053-8.26 1.262-13.287l-0.002 0.006c1.307-4.964 2.23-10.168 2.777-15.608l-8.272-0.831c-0.508 5.036-1.358 9.81-2.546 14.324l-0.002 0.006c-1.509 5.777-2.048 11.229-1.483 16.3 0.084 0.793 0.168 1.565 0.25 2.322 0.707 6.547 1.298 12.016 0.739 18.622-0.553 6.49-0.061 13.049 0.489 19.113 0.074 0.797 0.147 1.584 0.219 2.361 0.489 5.263 0.936 10.055 0.815 14.475zM611.703 829.883v0zM603.392 829.579c0.637-17.421 1.178-34.217 1.62-50.389l-1.62 50.389z" />
<glyph unicode="&#xe949;" d="M257.686 671.076l-82.849 3.91c34.383 0.446 62.027-0.842 82.849-3.91zM174.944 666.673c-35.019-0.461-71.28-0.498-108.782-0.111-0.818-170.078-0.744-314.526 0.22-433.345 0.244-30.065 7.739-58.78 22.533-86.196 38.067-70.511 104.382-108.065 184.613-107.78 163.48 0.637 328.899 0.582 496.259-0.166 20.58-0.082 38.513 1.673 53.84 5.214l0.004 0.002c74.961 17.213 131.082 75.497 149.725 149.621 3.668 14.623 5.554 36.698 5.528 66.454-0.248 143.665-0.428 278.747-0.539 405.248-24.285 0.299-68.678 0.637-133.186 1.016-70.916 0.412-134.361-17.51-190.458-53.713-18.385-11.866-39.741-29.278-64.086-52.324l-0.002-0.002c-21.314-20.148-42.373-38.914-63.175-56.293l-0.014-0.014c-1.341-1.11-3.029-1.716-4.77-1.716-1.743 0-3.43 0.606-4.772 1.716l-0.025 0.020c-25.242 21.217-49.611 42.684-73.11 64.403v0c-24.478 22.63-45.545 39.096-63.23 49.527v0c-39.518 23.323-81.191 38.185-125.041 44.616l-0.004 0.002c-20.195 2.974-47.344 4.264-81.53 3.822zM174.837 674.986v0zM174.836 674.986l-111.235-0.082c38.383-0.416 75.461-0.387 111.235 0.082zM650.193 619.903c57.539 37.132 122.585 55.462 195.015 55.042v0c66.073-0.387 111.069-0.733 134.978-1.038h0.020c1.436-0.027 3.246-0.42 4.669-1.868 1.419-1.446 1.784-3.26 1.784-4.698 0.111-126.992 0.291-262.646 0.541-406.96v-0.004c0.029-29.942-1.853-52.847-5.779-68.489v-0.002c-19.356-76.958-77.73-137.74-155.927-155.697-16.101-3.719-34.695-5.511-55.74-5.427h-0.002c-167.338 0.748-332.734 0.805-496.189 0.166h-0.002c-83.152-0.295-152.368 38.812-191.96 112.144v0.002c-15.416 28.568-23.275 58.61-23.53 90.077-0.97 119.478-1.039 264.839-0.208 436.079v-0.020c0 1.153 0.291 2.783 1.602 4.094s2.94 1.602 4.093 1.602h0.045zM650.193 619.903v0zM257.688 671.076c44.952-6.595 87.644-21.832 128.057-45.681 18.403-10.856 39.961-27.761 64.649-50.584 23.226-21.469 47.315-42.695 72.262-63.678 20.484 17.136 41.232 35.635 62.247 55.497 24.545 23.239 46.316 41.026 65.29 53.273l1.901-2.943z" />
<glyph unicode="&#xe94a;" d="M332.227 531.677c13.119-6.859 21.948-21.154 21.383-39.492v0.002c0 0 0-0.002 0-0.002-1.626-53.955 17.236-98.443 56.658-133.804 0 0 0 0 0 0v0c47.87-42.92 119.212-54.737 177.125-28.899-0.002 0-0.002 0-0.002 0h0.002c51.952 23.214 84.871 63.054 98.931 119.886l0.002 0.006c1.686 6.767 2.626 14.418 2.787 22.979v0.002c0.025 1.28 0.043 2.593 0.059 3.93 0.129 9.626 0.276 20.521 3.162 29.934 1.679 5.476 4.334 10.658 8.575 14.957 4.26 4.319 9.923 7.541 17.291 9.386h0.002c15.069 3.779 28.656 0.637 38.304-7.713 9.609-8.317 14.823-21.377 14.086-36.516zM332.227 531.677l-44.782-4.731c14.836 10.725 31.672 11.586 44.782 4.731zM694.395 447.369c-14.655-59.24-49.25-101.188-103.612-125.479l-0.002-0.002c-60.989-27.21-135.819-14.748-186.063 30.302l-0.002 0.002c-41.284 37.030-61.114 83.892-59.417 140.247v0.002c0.475 15.378-6.826 26.587-16.925 31.869-10.111 5.286-23.581 4.917-36.057-4.102zM292.315 520.208c-11.252-8.141-12.503-21.776-11.508-36.723 2.406-36.018 10.793-68.108 25.086-96.344 46.5-91.689 142.113-144.404 245.119-131.084v0c118.817 15.327 205.468 111.129 211.274 230.679v0.002c0.635 13.005-3.838 23.435-11.221 29.823-7.346 6.359-18.059 9.14-30.843 5.935v0c-6.081-1.522-10.334-4.057-13.394-7.16-3.078-3.121-5.153-7.018-6.543-11.557-2.511-8.184-2.65-17.766-2.793-27.548-0.020-1.343-0.039-2.689-0.066-4.037-0.17-9.062-1.169-17.347-3.031-24.824zM287.445 526.946v0zM287.443 526.946l-14.932-44.014c-0.999 14.985-0.256 33.028 14.932 44.014zM552.077 247.812c-106.609-13.787-205.56 40.841-253.6 135.569v0.002c-14.864 29.358-23.495 62.562-25.967 99.547v0.002z" />
<glyph unicode="&#xe94b;" d="M610.669 692.077c-0.526 5.237-1.415 10.226-2.662 14.967-1.413 5.403-1.87 10.336-1.37 14.799 0.788 7.483 1.663 13.885 0.997 21.744-1.040 12.181 1.829 24.944 1.538 35.712-0.444 16.186-0.985 32.996-1.622 50.429 23.837 15.188 50.803 24.473 80.902 27.854 1.358 0.139 2.066-0.471 2.122-1.829 2.716-54.406-14.316-101.121-51.096-140.145-8.452-8.978-18.055-16.822-28.809-23.529z" />
<glyph unicode="&#xe94c;" d="M607.543 829.73c0.637-17.433 1.178-34.243 1.622-50.429 0.291-10.768-2.578-23.531-1.54-35.711 0.666-7.858-0.207-14.26-0.997-21.744-0.498-4.463-0.041-9.396 1.372-14.801 1.247-4.739 2.134-9.728 2.66-14.967-25.276-16.435-53.367-24.625-84.269-24.57-1.413 0-2.148 0.707-2.204 2.122-1.69 68.375 26.094 121.741 83.356 160.1z" />
<glyph unicode="&#xe94d;" d="M524.773 507.486c20.73 17.322 41.726 36.030 62.984 56.125 24.445 23.142 46.008 40.741 64.688 52.797 56.818 36.669 121.063 54.794 192.735 54.378 66.075-0.387 111.057-0.733 134.949-1.038 1.579-0.029 2.37-0.831 2.37-2.413 0.111-126.992 0.291-262.648 0.541-406.964 0.027-29.85-1.858-52.341-5.655-67.473-18.999-75.54-76.247-135.074-152.824-152.66-15.716-3.631-33.98-5.405-54.794-5.321-167.348 0.748-332.757 0.803-496.224 0.166-81.693-0.291-149.458 38.040-188.288 109.963-15.105 27.992-22.782 57.371-23.032 88.136-0.97 119.456-1.039 264.796-0.208 436.025 0 1.026 0.513 1.538 1.538 1.538 38.414-0.416 75.526-0.387 111.334 0.084 34.284 0.442 61.682-0.846 82.191-3.867 44.401-6.513 86.585-21.563 126.55-45.15 18.043-10.641 39.356-27.326 63.941-50.053 23.448-21.674 47.768-43.098 72.962-64.274 0.596-0.494 1.346-0.764 2.12-0.764s1.524 0.27 2.122 0.764zM589.087 325.685c-59.449-26.524-132.536-14.385-181.594 29.6-40.354 36.196-59.699 81.873-58.036 137.028 1.038 33.716-32.262 51.012-59.574 31.263-13.222-9.562-14.219-25.401-13.222-40.368 2.439-36.502 10.949-69.151 25.526-97.948 47.27-93.209 144.552-146.878 249.36-133.327 120.855 15.591 208.99 113.080 214.895 234.6 1.37 28.146-19.374 46.979-47.229 39.995-26.898-6.736-25.526-32.594-25.942-54.256-0.166-8.813-1.137-16.781-2.91-23.904-14.356-58.036-48.114-98.931-101.274-122.683z" />
<glyph unicode="&#xe94e;" d="M589.087 325.687c53.16 23.753 86.917 64.647 101.274 122.683 1.774 7.123 2.744 15.092 2.91 23.904 0.416 21.66-0.956 47.52 25.942 54.254 27.855 6.986 48.599-11.848 47.229-39.993-5.904-121.52-94.040-219.011-214.895-234.6-104.808-13.554-202.090 40.118-249.36 133.327-14.578 28.797-23.087 61.446-25.526 97.948-0.997 14.967 0 30.806 13.222 40.368 27.312 19.747 60.613 2.454 59.574-31.263-1.663-55.155 17.682-100.831 58.036-137.028 49.058-43.985 122.145-56.125 181.594-29.6z" />
<glyph unicode="&#xe94f;" d="M512-64c-282.726 0-512 229.274-512 512s229.274 512 512 512c282.726 0 512-229.274 512-512s-229.274-512-512-512z" />
<glyph unicode="&#xe950;" d="M511.998 734.515c93.286 0 104.346-0.307 141.21-2.048 34.099-1.536 52.634-7.27 64.922-12.083 16.282-6.349 27.955-13.926 40.141-26.112s19.763-23.859 26.112-40.141c4.813-12.288 10.445-30.822 12.083-64.922 1.638-36.864 2.048-47.923 2.048-141.21s-0.307-104.346-2.048-141.21c-1.536-34.099-7.27-52.634-12.083-64.922-6.349-16.282-13.926-27.955-26.112-40.141s-23.859-19.763-40.141-26.112c-12.288-4.813-30.822-10.445-64.922-12.083-36.864-1.638-47.923-2.048-141.21-2.048s-104.346 0.307-141.21 2.048c-34.099 1.536-52.634 7.27-64.922 12.083-16.282 6.349-27.955 13.926-40.141 26.112s-19.763 23.859-26.112 40.141c-4.813 12.288-10.445 30.822-12.083 64.922-1.638 36.864-2.048 47.923-2.048 141.21s0.307 104.346 2.048 141.21c1.536 34.099 7.27 52.634 12.083 64.922 6.349 16.282 13.926 27.955 26.112 40.141s23.859 19.763 40.141 26.112c12.288 4.813 30.822 10.445 64.922 12.083 36.864 1.741 47.923 2.048 141.21 2.048zM511.998 797.491c-94.925 0-106.803-0.41-144.077-2.15-37.171-1.741-62.566-7.578-84.89-16.282-22.938-8.806-42.496-20.787-61.85-40.243-19.455-19.456-31.334-38.912-40.345-61.952-8.602-22.221-14.541-47.616-16.282-84.89s-2.15-49.152-2.15-144.077c0-94.925 0.41-106.803 2.15-144.077 1.741-37.171 7.578-62.566 16.282-84.89 8.909-22.835 20.89-42.394 40.345-61.747 19.456-19.456 38.912-31.334 61.952-40.346 22.221-8.602 47.616-14.541 84.89-16.282s49.152-2.15 144.077-2.15c94.925 0 106.803 0.41 144.077 2.15 37.171 1.741 62.566 7.578 84.89 16.282 22.835 8.909 42.394 20.89 61.747 40.346 19.456 19.456 31.334 38.912 40.346 61.952 8.602 22.221 14.541 47.616 16.282 84.89s2.15 49.152 2.15 144.077c0 94.925-0.41 106.803-2.15 144.077-1.741 37.171-7.578 62.566-16.282 84.89-8.909 22.835-20.89 42.394-40.346 61.747-19.456 19.456-38.912 31.334-61.952 40.346-22.221 8.602-47.616 14.541-84.89 16.282-37.171 1.638-49.050 2.048-143.974 2.048z" />
<glyph unicode="&#xe951;" d="M511.998 627.507c-99.123 0-179.507-80.384-179.507-179.507s80.384-179.507 179.507-179.507c99.123 0 179.507 80.384 179.507 179.507s-80.384 179.507-179.507 179.507zM511.998 331.469c-64.307 0-116.531 52.122-116.531 116.531s52.224 116.531 116.531 116.531c64.307 0 116.531-52.122 116.531-116.531s-52.224-116.531-116.531-116.531z" />
<glyph unicode="&#xe952;" d="M698.569 592.589c23.187 0 41.984 18.797 41.984 41.984s-18.797 41.984-41.984 41.984c-23.187 0-41.984-18.797-41.984-41.984s18.797-41.984 41.984-41.984z" />
<glyph unicode="&#xe953;" d="M971.981 603.443q-20.070-34.816-119.603-44.442-9.83-0.819-19.046 2.662-10.854 4.096-21.914-2.253-8.602-4.71-18.227-5.325l-79.872-4.506" />
<glyph unicode="&#xe954;" d="M713.318 549.581l-93.594-3.072c-9.873-0.203-18.798 5.719-22.477 14.812l-0.051 0.138q-37.888 94.003-65.741 195.584-3.686 12.902-12.288 22.938c-2.643 3.035-6.513 4.942-10.83 4.942-6.467 0-11.934-4.282-13.72-10.166l-0.026-0.102-64.922-210.944c-3.3-10.324-12.754-17.691-23.947-17.817h-0.015l-206.848-0.41q-76.39-0.205-12.083-41.574 40.96-26.419 93.184-70.451" />
<glyph unicode="&#xe955;" d="M279.962 433.459q-123.904-18.022-228.352 15.36" />
<glyph unicode="&#xe956;" d="M713.318 549.581l115.098-5.325q56.32-2.458 10.854-36.045l-167.322-123.29q-8.192-5.939-7.168-15.974 0.819-10.854 8.397-24.576" />
<glyph unicode="&#xe957;" d="M673.178 344.371l65.126-217.498c0.244-0.769 0.384-1.654 0.384-2.572 0-3.595-2.155-6.687-5.243-8.056l-0.056-0.022q-4.301-1.843-9.011-1.434-3.277 0.41-5.734 2.253-94.413 67.584-191.693 136.397c-4.045 2.89-9.091 4.62-14.541 4.62s-10.496-1.731-14.618-4.673l0.077 0.052-187.187-130.867q-37.274-26.214-24.166 17.408l72.090 235.93" />
<glyph unicode="&#xe958;" d="M358.605 375.91l128-94.822c6.862-5.191 15.539-8.315 24.945-8.315 9.991 0 19.159 3.524 26.328 9.398l-0.074-0.058q44.646 36.454 99.533 78.643c2.867 2.048 6.963 3.072 10.445 2.662q14.541-1.843 15.36 12.698 0.819 11.264-6.758 18.432-5.939 5.53-8.397 13.107l-44.032 128.819q-3.277 9.626-13.312 9.626l-145.408-0.819c-13.541-0.023-25.065-8.631-29.422-20.671l-0.069-0.218-54.272-149.299" />
<glyph unicode="&#xe959;" d="M361.472 375.091l-81.51 58.368" />
<glyph unicode="&#xe95a;" d="M971.776 368.538q-93.798-35.021-203.776-21.094-53.658 6.963-94.822-3.072" />
<glyph unicode="&#xe95b;" d="M358.605 375.91q1.434-0.41 2.867-0.819" />
<glyph unicode="&#xe95c;" d="M971.981 603.443q-20.070-34.816-119.603-44.442-9.83-0.819-19.046 2.662-10.854 4.096-21.914-2.253-8.602-4.71-18.227-5.325l-79.872-4.506-93.594-3.072c-9.873-0.203-18.798 5.719-22.477 14.812l-0.051 0.138q-37.888 94.003-65.741 195.584-3.686 12.902-12.288 22.938c-2.643 3.035-6.513 4.942-10.83 4.942-6.467 0-11.934-4.282-13.72-10.166l-0.026-0.102-64.922-210.944c-3.3-10.324-12.754-17.691-23.947-17.817h-0.015l-206.848-0.41q-76.39-0.205-12.083-41.574 40.96-26.419 93.184-70.451-123.904-18.022-228.352 15.36-1.638 106.086-3.072 214.221-2.253 153.6 105.677 214.016 65.331 36.659 201.728 34.202 224.051-4.096 383.181-2.458 177.357 1.843 226.509-158.72 11.878-39.322 6.349-146.637z" />
<glyph unicode="&#xe95d;" d="M713.318 549.581l115.098-5.325q56.32-2.458 10.854-36.045l-167.322-123.29q-8.192-5.939-7.168-15.974 0.819-10.854 8.397-24.576l65.126-217.498c0.244-0.769 0.384-1.654 0.384-2.572 0-3.595-2.155-6.687-5.243-8.056l-0.056-0.022q-4.301-1.843-9.011-1.434-3.277 0.41-5.734 2.253-94.413 67.584-191.693 136.397c-4.045 2.89-9.091 4.62-14.541 4.62s-10.496-1.731-14.618-4.673l0.077 0.052-187.187-130.867q-37.274-26.214-24.166 17.408l72.090 235.93 128-94.822c6.862-5.191 15.539-8.315 24.945-8.315 9.991 0 19.159 3.524 26.328 9.398l-0.074-0.058q44.646 36.454 99.533 78.643c2.867 2.048 6.963 3.072 10.445 2.662q14.541-1.843 15.36 12.698 0.819 11.264-6.758 18.432-5.939 5.53-8.397 13.107l-44.032 128.819q-3.277 9.626-13.312 9.626l-145.408-0.819c-13.541-0.023-25.065-8.631-29.422-20.671l-0.069-0.218-54.272-149.299-81.51 58.368q-52.224 44.032-93.184 70.451-64.307 41.37 12.083 41.574l206.848 0.41c11.208 0.126 20.662 7.494 23.912 17.638l0.050 0.18 64.922 210.944c1.813 5.985 7.279 10.267 13.746 10.267 4.316 0 8.187-1.907 10.815-4.925l0.015-0.017q8.602-10.035 12.288-22.938 27.853-101.581 65.741-195.584c3.73-9.231 12.655-15.154 22.382-14.958l0.146 0.007 93.594 3.072z" />
<glyph unicode="&#xe95e;" d="M971.981 603.443l-0.205-234.906q-93.798-35.021-203.776-21.094-53.658 6.963-94.822-3.072-7.578 13.722-8.397 24.576-1.024 10.035 7.168 15.974l167.322 123.29q45.466 33.587-10.854 36.045l-115.098 5.325 79.872 4.506q9.626 0.614 18.227 5.325 11.059 6.349 21.914 2.253 9.216-3.482 19.046-2.662 99.533 9.626 119.603 44.442z" />
<glyph unicode="&#xe95f;" d="M358.605 375.91q1.434-0.41 2.867-0.819l54.272 149.299c4.426 12.258 15.95 20.867 29.488 20.89h0.003l145.408 0.819q10.035 0 13.312-9.626l44.032-128.819q2.458-7.578 8.397-13.107 7.578-7.168 6.758-18.432-0.819-14.541-15.36-12.698c-3.482 0.41-7.578-0.614-10.445-2.662q-54.886-42.189-99.533-78.643c-7.096-5.815-16.264-9.339-26.255-9.339-9.406 0-18.083 3.124-25.050 8.391l0.105-0.076-128 94.822z" />
<glyph unicode="&#xe960;" d="M51.61 448.819q104.448-33.382 228.352-15.36l81.51-58.368q-1.434 0.41-2.867 0.819l-72.090-235.93q-13.107-43.622 24.166-17.408l187.187 130.867c4.045 2.89 9.091 4.62 14.541 4.62s10.496-1.731 14.618-4.673l-0.077 0.052q97.28-68.813 191.693-136.397 2.458-1.843 5.734-2.253 4.71-0.41 9.011 1.434c3.145 1.39 5.299 4.483 5.299 8.078 0 0.918-0.14 1.802-0.401 2.634l0.017-0.062-65.126 217.498q41.165 10.035 94.822 3.072 109.978-13.926 203.776 21.094c5.53-129.229 22.528-281.395-106.086-352.051q-66.765-36.454-207.667-31.334-159.13 5.734-326.861 0.41c-112.026-3.686-217.907 19.456-262.144 130.867-31.539 80.077-18.637 231.014-17.408 332.39z" />
<glyph unicode="&#xe961;" glyph-name="kik" d="M612.874 456.028l173.765 191.701c46.504 51.251 42.752 130.661-8.413 177.292-51.157 46.53-130.304 42.762-176.757-8.426l-207.802-229.255v144.771c0 69.323-56.019 125.489-125.155 125.489-69.132 0-125.151-56.166-125.151-125.489v-552.161c0-69.319 56.019-125.495 125.151-125.495 69.136 0 125.155 56.177 125.155 125.495v144.718l207.747-229.151c24.728-27.242 58.614-41.060 92.668-41.060 30.032 0 60.166 10.795 84.146 32.637 51.118 46.631 54.917 125.985 8.411 177.238l-173.765 191.697z" />
<glyph unicode="&#xe962;" d="M470.186 938.666c270.934 0 490.668-190.933 490.668-426.666 0-320-426.668-554.668-426.668-554.668v131.627c-21.248-2.4-42.615-3.613-64-3.627-270.933 0-490.666 190.935-490.666 426.668s219.733 426.666 490.666 426.666z" />
<glyph unicode="&#xe963;" d="M768.854 490.666c5.659 0 11.086 2.249 15.086 6.248 4.002 4.002 6.248 9.427 6.248 15.086s-2.247 11.084-6.248 15.086c-4 4-9.427 6.248-15.086 6.248h-85.332v64h85.332c5.659 0 11.086 2.247 15.086 6.248 4.002 4 6.248 9.427 6.248 15.084 0 5.659-2.247 11.086-6.248 15.086-4 4.002-9.427 6.248-15.086 6.248h-106.666c-5.659 0-11.084-2.247-15.086-6.248-4-4-6.248-9.427-6.248-15.086v-213.332c0-5.659 2.249-11.086 6.248-15.086 4.002-4.002 9.427-6.248 15.086-6.248h106.666c5.659 0 11.086 2.247 15.086 6.248 4.002 4 6.248 9.427 6.248 15.086 0 5.657-2.247 11.084-6.248 15.084-4 4.002-9.427 6.248-15.086 6.248h-85.332v64h85.332z" />
<glyph unicode="&#xe964;" d="M278.186 384h-106.668c-5.658 0-11.084 2.247-15.085 6.248-4.001 4-6.248 9.427-6.248 15.086v213.332c0 5.659 2.248 11.086 6.248 15.086 4.001 4.002 9.427 6.248 15.085 6.248s11.084-2.247 15.085-6.248c4.001-4 6.248-9.427 6.248-15.086v-192h85.334c5.657 0 11.084-2.247 15.084-6.248 4.002-4 6.248-9.427 6.248-15.084 0-5.659-2.247-11.086-6.248-15.086-4-4.002-9.427-6.248-15.084-6.248z" />
<glyph unicode="&#xe965;" d="M363.518 384c-5.657 0-11.084 2.247-15.086 6.248-4 4-6.246 9.427-6.246 15.086v213.332c0 5.659 2.247 11.086 6.246 15.086 4.002 4.002 9.429 6.248 15.086 6.248 5.659 0 11.084-2.247 15.086-6.248 4-4 6.248-9.427 6.248-15.086v-213.332c0-5.659-2.249-11.086-6.248-15.086-4.002-4.002-9.427-6.248-15.086-6.248z" />
<glyph unicode="&#xe966;" d="M576.854 384c-3.682 0-7.301 0.954-10.504 2.767s-5.884 4.424-7.778 7.58l-88.386 147.306v-136.319c0-5.659-2.247-11.086-6.248-15.086-4-4.002-9.427-6.248-15.084-6.248-5.659 0-11.086 2.247-15.086 6.248-4.002 4-6.248 9.427-6.248 15.086v213.332c0.002 4.663 1.53 9.198 4.354 12.909 2.822 3.713 6.785 6.396 11.278 7.643 4.493 1.245 9.271 0.985 13.603-0.741 4.332-1.729 7.977-4.827 10.381-8.823l88.383-147.306v136.319c0 5.659 2.247 11.086 6.248 15.086 4 4.002 9.427 6.248 15.086 6.248 5.657 0 11.084-2.247 15.084-6.248 4.002-4 6.248-9.427 6.248-15.086v-213.332c0.002-4.667-1.526-9.206-4.35-12.919-2.826-3.715-6.789-6.402-11.287-7.647-1.855-0.508-3.772-0.766-5.695-0.768z" />
<glyph unicode="&#xe967;" d="M512-64c-282.726 0-512 229.274-512 512s229.274 512 512 512c282.726 0 512-229.274 512-512s-229.274-512-512-512z" />
<glyph unicode="&#xe968;" d="M188.62 563.405h136.089v-437.965h-136.089v437.965zM256.715 781.107c43.52 0 78.848-35.328 78.848-78.95s-35.328-78.95-78.848-78.95c-43.622 0-78.95 35.328-78.95 78.95-0.102 43.52 35.225 78.95 78.95 78.95z" />
<glyph unicode="&#xe969;" d="M410.11 563.405h130.56v-59.802h1.843c18.125 34.406 62.464 70.758 128.819 70.758 137.83 0 163.328-90.726 163.328-208.589v-240.333h-136.090v212.89c0 50.893-0.922 116.122-70.758 116.122-70.861 0-81.715-55.296-81.715-112.435v-216.678h-135.987v438.067z" />
<glyph unicode="&#xe96a;" d="M512.006 960c-288.455 0-512.006-211.292-512.006-496.656 0-149.275 61.194-278.256 160.813-367.368 8.345-7.52 13.392-17.924 13.805-29.153l2.781-91.070c0.927-29.051 30.907-47.903 57.486-36.262l101.577 44.814c8.653 3.811 18.233 4.532 27.3 2.060 46.668-12.878 96.426-19.677 148.244-19.677 288.455 0 512.006 211.292 512.006 496.656s-223.551 496.656-512.006 496.656z" />
<glyph unicode="&#xe96b;" d="M204.599 318.085l150.408 238.594c23.9 37.911 75.205 47.389 111.055 20.5l119.607-89.731c11.022-8.241 26.063-8.137 36.983 0.104l161.534 122.593c21.533 16.38 49.758-9.478 35.234-32.348l-150.307-238.492c-23.9-37.911-75.203-47.389-111.055-20.5l-119.605 89.731c-11.022 8.241-26.063 8.139-36.983-0.104l-161.638-122.696c-21.531-16.38-49.758 9.478-35.232 32.348z" />
<glyph unicode="&#xe96c;" glyph-name="mayket" d="M1016.058 431.491c0-134.738-53.524-263.956-148.797-359.231-95.275-95.273-224.494-148.797-359.231-148.797s-263.956 53.524-359.231 148.797c-95.274 95.275-148.798 224.494-148.798 359.231s53.524 263.956 148.798 359.231c95.274 95.274 224.493 148.798 359.231 148.798s263.956-53.524 359.231-148.798c95.273-95.274 148.797-224.493 148.797-359.231zM508.586 631.069c-0.401-0.449-0.803-0.449-1.206 0-15.579 17.439-33.636 31.384-54.17 41.837-65.182 33.21-145.805 23.824-201.306-24.076-36.25-31.277-58.015-72.806-63.386-120.56-0.698-6.212-1.051-11.252-1.058-15.12-0.121-67.045-0.133-134.773-0.034-203.184 0.023-16.531 8.090-30.88 22.084-39.539 13.881-8.589 32.279-8.919 46.569-1.057 15.155 8.339 23.972 23.357 23.927 40.55-0.174 64.451-0.215 128.086-0.125 190.906 0.016 9.65 0.444 17.091 1.286 22.323 3.033 18.866 10.979 35.074 23.837 48.63 15.481 16.323 34.433 25.684 56.855 28.080 48.697 5.188 93.149-30.003 99.338-78.324 0.676-5.274 1.014-13.154 1.014-23.644 0-50.911 0-101.827 0-152.746 0-5.992 0.246-10.258 0.739-12.8 4.061-20.969 21.037-35.897 42.256-37.446 22.028-1.604 42.543 12.083 48.163 33.804 1.077 4.172 1.599 8.894 1.571 14.166-0.16 28.83-0.176 79.178-0.047 151.040 0.025 12.863 0.141 20.449 0.354 22.755 1.266 13.66 5.032 26.055 11.297 37.181 21.676 38.457 68.256 56.4 110.080 41.187 24.758-9.011 44.182-27.818 54.012-52.404 4.254-10.643 6.386-22.809 6.394-36.502 0.008-66.005 0-131.045-0.023-195.117 0-15.307 5.378-27.447 16.132-36.42 25.283-21.072 64.387-10.252 73.785 22.016 1.108 3.799 1.651 10.516 1.628 20.15-0.115 61.393-0.115 123.064 0 185.014 0.014 8.047-0.258 15.477-0.819 22.288-5.702 69.063-48.88 128.477-112.88 154.954-25.145 10.4-51.931 14.825-80.361 13.277-48.72-2.65-93.469-25.293-125.907-61.223zM405.389 223.881c-11.217 5.847-21.389 13.437-30.515 22.766-1.221 1.245-2.976 2.349-5.267 3.312-0.176 0.074-0.371 0.098-0.565 0.076-0.193-0.025-0.379-0.098-0.539-0.213-4.026-2.935-1.456-9.136 0.809-12.39 22.97-32.858 55.968-54.032 94.765-62.407 24.599-5.31 50.096-6.078 76.493-2.31 40.767 5.814 76.653 25.238 102.388 57.868 2.572 3.269 4.692 6.371 6.361 9.306 1.571 2.765 2.777 8.602-1.286 10.047-0.317 0.113-0.637 0.106-0.954-0.023-3.869-1.593-7.862-6.291-11.014-9.261-14.735-13.881-35.135-23.359-54.841-29.469-36.463-11.325-74.433-13.801-113.914-7.43-22.505 3.641-43.145 10.351-61.919 20.128z" />
<glyph unicode="&#xe96d;" d="M252.996 188.998c-66.289 66.279-107.287 157.852-107.287 259.002s40.997 192.723 107.287 259.002l32.571-32.569c-57.94-57.95-93.787-138.007-93.787-226.433 0-88.429 35.847-168.483 93.787-226.433l-32.571-32.569zM353.184 289.184c-40.647 40.647-65.788 96.788-65.788 158.816s25.141 118.17 65.788 158.816l32.58-32.582c-32.307-32.305-52.296-76.931-52.296-126.235s19.988-93.929 52.296-126.237l-32.58-32.58zM638.235 321.763c32.307 32.307 52.296 76.933 52.296 126.237s-19.988 93.929-52.296 126.235l32.582 32.582c40.647-40.647 65.786-96.788 65.786-158.816s-25.139-118.17-65.786-158.816l-32.582 32.58zM771.002 188.998l-32.569 32.569c57.938 57.95 93.786 138.004 93.786 226.433 0 88.426-35.848 168.483-93.786 226.433l32.569 32.569c66.29-66.279 107.287-157.852 107.287-259.002s-40.997-192.723-107.287-259.002zM512 913.315c-256.987 0-465.316-208.328-465.316-465.315 0-205.545 133.282-379.957 318.136-441.545l119.497 358.498c-34.773 11.583-59.857 44.384-59.857 83.046 0 48.351 39.188 87.54 87.54 87.54 48.349 0 87.54-39.188 87.54-87.54 0-38.662-25.086-71.463-59.859-83.046l119.497-358.498c184.855 61.587 318.136 235.999 318.136 441.545 0 256.987-208.329 465.315-465.314 465.315zM569.238-13.808c-20.711 16.087-40.767 33.808-59.935 53.15-18.53-19.167-37.851-36.768-57.774-52.756 19.792-2.564 39.977-3.901 60.471-3.901 19.374 0 38.476 1.196 57.238 3.508zM538.071 71.156c25.522-28.733 52.92-54.114 81.512-75.956 1.907 0.461 3.801 0.922 5.698 1.393l-49.424 123.572c-12.032-17.162-24.658-33.513-37.786-49.009zM511.32 103.365c15.956 20.58 30.98 42.586 44.888 65.929l-44.208 110.508-44.747-111.858c13.677-22.837 28.418-44.394 44.067-64.58zM403.374-4.536c27.595 21.107 54.071 45.478 78.817 73.007-12.646 14.477-24.812 29.743-36.418 45.765l-47.057-117.643c1.546-0.385 3.101-0.756 4.657-1.128zM512-63.431c-282.456 0-511.42 228.977-511.42 511.431s228.964 511.43 511.42 511.43c282.454 0 511.429-228.976 511.429-511.43s-228.975-511.431-511.429-511.431z" />
<glyph unicode="&#xe96e;" d="M252.998 188.998l0.406 0.406c-66.181 66.181-107.124 157.61-107.124 258.597s40.932 192.416 107.124 258.597l-0.406 0.406-0.418-0.406 32.582-32.58 0.406 0.416-0.406 0.406c-58.049-58.061-93.951-138.258-93.951-226.839s35.902-168.778 93.951-226.839l0.406 0.406-0.406 0.416-32.582-32.58 0.418-0.406 0.406-0.418 32.985 32.987-0.406 0.416c-57.852 57.842-93.621 137.742-93.621 226.017s35.769 168.176 93.621 226.017l0.406 0.416-33.391 33.391-0.418-0.403c-66.388-66.39-107.451-158.116-107.451-259.42s41.063-193.030 107.451-259.42l0.418-0.406 0.406 0.406-0.406 0.418zM353.184 289.184l0.406 0.406c-40.548 40.536-65.622 96.547-65.622 158.411s25.074 117.875 65.622 158.411l-0.406 0.406-0.416-0.406 32.58-32.582 0.418 0.406-0.418 0.418c-32.406-32.418-52.449-77.195-52.449-126.652s20.044-94.237 52.449-126.652l0.418 0.416-0.418 0.406-32.58-32.58 0.416-0.406 0.406-0.416 32.987 32.995-0.406 0.406c-32.209 32.209-52.122 76.691-52.122 125.831s19.913 93.622 52.122 125.829l0.406 0.406-33.393 33.403-0.416-0.406c-40.747-40.755-65.952-97.051-65.952-159.232s25.205-118.477 65.952-159.232l0.416-0.406 0.406 0.406-0.406 0.416zM638.237 321.763l0.416-0.416c32.406 32.416 52.449 77.195 52.449 126.652s-20.044 94.235-52.449 126.652l-0.416-0.418 0.416-0.406 32.58 32.582-0.416 0.406-0.406-0.406c40.548-40.536 65.622-96.547 65.622-158.411s-25.074-117.875-65.622-158.411l0.406-0.406 0.416 0.406-32.58 32.58-0.416-0.406-0.406-0.416 32.985-32.985 0.416 0.406c40.747 40.755 65.952 97.051 65.952 159.232s-25.205 118.477-65.952 159.232l-0.416 0.406-33.391-33.403 0.406-0.406c32.207-32.207 52.12-76.689 52.12-125.829s-19.913-93.622-52.12-125.831l-0.406-0.406 0.406-0.416 0.406 0.416zM771.002 188.998l0.418 0.406-32.582 32.58-0.406-0.416 0.406-0.406c58.049 58.061 93.95 138.258 93.95 226.839s-35.901 168.778-93.95 226.839l-0.406-0.406 0.406-0.416 32.582 32.58-0.418 0.406-0.406-0.406c66.181-66.181 107.112-157.61 107.112-258.597s-40.931-192.416-107.112-258.597l0.823-0.823c66.388 66.39 107.45 158.116 107.45 259.42s-41.062 193.030-107.45 259.42l-0.418 0.403-33.391-33.391 0.406-0.416c57.852-57.842 93.62-137.742 93.62-226.017s-35.768-168.176-93.62-226.017l-0.406-0.416 33.391-33.393 0.418 0.406-0.418 0.418zM512 913.315v0.581c-257.305 0-465.896-208.591-465.896-465.896 0-205.808 133.458-380.416 318.532-442.094l0.547-0.174 119.869 359.582-0.549 0.186c-34.554 11.508-59.462 44.089-59.462 82.5 0 24.011 9.73 45.754 25.467 61.491s37.47 25.467 61.491 25.467c24.011 0 45.754-9.73 61.491-25.467s25.467-37.47 25.467-61.491c0-38.41-24.908-70.992-59.462-82.5l-0.549-0.186 119.869-359.582 0.547 0.174c185.086 61.678 318.532 236.286 318.532 442.094 0 257.305-208.591 465.896-465.895 465.896v-1.151c128.34 0 244.515-52.022 328.624-136.121 84.099-84.11 136.12-200.285 136.12-328.625 0-205.294-133.128-379.484-317.741-440.998l0.174-0.547 0.549 0.186-119.497 358.498-0.547-0.186 0.186-0.549c35.002 11.661 60.24 44.669 60.252 83.595-0.012 48.669-39.453 88.109-88.121 88.121-48.669-0.012-88.109-39.453-88.121-88.121 0.012-38.926 25.25-71.934 60.252-83.595l0.186 0.549-0.547 0.186-119.497-358.498 0.549-0.186 0.174 0.547c-184.613 61.514-317.742 235.704-317.742 440.998 0 128.34 52.022 244.515 136.121 328.625 84.11 84.098 200.285 136.121 328.625 136.121v0.57zM569.238-13.808l0.352 0.449c-20.691 16.077-40.724 33.786-59.879 53.107l-0.418 0.428-0.406-0.428c-18.51-19.155-37.818-36.735-57.721-52.711l-1.051-0.844 1.337-0.176c19.825-2.574 40.032-3.912 60.547-3.912 19.397 0 38.521 1.204 57.305 3.506l1.38 0.176-1.096 0.854-0.352-0.449-0.076 0.569c-18.729-2.302-37.808-3.506-57.162-3.506-20.472 0-40.624 1.335-60.393 3.901l-0.078-0.571 0.362-0.449c19.933 16.011 39.287 33.622 57.829 52.812l-0.416 0.393-0.406-0.406c19.177-19.364 39.254-37.095 59.978-53.205l0.36 0.461zM538.071 71.156l-0.438-0.393c25.545-28.746 52.976-54.159 81.601-76.012l0.219-0.164 0.262 0.053c1.907 0.451 3.813 0.922 5.71 1.393l0.637 0.164-50.061 125.161-0.614-0.866c-12.022-17.14-24.635-33.479-37.753-48.974l-0.328-0.385 0.328-0.371 0.438 0.393 0.438-0.383c13.14 15.518 25.776 31.889 37.82 49.062l-0.473 0.33-0.537-0.219 49.424-123.562 0.539 0.209-0.143 0.559c-1.896-0.471-3.791-0.932-5.687-1.382l0.131-0.569 0.35 0.461c-28.57 21.819-55.933 47.178-81.435 75.868l-0.428-0.373zM511.32 103.365l0.461-0.35c15.966 20.591 31.003 42.629 44.921 65.993l0.141 0.242-44.843 112.11-45.392-113.467 0.154-0.242c13.687-22.86 28.439-44.438 44.11-64.635l0.449-0.592 0.461 0.592-0.461 0.35 0.461 0.35c-15.639 20.165-30.368 41.71-44.032 64.526l-0.494-0.297 0.537-0.219 44.208 110.533 43.672-109.173 0.537 0.209-0.504 0.295c-13.885-23.321-28.899-45.314-44.833-65.874l0.449-0.35zM403.376-4.536l0.35-0.461c27.615 21.129 54.127 45.533 78.893 73.085l0.35 0.373-0.34 0.383c-12.634 14.465-24.789 29.721-36.393 45.722l-0.614 0.854-47.682-119.222 0.635-0.164c1.556-0.383 3.113-0.756 4.667-1.141l0.264-0.053 0.219 0.164-0.35 0.461 0.131 0.559c-1.556 0.371-3.101 0.743-4.647 1.128l-0.143-0.559 0.539-0.209 47.057 117.633-0.537 0.219-0.471-0.34c11.626-16.032 23.792-31.32 36.461-45.808l0.426 0.383-0.426 0.383c-24.723-27.494-51.18-51.857-78.742-72.942l0.352-0.449zM512-63.431v0.582c-141.062 0-268.777 57.172-361.227 149.621-92.438 92.451-149.622 220.166-149.622 361.228s57.184 268.777 149.622 361.227c92.45 92.449 220.165 149.622 361.227 149.622s268.777-57.173 361.228-149.622c92.449-92.45 149.621-220.165 149.621-361.227s-57.172-268.777-149.621-361.228c-92.451-92.449-220.166-149.621-361.228-149.621v-1.151c282.774 0 512 229.226 512 512s-229.226 512-512 512c-282.774 0-512-229.226-512-512s229.226-512 512-512v0.569z" />
<glyph unicode="&#xe96f;" glyph-name="Patreon" d="M656.472 937.643c-203.264 0-368.64-165.376-368.64-368.641 0-202.666 165.376-367.487 368.64-367.487 202.666 0 367.53 164.864 367.53 367.487 0 203.265-164.864 368.641-367.53 368.641zM0.13-44.245h180.053v981.888h-180.053z" />
<glyph unicode="&#xe970;" d="M42.665 448c0 341.333 128 469.333 469.333 469.333s469.334-128 469.334-469.333-128-469.334-469.334-469.334c-341.333 0-469.333 128-469.333 469.334z" />
</font>
</defs>
</svg>
