<svg width="215" height="186" viewBox="0 0 215 186" fill="none" xmlns="http://www.w3.org/2000/svg">
<path d="M86.9937 35.6301C68.9816 66.4516 51.1928 97.2864 51.3373 97.444C51.3636 97.4571 76.838 97.4703 107.949 97.4571L164.507 97.4177L159.305 88.0898L154.102 78.7619L119.247 78.7225C100.092 78.7093 84.4055 78.6568 84.4055 78.6174C84.4055 78.5779 84.7865 77.9079 85.2463 77.1328C85.7062 76.3708 86.6652 74.5709 87.3747 73.1388L88.6753 70.5507H119.182C135.972 70.5507 149.701 70.5113 149.701 70.4456C149.701 70.393 147.165 66.2677 144.065 61.2884L138.429 52.2233L118.643 52.1838C107.765 52.1707 98.8572 52.1182 98.8572 52.0787C98.8572 52.0393 99.4878 51.1065 100.263 50.0161C101.025 48.9125 103.18 45.5492 105.045 42.5275L108.422 37.0358L108.776 37.7978C108.973 38.2182 109.63 39.6634 110.248 41.0166L111.378 43.4865H122.256H133.147L132.924 43.0398C132.28 41.8049 107.975 -7.62939e-06 107.909 -7.62939e-06C107.857 -7.62939e-06 98.4499 16.0414 86.9937 35.6301Z" fill="#009606"/>
<path d="M130.107 104.675C130.055 104.741 125.824 104.807 120.727 104.846L111.438 104.912L111.399 108.59L111.373 112.282L125.364 130.518L139.356 148.753V167.133V185.513H148.947H158.538V167.317V149.121L167.971 136.298C173.147 129.256 177.719 123.016 178.126 122.464L178.875 121.439L173.528 113.044C170.585 108.433 168.128 104.649 168.076 104.649C168.01 104.649 163.53 110.141 158.13 116.867C152.731 123.581 148.251 129.085 148.172 129.085C148.106 129.085 144.139 123.568 139.356 116.828C133.51 108.603 130.58 104.583 130.436 104.583C130.304 104.583 130.16 104.623 130.107 104.675Z" fill="#009606"/>
<path d="M46.4296 104.938C46.3902 105.004 43.5787 110.009 40.1628 116.079C36.747 122.149 33.7253 127.509 33.4494 128.008L32.9501 128.888L43.8677 128.862L54.7985 128.823L56.9137 125.867L59.0289 122.911L72.7186 122.871L86.4083 122.845V129.348V135.852H57.9385L29.4554 135.865L20.3246 151.525C14.2943 161.878 9.31499 170.233 5.63637 176.185C2.56209 181.138 0.0264721 185.263 0.000196257 185.342C-0.0523555 185.473 10.4317 185.513 52.1709 185.513H104.407V173.295V161.076H95.2765H86.1456V164.032V166.988H59.3968C44.656 166.988 32.6742 166.936 32.7005 166.87C32.7268 166.818 34.369 163.914 36.3528 160.446L39.9658 154.113H72.1931H104.407V129.48V104.846H75.4513C59.515 104.846 46.4559 104.885 46.4296 104.938Z" fill="#009606"/>
<path d="M111.373 155.099V185.513H121.817H132.262V167.199V148.884L121.922 136.784C116.22 130.137 111.53 124.697 111.478 124.697C111.412 124.684 111.373 138.374 111.373 155.099Z" fill="#62DF85"/>
<path d="M175.021 139.53L166.35 150.684L166.271 156.176C166.232 159.198 166.179 167.028 166.166 173.584L166.153 185.513H190.603C206.5 185.513 215.039 185.473 215 185.381C214.908 185.092 183.824 128.376 183.758 128.363C183.718 128.363 179.79 133.382 175.021 139.53Z" fill="#62DF85"/>
</svg>
