<svg width="18" height="22" fill="" viewBox="0 0 18 22" xmlns="http://www.w3.org/2000/svg">
<path fill-rule="evenodd" clip-rule="evenodd" d="M17.4441 7.35163C17.4441 5.82951 16.2102 4.59558 14.688 4.59558H7.33856C5.81645 4.59558 4.58252 5.82951 4.58252 7.35163V18.3758C4.58252 19.898 5.81645 21.1318 7.33856 21.1318H14.688C16.2102 21.1318 17.4441 19.898 17.4441 18.3758V7.35163ZM15.6067 7.35163C15.6067 6.84426 15.1954 6.43294 14.688 6.43294H7.33856C6.83119 6.43294 6.41988 6.84426 6.41988 7.35163V18.3758C6.41988 18.8832 6.83119 19.2945 7.33856 19.2945H14.688C15.1954 19.2945 15.6067 18.8832 15.6067 18.3758V7.35163Z"/>
<path d="M3.66376 2.75826H12.8506C13.358 2.75826 13.7693 2.34695 13.7693 1.83958C13.7693 1.33221 13.358 0.920898 12.8506 0.920898H3.66376C2.14164 0.920898 0.907715 2.15483 0.907715 3.67694V16.5385C0.907715 17.0459 1.31903 17.4572 1.8264 17.4572C2.33377 17.4572 2.74508 17.0459 2.74508 16.5385V3.67694C2.74508 3.16957 3.15639 2.75826 3.66376 2.75826Z"/>
</svg>
