<svg width="20" height="20" viewBox="0 0 20 20" fill="none" xmlns="http://www.w3.org/2000/svg">
<path d="M4.19331 12.0436L4.80195 12.3882L4.19331 12.0436C3.99334 12.3968 3.89658 12.7857 3.78827 13.2209C3.78094 13.2504 3.77356 13.2801 3.76609 13.3099L3.59168 14.0076C3.5873 14.0251 3.58288 14.0427 3.57845 14.0604C3.50174 14.3667 3.4193 14.6958 3.39222 14.9727C3.36237 15.2778 3.36885 15.797 3.78559 16.2138C4.20233 16.6305 4.72151 16.637 5.02669 16.6071C5.30352 16.58 5.63266 16.4976 5.93892 16.4209C5.95662 16.4165 5.97424 16.4121 5.99177 16.4077L6.68942 16.2333C6.71929 16.2258 6.74895 16.2184 6.7784 16.2111C7.21368 16.1028 7.60254 16.006 7.95572 15.806L7.46302 14.9358L7.95572 15.806C8.3089 15.6061 8.59194 15.3224 8.90877 15.0049C8.9302 14.9834 8.95179 14.9618 8.97356 14.94L14.4565 9.45711C15.5373 8.37623 15.5373 6.62377 14.4565 5.54289C13.3756 4.46201 11.6231 4.46201 10.5422 5.54289L5.05935 11.0258C5.03758 11.0476 5.01594 11.0691 4.99446 11.0906C4.67694 11.4074 4.39328 11.6904 4.19331 12.0436Z" stroke="#4EF09D" stroke-width="2"/>
<path d="M10.417 6.25004L12.917 4.58337L15.417 7.08337L13.7503 9.58337L10.417 6.25004Z" fill="#4EF09D"/>
</svg>
