<svg width="166" height="184" viewBox="0 0 166 184" fill="none" xmlns="http://www.w3.org/2000/svg">
<path d="M0.5 5.55826C0.5 2.67257 2.83931 0.333252 5.725 0.333252H13.6083C16.494 0.333252 18.8333 2.67256 18.8333 5.55825V178.442C18.8333 181.327 16.494 183.667 13.6083 183.667H5.725C2.83931 183.667 0.5 181.327 0.5 178.442V5.55826ZM64.6667 42.2249C64.6667 39.3392 67.006 36.9999 69.8917 36.9999H123.608C126.494 36.9999 128.833 39.3392 128.833 42.2249V50.1083C128.833 52.9939 126.494 55.3333 123.608 55.3333H69.8917C67.006 55.3333 64.6667 52.9939 64.6667 50.1083V42.2249ZM64.6667 78.8916C64.6667 76.0059 67.006 73.6666 69.8917 73.6666H123.608C126.494 73.6666 128.833 76.0059 128.833 78.8916V86.7749C128.833 89.6606 126.494 91.9999 123.608 91.9999H69.8917C67.006 91.9999 64.6667 89.6606 64.6667 86.7749V78.8916Z" fill="#4EF09D"/>
<path d="M147.167 0.333252H36.8C31.9399 0.333252 28 4.27315 28 9.13325V174.867C28 179.727 31.9399 183.667 36.8 183.667H147.167C157.277 183.667 165.5 175.444 165.5 165.333V18.6666C165.5 8.55575 157.277 0.333252 147.167 0.333252ZM147.167 156.533C147.167 161.393 143.227 165.333 138.367 165.333H55.1333C50.2732 165.333 46.3333 161.393 46.3333 156.533V27.4666C46.3333 22.6065 50.2732 18.6666 55.1333 18.6666H138.367C143.227 18.6666 147.167 22.6065 147.167 27.4666V156.533Z" fill="#4EF09D"/>
</svg>
