<svg width="18" height="21" viewBox="0 0 18 21" fill="none" xmlns="http://www.w3.org/2000/svg">
<path fill-rule="evenodd" clip-rule="evenodd" d="M14.4359 0.348877C12.5621 0.348877 11.0431 1.86791 11.0431 3.74173C11.0431 3.94626 11.0611 4.14654 11.0959 4.34109L6.15727 7.79811C6.13217 7.81567 6.10842 7.83444 6.08604 7.85428C5.51004 7.40338 4.78459 7.13459 3.99637 7.13459C2.12254 7.13459 0.603516 8.65365 0.603516 10.5274C0.603516 12.4012 2.12254 13.9203 3.99637 13.9203C4.78459 13.9203 5.51004 13.6515 6.08604 13.2006C6.10842 13.2204 6.13217 13.2392 6.15727 13.2568L11.0959 16.7138C11.0611 16.9083 11.0431 17.1087 11.0431 17.3132C11.0431 19.187 12.5621 20.706 14.4359 20.706C16.3097 20.706 17.8288 19.187 17.8288 17.3132C17.8288 15.4394 16.3097 13.9203 14.4359 13.9203C13.3369 13.9203 12.3598 14.4429 11.7398 15.2531L7.06358 11.9797C7.2724 11.5395 7.38923 11.0471 7.38923 10.5274C7.38923 10.0078 7.2724 9.51544 7.06358 9.0752L11.7398 5.80177C12.3598 6.61201 13.3369 7.13459 14.4359 7.13459C16.3097 7.13459 17.8288 5.61556 17.8288 3.74173C17.8288 1.86791 16.3097 0.348877 14.4359 0.348877ZM12.609 3.74173C12.609 2.73275 13.4269 1.91481 14.4359 1.91481C15.4449 1.91481 16.2629 2.73275 16.2629 3.74173C16.2629 4.75072 15.4449 5.56866 14.4359 5.56866C13.4269 5.56866 12.609 4.75072 12.609 3.74173ZM3.99637 8.70053C2.98739 8.70053 2.16945 9.51846 2.16945 10.5274C2.16945 11.5364 2.98739 12.3544 3.99637 12.3544C5.00536 12.3544 5.8233 11.5364 5.8233 10.5274C5.8233 9.51846 5.00536 8.70053 3.99637 8.70053ZM14.4359 15.4862C13.4269 15.4862 12.609 16.3042 12.609 17.3132C12.609 18.3221 13.4269 19.1401 14.4359 19.1401C15.4449 19.1401 16.2629 18.3221 16.2629 17.3132C16.2629 16.3042 15.4449 15.4862 14.4359 15.4862Z" fill="white"/>
</svg>
