<?xml version="1.0" encoding="UTF-8"?>
<!DOCTYPE svg PUBLIC "-//W3C//DTD SVG 1.1//EN" "http://www.w3.org/Graphics/SVG/1.1/DTD/svg11.dtd">
<svg xmlns="http://www.w3.org/2000/svg" version="1.1" width="512px" height="512px" style="shape-rendering:geometricPrecision; text-rendering:geometricPrecision; image-rendering:optimizeQuality; fill-rule:evenodd; clip-rule:evenodd" xmlns:xlink="http://www.w3.org/1999/xlink">
<g><path style="opacity:0.999" fill="#282828" d="M 253.5,43.5 C 256.652,43.0471 259.152,44.0471 261,46.5C 278.95,77.6533 296.783,108.987 314.5,140.5C 314.023,141.478 313.357,142.311 312.5,143C 296.5,143.667 280.5,143.667 264.5,143C 262.649,141.316 260.982,139.483 259.5,137.5C 257.484,136.294 255.484,136.294 253.5,137.5C 250.863,141.968 248.03,146.302 245,150.5C 242.555,154.331 243.055,157.497 246.5,160C 272.818,161.15 299.151,161.817 325.5,162C 327.286,162.785 328.786,163.951 330,165.5C 338.126,178.988 345.959,192.154 353.5,205C 308.25,206.323 262.917,206.99 217.5,207C 212.805,207.833 209.972,210.666 209,215.5C 208.333,217.167 208.333,218.833 209,220.5C 245.627,221.123 282.294,222.123 319,223.5C 331.949,223.348 344.783,223.014 357.5,222.5C 360.056,223.051 362.389,224.051 364.5,225.5C 372.238,238.479 379.571,251.646 386.5,265C 385.5,266 384.5,267 383.5,268C 298.833,268.667 214.167,268.667 129.5,268C 128.5,267 127.5,266 126.5,265C 137.813,243.019 149.98,221.519 163,200.5C 193.087,148.013 223.254,95.6795 253.5,43.5 Z"/></g>
<g><path style="opacity:0.999" fill="#282828" d="M 266.5,278.5 C 279.837,278.333 293.171,278.5 306.5,279C 307.833,279.667 309.167,280.333 310.5,281C 321.719,297.235 333.386,313.235 345.5,329C 347.101,329.273 348.601,329.773 350,330.5C 361.37,318.102 372.037,305.102 382,291.5C 385.706,287.127 389.706,283.127 394,279.5C 395.944,280.439 397.611,281.773 399,283.5C 405.19,294.047 411.857,304.38 419,314.5C 419.755,317.303 419.422,319.97 418,322.5C 402.917,342.575 388.25,362.909 374,383.5C 373.667,410.167 373.333,436.833 373,463.5C 372.167,464.333 371.333,465.167 370.5,466C 356.833,466.667 343.167,466.667 329.5,466C 328.584,465.626 327.75,465.126 327,464.5C 325.692,436.562 325.025,408.562 325,380.5C 305.038,353.54 284.705,326.873 264,300.5C 262.483,294.92 262.149,289.253 263,283.5C 263.257,281.093 264.424,279.427 266.5,278.5 Z"/></g>
<g><path style="opacity:0.999" fill="#282828" d="M 128.5,279.5 C 160.461,280.18 192.461,280.18 224.5,279.5C 231.873,279.49 239.206,279.99 246.5,281C 248.004,282.491 248.837,284.324 249,286.5C 249.167,290 249.333,293.5 249.5,297C 249.199,323.492 249.199,349.992 249.5,376.5C 249.483,382.213 248.983,387.88 248,393.5C 246.509,395.004 244.676,395.837 242.5,396C 195.833,396.333 149.167,396.667 102.5,397C 98.2857,402.572 94.4524,408.405 91,414.5C 90.5026,417.146 90.3359,419.813 90.5,422.5C 128.168,422.667 165.835,422.5 203.5,422C 204,421.5 204.5,421 205,420.5C 204.838,416.416 206.005,412.916 208.5,410C 221.167,409.333 233.833,409.333 246.5,410C 248.004,411.491 248.837,413.324 249,415.5C 249.667,430.5 249.667,445.5 249,460.5C 248.907,463.007 248.074,465.174 246.5,467C 168.167,467.667 89.8333,467.667 11.5,467C 9.02159,465.062 8.85492,462.895 11,460.5C 31.8202,427.006 51.8202,393.006 71,358.5C 72.4578,356.04 74.2911,353.873 76.5,352C 118.749,350.677 161.083,350.011 203.5,350C 204,349.5 204.5,349 205,348.5C 205.8,340.784 205.633,333.117 204.5,325.5C 184.842,324.334 165.175,324.167 145.5,325C 142.922,327.074 140.922,329.574 139.5,332.5C 137.679,334.243 135.679,335.743 133.5,337C 117.135,337.789 100.802,337.622 84.5,336.5C 84.372,334.345 84.872,332.345 86,330.5C 95,314.5 104,298.5 113,282.5C 118.138,280.972 123.305,279.972 128.5,279.5 Z"/></g>
<g><path style="opacity:1" fill="#282828" d="M 264.5,326.5 C 269.078,330.575 273.578,334.908 278,339.5C 288.287,352.454 299.287,364.788 311,376.5C 311.667,377.833 312.333,379.167 313,380.5C 313.667,408.167 313.667,435.833 313,463.5C 312.097,464.701 310.931,465.535 309.5,466C 295.167,466.667 280.833,466.667 266.5,466C 264.667,465.5 263.5,464.333 263,462.5C 262.333,418.167 262.333,373.833 263,329.5C 263.513,328.473 264.013,327.473 264.5,326.5 Z"/></g>
<g><path style="opacity:1" fill="#282828" d="M 426.5,335.5 C 429.809,335.308 432.309,336.641 434,339.5C 454.729,378.668 476.063,417.002 498,454.5C 499.167,457.333 500.333,460.167 501.5,463C 501.355,463.772 501.022,464.439 500.5,465C 482.088,466.155 463.588,466.655 445,466.5C 427.167,466.333 409.333,466.167 391.5,466C 389.01,465.505 387.51,464.005 387,461.5C 386.333,437.167 386.333,412.833 387,388.5C 388.139,384.888 389.806,381.554 392,378.5C 403.702,364.302 415.202,349.968 426.5,335.5 Z"/></g>
</svg>
