<svg width="21" height="22" viewBox="0 0 21 22" fill="none" xmlns="http://www.w3.org/2000/svg">
<path d="M11.9843 1.79687V2.05693C11.9843 3.05918 11.539 3.5413 10.6116 3.5413C9.68413 3.5413 9.27563 3.05918 9.27563 2.05693V1.79687C9.27563 0.831429 9.68413 0.349304 10.6116 0.349304C11.539 0.349304 11.9843 0.831429 11.9843 1.79687ZM14.731 2.98437L14.9163 2.76112C15.4732 1.94412 16.1406 1.83368 16.8459 2.35262C17.5881 2.87274 17.6998 3.57693 17.1428 4.39393L16.9196 4.57918C16.3626 5.39618 15.6953 5.50662 14.9899 4.95087C14.2477 4.43074 14.1741 3.80018 14.731 2.98437ZM6.34369 2.7623L6.49213 2.98555C7.04907 3.80255 6.97425 4.43312 6.26888 4.95205C5.52669 5.50899 4.82132 5.39737 4.26438 4.58037L4.11594 4.39512C3.559 3.57812 3.63382 2.87393 4.33919 2.3538C5.08138 1.83368 5.78675 2.02012 6.34369 2.7623ZM10.6116 5.21093C13.7656 5.21093 16.3638 7.80918 16.3638 11C16.3638 14.154 13.7656 16.7154 10.6116 16.7154C7.41957 16.7154 4.85932 14.1552 4.85932 11C4.85932 7.80799 7.41957 5.21093 10.6116 5.21093ZM2.29907 6.84374L2.55913 6.91855C3.52457 7.21543 3.82144 7.77237 3.56138 8.66299C3.2645 9.55362 2.67075 9.81368 1.74332 9.5168L1.48325 9.44199C0.555816 9.14512 0.220941 8.58818 0.481004 7.69755C0.777879 6.80693 1.37163 6.54687 2.29907 6.84374ZM18.664 6.91855L18.9241 6.84374C19.8895 6.54687 20.4833 6.80693 20.7421 7.69755C21.001 8.58818 20.7053 9.14512 19.7399 9.44199L19.5166 9.5168C18.5512 9.81368 17.9574 9.55362 17.6986 8.66299C17.4017 7.77237 17.7354 7.21543 18.664 6.91855ZM10.6116 14.192C12.356 14.192 13.8036 12.7444 13.8036 11C13.8036 9.21874 12.356 7.77118 10.6116 7.77118C8.83032 7.77118 7.38275 9.21874 7.38275 11C7.38275 12.7444 8.83032 14.192 10.6116 14.192ZM1.48207 12.5212L1.74213 12.4464C2.66957 12.1495 3.26332 12.3716 3.56019 13.2634C3.82025 14.154 3.52338 14.7109 2.55794 15.0078L2.29788 15.0826C1.37044 15.3795 0.776691 15.1574 0.479816 14.2656C0.219754 13.375 0.554629 12.8181 1.48207 12.5212ZM19.5178 12.4476L19.7411 12.5224C20.7065 12.8192 21.0034 13.3762 20.7433 14.2668C20.4833 15.1574 19.8895 15.3807 18.9253 15.0838L18.6652 15.009C17.7378 14.7121 17.4029 14.1552 17.6998 13.2646C17.9598 12.3739 18.5536 12.1507 19.5178 12.4476ZM4.11713 17.6061L4.26557 17.3828C4.8225 16.5658 5.52788 16.4922 6.27007 17.0111C6.97544 17.5312 7.04907 18.1618 6.49332 18.9776L6.34488 19.2009C5.78794 20.0179 5.08257 20.0915 4.34038 19.5726C3.635 19.0524 3.56138 18.4219 4.11713 17.6061ZM16.9196 17.3828L17.1428 17.6061C17.6998 18.4231 17.5881 19.0536 16.8459 19.5726C16.1406 20.0927 15.4732 20.0179 14.9163 19.2009L14.731 18.9776C14.1741 18.1606 14.2489 17.5301 14.9911 17.0111C15.6964 16.491 16.3626 16.5658 16.9196 17.3828ZM11.9843 19.8694V20.1663C11.9843 21.1686 11.539 21.6507 10.6116 21.6507C9.68413 21.6507 9.27563 21.1686 9.27563 20.1663V19.8694C9.27563 18.8672 9.68413 18.3851 10.6116 18.3851C11.539 18.3851 11.9843 18.8672 11.9843 19.8694Z" fill="#D8D8D8"/>
</svg>
