<svg width="19" height="19" viewBox="0 0 19 19" fill="none" xmlns="http://www.w3.org/2000/svg">
<path d="M13.9911 17.9294C11.8204 17.9294 10.0527 16.1694 10.0527 13.9909C10.0527 11.8202 11.8126 10.0526 13.9911 10.0526C16.1619 10.0526 17.9295 11.8124 17.9295 13.9909C17.9295 16.1694 16.1696 17.9294 13.9911 17.9294Z" stroke="#D8D8D8" stroke-width="1.16291" stroke-linecap="round" stroke-linejoin="round"/>
<path d="M3.3925 0.75H6.8225C8.63375 0.75 9.50875 1.62502 9.465 3.39252V6.8225C9.50875 8.63375 8.63375 9.50875 6.8225 9.465H3.3925C1.625 9.5 0.75 8.625 0.75 6.81374V3.38376C0.75 1.62501 1.625 0.75 3.3925 0.75Z" stroke="#D8D8D8" stroke-width="1.3125" stroke-linecap="round" stroke-linejoin="round"/>
<path d="M5.34888 6.75555L5.34888 4.7963L7.30813 4.7963L7.30813 6.75555" stroke="#D8D8D8" stroke-width="1.16331" stroke-linecap="round" stroke-linejoin="round"/>
<path d="M3.14478 2.5921L3.14478 4.79627L3.14478 7.00043" stroke="#D8D8D8" stroke-width="1.16331" stroke-linecap="round" stroke-linejoin="round"/>
<path d="M6.57352 2.83698L6.32861 2.83698" stroke="#D8D8D8" stroke-width="1.16331" stroke-linecap="round" stroke-linejoin="round"/>
<path d="M7.30824 7.00038C5.59389 7.00038 5.10408 7.00038 3.38973 6.97575" stroke="#D8D8D8" stroke-width="1.16331" stroke-linecap="round" stroke-linejoin="round"/>
<path d="M0.75 12.125C0.75 15.5112 3.48875 18.25 6.875 18.25L5.95625 16.7187" stroke="#D8D8D8" stroke-width="1.3125" stroke-linecap="round" stroke-linejoin="round"/>
<path d="M18.25 6.875C18.25 3.48875 15.5112 0.75 12.125 0.75L13.0437 2.28125" stroke="#D8D8D8" stroke-width="1.3125" stroke-linecap="round" stroke-linejoin="round"/>
<path d="M13.1145 12.6248L13.1145 15.7585" stroke="#D8D8D8" stroke-width="0.930325" stroke-linecap="round" stroke-linejoin="round"/>
<path d="M13.1145 12.6248H15.0731" stroke="#D8D8D8" stroke-width="0.930325" stroke-linecap="round" stroke-linejoin="round"/>
<path d="M13.1145 15.7585H15.0731" stroke="#D8D8D8" stroke-width="0.930325" stroke-linecap="round" stroke-linejoin="round"/>
<path d="M13.1145 14.1917H15.0731" stroke="#D8D8D8" stroke-width="0.930325" stroke-linecap="round" stroke-linejoin="round"/>
</svg>
