<svg width="263" height="23" viewBox="0 0 263 23" fill="none" xmlns="http://www.w3.org/2000/svg">
<path d="M8.27734 13.3438C8.27734 11.5625 8.69922 10.1914 9.54297 9.23047C10.3945 8.26953 11.5508 7.78906 13.0117 7.78906H15.7188H15.9531V8.02344L15.9648 10.0742V10.3086H15.7305H12.9531C12.25 10.3086 11.7148 10.5547 11.3477 11.0469C10.9883 11.5312 10.7969 12.2969 10.7734 13.3438V13.8477H12.4141C13.5625 13.8477 14.4375 14.0859 15.0391 14.5625C15.6484 15.0312 15.9531 15.7305 15.9531 16.6602V17C15.9531 18.7422 15.3711 20.0508 14.207 20.9258C13.0508 21.8008 11.3438 22.2383 9.08594 22.2383H8.10156C5.75 22.2383 3.96875 21.6758 2.75781 20.5508C1.54688 19.4258 0.941406 17.7539 0.941406 15.5352V10.7305V10.4961H1.17578H3.19141H3.42578V10.7305V15.5352C3.42578 16.9258 3.80859 17.9609 4.57422 18.6406C5.34766 19.3281 6.52344 19.6719 8.10156 19.6719H9.08594C12.0078 19.6719 13.4688 18.8516 13.4688 17.2109V17.0703C13.4688 16.8281 13.3906 16.6484 13.2344 16.5312C13.0781 16.4141 12.8047 16.3555 12.4141 16.3555H10.5625C9.83594 16.3555 9.27344 16.1719 8.875 15.8047C8.47656 15.4297 8.27734 14.8906 8.27734 14.1875V13.3438ZM31.0703 17H30.8828C30.6172 17 30.3672 16.9805 30.1328 16.9414C29.9062 16.9023 29.6836 16.8359 29.4648 16.7422C29.2539 16.6484 29.0625 16.5547 28.8906 16.4609C28.7188 16.3594 28.5312 16.2227 28.3281 16.0508C28.125 15.8711 27.9492 15.7148 27.8008 15.582C27.6602 15.4492 27.4766 15.2695 27.25 15.043C26.8594 15.6602 26.25 16.1406 25.4219 16.4844C24.5938 16.8281 23.5664 17 22.3398 17H18.0742H17.8398V16.7656V14.6562V14.4219H18.0742H22.3516C24.2578 14.4219 25.2109 14.0312 25.2109 13.25C25.2109 12.7344 24.8516 12.0586 24.1328 11.2227L20.8516 7.4375L20.7109 7.28516L20.8516 7.13281L22.2695 5.53906L22.4453 5.33984L22.6211 5.53906L27.8477 11.6797C28.6211 12.5781 29.1875 13.2148 29.5469 13.5898C29.9141 13.957 30.1836 14.1875 30.3555 14.2812C30.5273 14.375 30.7305 14.4219 30.9648 14.4219H31.0703C31.2656 14.4219 31.3633 14.8242 31.3633 15.6289V15.7578C31.3633 16.5859 31.2656 17 31.0703 17ZM30.9531 14.4219H32.125C32.625 14.4219 32.9688 14.3633 33.1562 14.2461C33.3438 14.1289 33.4531 13.9492 33.4844 13.707C33.5078 13.5039 33.5195 13.0586 33.5195 12.3711C33.5195 10.8086 33.8711 9.625 34.5742 8.82031C35.2852 8.01562 36.2969 7.61328 37.6094 7.61328C40.3984 7.61328 41.793 9.20703 41.793 12.3945C41.793 13.918 41.4336 15.0938 40.7148 15.9219C39.9961 16.75 38.9609 17.1641 37.6094 17.1641C36.9609 17.1641 36.4062 17.082 35.9453 16.918C35.4844 16.7461 35.0625 16.4844 34.6797 16.1328C34.0938 16.7109 33.25 17 32.1484 17H30.9531C30.7578 17 30.6602 16.5859 30.6602 15.7578V15.6289C30.6602 14.8242 30.7578 14.4219 30.9531 14.4219ZM35.9453 12.3477C35.9453 13.8867 36.5078 14.6562 37.6328 14.6562C38.7578 14.6562 39.3203 13.8867 39.3203 12.3477C39.3203 11.582 39.1836 11.0273 38.9102 10.6836C38.6367 10.3398 38.207 10.168 37.6211 10.168C37.0508 10.168 36.6289 10.3398 36.3555 10.6836C36.082 11.0273 35.9453 11.582 35.9453 12.3477ZM52.1055 12.6875V16.7656C52.1055 18.5391 51.4961 19.9336 50.2773 20.9492C49.0586 21.9648 47.332 22.4727 45.0977 22.4727H44.2305H43.9961V22.2383V20.1758V19.9414H44.2305H45.0273C46.5039 19.9414 47.625 19.6875 48.3906 19.1797C49.1641 18.6797 49.5781 17.9531 49.6328 17H47.9805C46.5664 17 45.4922 16.6445 44.7578 15.9336C44.0312 15.2227 43.668 14.1758 43.668 12.793C43.668 12.1133 43.7578 11.4883 43.9375 10.918C44.125 10.3398 44.3906 9.83594 44.7344 9.40625C45.0859 8.97656 45.5391 8.64062 46.0938 8.39844C46.6484 8.15625 47.2734 8.03516 47.9688 8.03516C49.2656 8.03516 50.2773 8.45703 51.0039 9.30078C51.7383 10.1367 52.1055 11.2656 52.1055 12.6875ZM46.0938 12.7461C46.0938 13.3164 46.2422 13.7383 46.5391 14.0117C46.8438 14.2852 47.3203 14.4219 47.9688 14.4219H49.6562V12.6758C49.6562 11.2383 49.0781 10.5195 47.9219 10.5195C46.7031 10.5195 46.0938 11.2617 46.0938 12.7461ZM54.8008 1.36719H56.7461H56.9805V1.60156V16.7539V16.9883H56.7461H54.8008H54.5664V16.7539V1.60156V1.36719H54.8008ZM83.9219 2.28125L85.6211 0.59375L87.3086 2.28125L85.6211 3.99219L83.9219 2.28125ZM85.9844 5.17578L87.6836 3.46484L89.3945 5.17578L87.6836 6.86328L85.9844 5.17578ZM81.8359 5.17578L83.5469 3.46484L85.2461 5.17578L83.5469 6.86328L81.8359 5.17578ZM80.8984 12.1133C80.8984 12.918 81.0625 13.5039 81.3906 13.8711C81.7188 14.2383 82.2188 14.4219 82.8906 14.4219C83.5156 14.4219 83.9805 14.2578 84.2852 13.9297C84.5898 13.5938 84.7422 13.082 84.7422 12.3945L84.7539 9.33594V9.10156H84.9883H86.9805H87.2148V9.33594L87.2266 12.3711C87.2344 13.0742 87.3906 13.5898 87.6953 13.918C88 14.2461 88.4727 14.4102 89.1133 14.4102C89.6133 14.4102 89.9844 14.2539 90.2266 13.9414C90.4688 13.6289 90.5898 13.1211 90.5898 12.418V8.96094V8.72656H90.8242H92.875H93.1094V8.96094V12.5117C93.1094 13.918 92.7656 15.0195 92.0781 15.8164C91.3906 16.6055 90.4258 17 89.1836 17C87.8008 17 86.7539 16.5156 86.043 15.5469C85.3633 16.5156 84.2891 17 82.8203 17C81.9688 16.9922 81.2812 16.7734 80.7578 16.3438C80.7344 17.6562 80.4492 18.75 79.9023 19.625C79.3633 20.5078 78.5742 21.168 77.5352 21.6055C76.5039 22.043 75.2305 22.2617 73.7148 22.2617H73.1172C70.75 22.2617 68.9609 21.6992 67.75 20.5742C66.5391 19.457 65.9336 17.793 65.9336 15.582V11.5859V11.3516H66.168H68.207H68.4414V11.5859V15.5703C68.4414 16.9609 68.8242 17.9961 69.5898 18.6758C70.3633 19.3555 71.5391 19.6953 73.1172 19.6953H73.7148C75.3008 19.6953 76.4727 19.4062 77.2305 18.8281C77.9883 18.25 78.3672 17.3789 78.3672 16.2148V9.37109V9.13672H78.6016H80.6641H80.8984V9.37109V12.1133ZM104.852 17H103.434C103.379 18.7188 102.742 20.0586 101.523 21.0195C100.312 21.9883 98.6133 22.4727 96.4258 22.4727H95.5586H95.3242V22.2383V20.1758V19.9414H95.5586H96.3555C97.832 19.9414 98.9531 19.6875 99.7188 19.1797C100.492 18.6797 100.906 17.9531 100.961 17H99.3086C97.8945 17 96.8203 16.6445 96.0859 15.9336C95.3594 15.2227 94.9961 14.1758 94.9961 12.793C94.9961 12.1133 95.0859 11.4883 95.2656 10.918C95.4531 10.3398 95.7188 9.83594 96.0625 9.40625C96.4141 8.97656 96.8672 8.64062 97.4219 8.39844C97.9766 8.15625 98.6016 8.03516 99.2969 8.03516C100.594 8.03516 101.605 8.45703 102.332 9.30078C103.066 10.1367 103.434 11.2656 103.434 12.6875V14.4219H104.852C105.047 14.4219 105.145 14.8242 105.145 15.6289V15.7578C105.145 16.5859 105.047 17 104.852 17ZM97.4219 12.7461C97.4219 13.3164 97.5703 13.7383 97.8672 14.0117C98.1719 14.2852 98.6484 14.4219 99.2969 14.4219H100.984V12.6758C100.984 11.2383 100.406 10.5195 99.25 10.5195C98.0312 10.5195 97.4219 11.2617 97.4219 12.7461ZM109.82 3.45312L111.66 1.61328L113.5 3.45312L111.66 5.29297L109.82 3.45312ZM104.734 14.4219H108.543C110.129 14.4219 111.602 14.0703 112.961 13.3672L115.961 11.9609L113.98 10.8594C113.012 10.3203 112.109 10.0508 111.273 10.0508C110.953 10.0508 110.652 10.0898 110.371 10.168C110.098 10.2461 109.832 10.3594 109.574 10.5078C109.324 10.6484 109.039 10.8438 108.719 11.0938L107.898 11.7617L107.723 11.8906L107.57 11.7266L106.223 10.2148L106.059 10.0391L106.246 9.88672L106.961 9.27734C107.703 8.65234 108.406 8.19141 109.07 7.89453C109.742 7.58984 110.453 7.4375 111.203 7.4375C112.344 7.4375 113.5 7.77734 114.672 8.45703L116.887 9.73438C117.598 10.1406 118.316 10.418 119.043 10.5664L119.23 10.6133V10.8008V12.9102V13.0508L119.102 13.1211L114.203 15.5938C112.492 16.5312 110.613 17 108.566 17H104.734C104.539 17 104.441 16.5859 104.441 15.7578V15.6289C104.441 14.8242 104.539 14.4219 104.734 14.4219ZM254.582 17C253.645 17 252.828 16.8164 252.133 16.4492C251.445 16.0742 250.93 15.5273 250.586 14.8086H248.641C246.938 14.8086 245.664 14.4961 244.82 13.8711C243.984 13.2461 243.566 12.4258 243.566 11.4102C243.566 10.2461 244.016 9.30859 244.914 8.59766C245.82 7.87891 247.172 7.35547 248.969 7.02734L249.508 6.93359L249.438 6.37109L249.414 6.14844L249.637 6.11328L251.488 5.82031L251.723 5.78516L251.758 6.03125L252.555 12.7344C252.672 13.3828 252.895 13.8281 253.223 14.0703C253.551 14.3047 254.047 14.4219 254.711 14.4219H255.121C255.316 14.4219 255.414 14.8242 255.414 15.6289V15.7578C255.414 16.5859 255.316 17 255.121 17H254.582ZM250.141 12.3125L249.801 9.46484L249.355 9.52344C248.652 9.625 248.047 9.76172 247.539 9.93359C247.031 10.1055 246.641 10.3047 246.367 10.5312C246.094 10.7578 245.957 11 245.957 11.2578C245.957 11.6172 246.152 11.8828 246.543 12.0547C246.941 12.2266 247.582 12.3125 248.465 12.3125H250.141ZM254.992 14.4219H257.371C258.145 14.4219 258.691 14.2812 259.012 14C259.34 13.7109 259.504 13.1758 259.504 12.3945V8.94922V8.71484H259.738H261.777H262.012V8.94922V12.4062C262.012 13.9141 261.617 15.0586 260.828 15.8398C260.047 16.6133 258.891 17 257.359 17H254.992C254.797 17 254.699 16.5859 254.699 15.7578V15.6289C254.699 14.8242 254.797 14.4219 254.992 14.4219ZM255.789 20.8789L257.629 19.0391L259.469 20.8789L257.629 22.7188L255.789 20.8789Z" fill="#101010"/>
<path d="M137.98 6.76953L139.773 4.96484L141.578 6.76953L139.773 8.57422L137.98 6.76953ZM133.738 6.76953L135.543 4.96484L137.336 6.76953L135.543 8.57422L133.738 6.76953ZM150.309 17H150.062C149.25 17 148.574 16.8828 148.035 16.6484C147.496 16.4141 147.043 16.0547 146.676 15.5703C146.262 16.0703 145.734 16.4336 145.094 16.6602C144.461 16.8867 143.602 17 142.516 17H132.848C131.105 17 129.785 16.543 128.887 15.6289C127.996 14.7148 127.551 13.3672 127.551 11.5859V9.23047V8.99609H127.785H129.836H130.07V9.23047V11.5742C130.07 12.543 130.297 13.2617 130.75 13.7305C131.211 14.1914 131.922 14.4219 132.883 14.4219H142.539C143.594 14.4219 144.332 14.2695 144.754 13.9648C145.176 13.6602 145.387 13.1289 145.387 12.3711V9.34766V9.11328H145.621H147.625H147.859V9.34766V12.3711C147.859 13.0977 148.02 13.6211 148.34 13.9414C148.66 14.2617 149.23 14.4219 150.051 14.4219H150.309C150.504 14.4219 150.602 14.8242 150.602 15.6289V15.7578C150.602 16.5859 150.504 17 150.309 17ZM163.258 17H163.082C161.527 17 160.172 16.2812 159.016 14.8438C158.336 16.2812 156.742 17 154.234 17H150.18C149.984 17 149.887 16.5859 149.887 15.7578V15.6289C149.887 14.8242 149.984 14.4219 150.18 14.4219H154.258C156.055 14.4219 156.953 13.9766 156.953 13.0859C156.953 12.9219 156.848 12.668 156.637 12.3242C156.426 11.9727 156.113 11.5625 155.699 11.0938L152.02 6.81641C151.543 6.26172 151.305 5.67969 151.305 5.07031C151.312 4.55469 151.449 4.12109 151.715 3.76953C151.988 3.41016 152.371 3.15234 152.863 2.99609L160.258 0.582031V0.898438V2.99609V3.17188L153.977 5.22266L160.434 12.6875C161.441 13.8438 162.289 14.4219 162.977 14.4219H163.258C163.453 14.4219 163.551 14.8242 163.551 15.6289V15.7578C163.551 16.5859 163.453 17 163.258 17ZM163.141 14.4219H165.52C166.293 14.4219 166.84 14.2812 167.16 14C167.488 13.7109 167.652 13.1758 167.652 12.3945V8.94922V8.71484H167.887H169.926H170.16V8.94922V12.4062C170.16 13.9141 169.766 15.0586 168.977 15.8398C168.195 16.6133 167.039 17 165.508 17H163.141C162.945 17 162.848 16.5859 162.848 15.7578V15.6289C162.848 14.8242 162.945 14.4219 163.141 14.4219ZM166.328 4.74219L168.168 2.90234L170.008 4.74219L168.168 6.58203L166.328 4.74219ZM177.262 17H176.723C175.379 17 174.367 16.6094 173.688 15.8281C173.008 15.0391 172.668 13.8867 172.668 12.3711V1.61328V1.37891H172.902H174.848H175.082V1.61328V12.3828C175.082 13.0859 175.219 13.6016 175.492 13.9297C175.773 14.2578 176.195 14.4219 176.758 14.4219H177.262C177.457 14.4219 177.555 14.8242 177.555 15.6289V15.7578C177.555 16.5859 177.457 17 177.262 17ZM177.133 14.4219H181.211C183.008 14.4219 183.906 13.9766 183.906 13.0859C183.906 12.9219 183.801 12.668 183.59 12.3242C183.379 11.9727 183.066 11.5625 182.652 11.0938L178.973 6.81641C178.496 6.26172 178.258 5.67969 178.258 5.07031C178.266 4.55469 178.402 4.12109 178.668 3.76953C178.934 3.41797 179.316 3.16016 179.816 2.99609L187.211 0.582031V0.898438V2.99609V3.17188L180.93 5.22266L184.305 9.13672C185 9.94141 185.508 10.6523 185.828 11.2695C186.156 11.8867 186.32 12.4922 186.32 13.0859C186.32 14.3516 185.879 15.3203 184.996 15.9922C184.113 16.6641 182.844 17 181.188 17H177.133C176.938 17 176.84 16.5859 176.84 15.7578V15.6289C176.84 14.8242 176.938 14.4219 177.133 14.4219ZM202.809 13.3438C202.809 11.5625 203.23 10.1914 204.074 9.23047C204.926 8.26953 206.082 7.78906 207.543 7.78906H210.25H210.484V8.02344L210.496 10.0742V10.3086H210.262H207.484C206.781 10.3086 206.246 10.5547 205.879 11.0469C205.52 11.5312 205.328 12.2969 205.305 13.3438V13.8477H206.945C208.094 13.8477 208.969 14.0859 209.57 14.5625C210.18 15.0312 210.484 15.7305 210.484 16.6602V17C210.484 18.7422 209.902 20.0508 208.738 20.9258C207.582 21.8008 205.875 22.2383 203.617 22.2383H202.633C200.281 22.2383 198.5 21.6758 197.289 20.5508C196.078 19.4258 195.473 17.7539 195.473 15.5352V10.7305V10.4961H195.707H197.723H197.957V10.7305V15.5352C197.957 16.9258 198.34 17.9609 199.105 18.6406C199.879 19.3281 201.055 19.6719 202.633 19.6719H203.617C206.539 19.6719 208 18.8516 208 17.2109V17.0703C208 16.8281 207.922 16.6484 207.766 16.5312C207.609 16.4141 207.336 16.3555 206.945 16.3555H205.094C204.367 16.3555 203.805 16.1719 203.406 15.8047C203.008 15.4297 202.809 14.8906 202.809 14.1875V13.3438ZM215.84 4.91797L217.68 3.07812L219.52 4.91797L217.68 6.75781L215.84 4.91797ZM221.852 17H221.664C220.656 17 219.895 16.8047 219.379 16.4141C219.285 18.3203 218.641 19.7969 217.445 20.8438C216.258 21.8984 214.594 22.4414 212.453 22.4727L211.609 22.4844H211.375V22.25V20.1992V19.9648H211.609H212.43C213.891 19.9648 214.992 19.6211 215.734 18.9336C216.484 18.2539 216.859 17.25 216.859 15.9219V9.66406V9.42969H217.094H219.145H219.379V9.66406V12.2773C219.379 13.0117 219.562 13.5547 219.93 13.9062C220.305 14.25 220.883 14.4219 221.664 14.4219H221.852C222.047 14.4219 222.145 14.8242 222.145 15.6289V15.7578C222.145 16.5859 222.047 17 221.852 17ZM225.273 20.8789L227.066 19.0742L228.871 20.8789L227.066 22.6836L225.273 20.8789ZM221.031 20.8789L222.836 19.0742L224.629 20.8789L222.836 22.6836L221.031 20.8789ZM221.734 14.4219H225.062C225.836 14.4219 226.383 14.2812 226.703 14C227.031 13.7109 227.195 13.1758 227.195 12.3945V8.94922V8.71484H227.43H229.469H229.703V8.94922V12.4062C229.703 13.9141 229.309 15.0586 228.52 15.8398C227.738 16.6133 226.59 17 225.074 17H221.734C221.539 17 221.441 16.5859 221.441 15.7578V15.6289C221.441 14.8242 221.539 14.4219 221.734 14.4219ZM232.434 1.36719H234.379H234.613V1.60156V16.7539V16.9883H234.379H232.434H232.199V16.7539V1.60156V1.36719H232.434Z" fill="#009606"/>
</svg>
