<svg width="43" height="37" viewBox="0 0 43 37" fill="none" xmlns="http://www.w3.org/2000/svg">
<path d="M21.5 0.359412C20.5387 0.360302 19.5935 0.606632 18.7539 1.07506C17.9144 1.54349 17.2084 2.21851 16.7028 3.03616L18.4228 4.08966L16.6974 3.04691L1.44588 28.2369L1.42976 28.2637C1.06013 28.8954 0.819089 29.5939 0.720504 30.3191C0.62192 31.0443 0.667742 31.7818 0.855332 32.4892C1.04292 33.1966 1.36858 33.8599 1.81355 34.4409C2.25852 35.0219 2.81402 35.5092 3.44807 35.8747C4.29195 36.3665 5.2487 36.6299 6.22695 36.6407H36.7731C37.7498 36.6288 38.7067 36.3639 39.5503 35.8716C40.394 35.3794 41.0955 34.6767 41.5864 33.8322C42.0748 32.985 42.3305 32.0237 42.3277 31.0458C42.3249 30.0679 42.0636 29.1081 41.5703 28.2637L26.3053 3.04691L26.2972 3.03616C25.7949 2.21549 25.0896 1.53808 24.2493 1.06924C23.4091 0.600393 22.4622 0.355928 21.5 0.359412Z" fill="#4EF09D"/>
</svg>
