<svg width="38" height="32" viewBox="0 0 38 32" fill="none" xmlns="http://www.w3.org/2000/svg">
<path fill-rule="evenodd" clip-rule="evenodd" d="M34.3057 9.33958C34.2041 9.33318 34.0935 9.33322 33.9791 9.33326L33.9504 9.33327H29.456C25.7514 9.33327 22.5815 12.2493 22.5815 16.052C22.5815 19.8546 25.7514 22.7708 29.456 22.7708H33.9504H33.9791C34.0935 22.7708 34.2041 22.7709 34.3057 22.7645C35.8105 22.6693 37.1412 21.4919 37.2531 19.8471C37.2605 19.7393 37.2603 19.623 37.2603 19.5153V19.4861V12.618V12.5888C37.2603 12.481 37.2605 12.3647 37.2531 12.2569C37.1412 10.6122 35.8105 9.43461 34.3057 9.33958ZM29.0575 17.8437C30.0112 17.8437 30.7843 17.0415 30.7843 16.052C30.7843 15.0625 30.0112 14.2603 29.0575 14.2603C28.1038 14.2603 27.3305 15.0625 27.3305 16.052C27.3305 17.0415 28.1038 17.8437 29.0575 17.8437Z" fill="#D8D8D8"/>
<path fill-rule="evenodd" clip-rule="evenodd" d="M33.9781 25.4583C34.2452 25.4513 34.4475 25.6988 34.3749 25.9561C34.0153 27.2324 33.4443 28.3205 32.5284 29.2366C31.1875 30.5773 29.4873 31.1723 27.3867 31.4549C25.3456 31.7292 22.7377 31.7292 19.445 31.7292H15.6595C12.3669 31.7292 9.75884 31.7292 7.71775 31.4549C5.61717 31.1723 3.91696 30.5773 2.57613 29.2366C1.23532 27.8957 0.640275 26.1954 0.357873 24.0949C0.0834433 22.0538 0.0834611 19.4459 0.0834969 16.1531V15.951C0.0834611 12.6584 0.0834433 10.0503 0.357873 8.00926C0.640275 5.90867 1.23532 4.20847 2.57613 2.86764C3.91696 1.52683 5.61717 0.931779 7.71775 0.649377C9.75884 0.374947 12.3668 0.374965 15.6595 0.375001H19.445C22.7377 0.374965 25.3456 0.374947 27.3867 0.649377C29.4873 0.931779 31.1875 1.52683 32.5284 2.86764C33.4443 3.78368 34.0152 4.87162 34.3749 6.14807C34.4475 6.4053 34.2452 6.65277 33.9781 6.64583L29.4561 6.64585C24.3738 6.64585 19.8941 10.6608 19.8941 16.0521C19.8941 21.4434 24.3738 25.4583 29.4561 25.4583H33.9781ZM9.04183 22.7708C8.2997 22.7708 7.69808 22.1692 7.69808 21.4271V10.6771C7.69808 9.93496 8.2997 9.33333 9.04183 9.33333C9.78396 9.33333 10.3856 9.93496 10.3856 10.6771V21.4271C10.3856 22.1692 9.78396 22.7708 9.04183 22.7708Z" fill="#D8D8D8"/>
</svg>
