<svg width="29" height="34" viewBox="0 0 29 34" fill="none" xmlns="http://www.w3.org/2000/svg">
<path d="M1.64962 11.8049C1.71701 10.9288 1.7507 10.4908 2.03825 10.2245C2.3258 9.95825 2.76511 9.95825 3.64373 9.95825H25.0229C25.9016 9.95825 26.3409 9.95825 26.6284 10.2245C26.916 10.4908 26.9497 10.9288 27.017 11.8049L28.0041 24.6363C28.3143 28.6691 28.4694 30.6855 27.282 31.9677C26.0947 33.2499 24.0723 33.2499 20.0276 33.2499H8.63901C4.59432 33.2499 2.57198 33.2499 1.38462 31.9677C0.197262 30.6855 0.352369 28.6691 0.662582 24.6363L1.64962 11.8049Z" fill="#D8D8D8"/>
<path d="M8.0625 9.95825L8.0625 7.27075C8.0625 3.80747 10.87 0.999919 14.3333 0.999919V0.999919C17.7966 0.999919 20.6042 3.80747 20.6042 7.27075L20.6042 9.95825" stroke="#D8D8D8"/>
</svg>
