<svg width="25" height="20" viewBox="0 0 25 20" fill="none" xmlns="http://www.w3.org/2000/svg">
<path d="M2.3335 8.33333L1.62639 9.04044L0.919282 8.33333L1.62639 7.62623L2.3335 8.33333ZM24.6668 19C24.6668 19.5523 24.2191 20 23.6668 20C23.1145 20 22.6668 19.5523 22.6668 19L24.6668 19ZM8.29306 15.7071L1.62639 9.04044L3.0406 7.62623L9.70727 14.2929L8.29306 15.7071ZM1.62639 7.62623L8.29305 0.959559L9.70727 2.37377L3.0406 9.04044L1.62639 7.62623ZM2.3335 7.33333L17.6668 7.33333L17.6668 9.33333L2.3335 9.33333L2.3335 7.33333ZM24.6668 14.3333L24.6668 19L22.6668 19L22.6668 14.3333L24.6668 14.3333ZM17.6668 7.33333C21.5328 7.33333 24.6668 10.4673 24.6668 14.3333L22.6668 14.3333C22.6668 11.5719 20.4282 9.33333 17.6668 9.33333L17.6668 7.33333Z" fill="#D8D8D8"/>
</svg>
