<svg width="21" height="18" viewBox="0 0 21 18" fill="none" xmlns="http://www.w3.org/2000/svg">
<path d="M13.0396 5.2926L10.639 14.3509L8.04565 5.2926H13.0396Z" fill="white"/>
<path d="M17.1859 1.65991L19.2215 4.12409H15.1504L17.1859 1.65991Z" fill="white"/>
<path d="M10.5456 1.65686L12.5659 4.10326H8.52515L10.5456 1.65686Z" fill="white"/>
<path d="M3.92023 1.63916L5.95578 4.10334H1.88477L3.92023 1.63916Z" fill="white"/>
<path d="M21.1092 4.7218C21.1092 4.58866 21.061 4.45561 20.9736 4.34915L17.6624 0.337829C17.6263 0.296415 17.584 0.261011 17.5388 0.231371C17.4302 0.139486 17.2917 0.083252 17.1407 0.083252H3.92619C3.73616 0.083252 3.56441 0.169127 3.44956 0.310988C3.44651 0.314035 3.44651 0.314035 3.44355 0.316999L0.13264 4.32527C0.0451191 4.43173 0 4.56487 0 4.69792C0 4.78659 0.0180312 4.87247 0.0601863 4.9553C0.0812639 4.99976 0.108352 5.03516 0.138651 5.07361L2.02419 7.31516C2.25036 7.5839 2.66326 7.60333 2.91463 7.35682L2.92319 7.34826C3.14261 7.13295 3.15949 6.78929 2.96181 6.55431L1.89961 5.29237H6.77594L9.29405 14.0784L6.74424 11.0489C6.51552 10.7772 6.098 10.7577 5.84408 11.0068C5.62211 11.2246 5.60523 11.572 5.80497 11.8095L10.1897 17.022C10.2197 17.0574 10.2561 17.09 10.2922 17.1166C10.2952 17.1197 10.3012 17.1226 10.3042 17.1254C10.3493 17.1551 10.3947 17.1787 10.4459 17.1965C10.4579 17.2023 10.473 17.2083 10.4881 17.2113C10.5454 17.2291 10.6027 17.241 10.663 17.241H10.669C10.7112 17.241 10.7505 17.235 10.7897 17.2261C10.8017 17.2231 10.8107 17.2201 10.8227 17.2173C10.8528 17.2085 10.8801 17.1995 10.9103 17.1877C10.9193 17.1819 10.9283 17.1789 10.9403 17.1729C10.9765 17.1551 11.0097 17.1375 11.0428 17.1109C11.0428 17.1109 11.0459 17.1078 11.0488 17.1049C11.0789 17.084 11.103 17.0576 11.1303 17.028C11.1334 17.025 11.1364 17.022 11.1394 17.0163L20.9735 5.09444L20.9705 5.09139C21.0006 5.05599 21.0277 5.02034 21.049 4.97893C21.0881 4.89626 21.1092 4.80742 21.1092 4.7218ZM15.8651 1.2724L13.8446 3.7188L11.8241 1.2724H15.8651ZM12.5659 4.1033H8.52521L10.5457 1.65691L12.5659 4.1033ZM1.88488 4.1033L3.92034 1.63912L5.95589 4.1033H1.88488ZM5.20204 1.2724H9.27305L7.23751 3.73667L5.20204 1.2724ZM10.639 14.3509L8.04562 5.29254H13.0395L10.639 14.3509ZM11.966 14.117L14.2971 5.31617H19.2216L11.966 14.117ZM15.1505 4.12413L17.186 1.65995L19.2216 4.12413H15.1505Z" fill="white"/>
<path d="M3.53052 8.24725L3.5222 8.25556C3.30253 8.47103 3.2859 8.81503 3.48359 9.04993L4.34184 10.0702C4.56818 10.3392 4.98141 10.3586 5.23278 10.1119C5.23558 10.1091 5.23854 10.1064 5.24134 10.1033C5.46101 9.88784 5.47764 9.54385 5.27996 9.30895L4.42146 8.28891C4.19528 8.01992 3.78188 8.00074 3.53052 8.24725Z" fill="white"/>
</svg>
