<svg width="25" height="25" viewBox="0 0 25 25" fill="none" xmlns="http://www.w3.org/2000/svg">
<g clip-path="url(#clip0_2369_28976)">
<path d="M12.5092 4.52978L23.0562 12.3056C23.3776 12.5425 23.3776 13.023 23.0562 13.2599L12.5092 21.0356C12.1179 21.3241 11.5647 21.0447 11.5647 20.5585V5.00688C11.5647 4.52068 12.1179 4.24124 12.5092 4.52978Z" fill="#62DF85"/>
<path d="M23.4814 11.7287L12.9344 3.95291C12.7068 3.78514 12.4389 3.6964 12.1596 3.6964C11.4363 3.6964 10.8478 4.28434 10.8478 5.00699V16.5575H1.72713C1.64241 16.5575 1.57354 16.4887 1.57354 16.4039V9.16144C1.57354 9.07671 1.64241 9.00784 1.72713 9.00784H7.01036C7.09509 9.00784 7.16396 9.07671 7.16396 9.16144V13.5949C7.16396 13.9907 7.4849 14.3116 7.88068 14.3116C8.27647 14.3116 8.59741 13.9908 8.59741 13.5949V9.16144C8.59741 8.28641 7.88544 7.57444 7.01041 7.57444H1.72713C0.852106 7.57444 0.140137 8.28636 0.140137 9.16144V16.4039C0.140137 17.279 0.852106 17.9909 1.72713 17.9909H10.8479V20.5585C10.8479 21.2811 11.4364 21.8691 12.1597 21.8691C12.4389 21.8691 12.7069 21.7803 12.9345 21.6125L23.4814 13.8368C23.8148 13.591 24.0139 13.197 24.0139 12.7827C24.014 12.3684 23.8148 11.9744 23.4814 11.7287ZM12.2813 20.3131V5.25221L22.4955 12.7826L12.2813 20.3131Z" fill="#F0FCF3"/>
</g>
<defs>
<clipPath id="clip0_2369_28976">
<rect width="23.8738" height="23.8738" fill="white" transform="translate(0.140137 0.845802)"/>
</clipPath>
</defs>
</svg>
