<svg width="209" height="262" viewBox="0 0 209 262" fill="none" xmlns="http://www.w3.org/2000/svg">
<g clip-path="url(#clip0_2353_14921)">
<path d="M124.576 262H39.2621C28.8674 261.978 18.9047 257.84 11.5546 250.489C4.20442 243.139 0.0655784 233.177 0.0439453 222.782V39.2181C0.0655784 28.8235 4.20442 18.8608 11.5546 11.5106C18.9047 4.16048 28.8674 0.021633 39.2621 0L124.576 0C134.97 0.021633 144.933 4.16048 152.283 11.5106C159.633 18.8608 163.772 28.8235 163.794 39.2181V40.9375C163.794 43.109 162.931 45.1915 161.396 46.7269C159.86 48.2624 157.778 49.125 155.606 49.125C153.435 49.125 151.352 48.2624 149.817 46.7269C148.282 45.1915 147.419 43.109 147.419 40.9375V39.2181C147.419 33.1598 145.012 27.3495 140.728 23.0656C136.444 18.7817 130.634 16.375 124.576 16.375H39.2621C33.2037 16.375 27.3935 18.7817 23.1095 23.0656C18.8256 27.3495 16.4189 33.1598 16.4189 39.2181V222.782C16.4189 228.84 18.8256 234.65 23.1095 238.934C27.3935 243.218 33.2037 245.625 39.2621 245.625H124.576C130.634 245.625 136.444 243.218 140.728 238.934C145.012 234.65 147.419 228.84 147.419 222.782V221.062C147.419 218.891 148.282 216.809 149.817 215.273C151.352 213.738 153.435 212.875 155.606 212.875C157.778 212.875 159.86 213.738 161.396 215.273C162.931 216.809 163.794 218.891 163.794 221.062V222.782C163.772 233.177 159.633 243.139 152.283 250.489C144.933 257.84 134.97 261.978 124.576 262Z" fill="#009606"/>
<path d="M106.481 49.125H57.3562C55.1847 49.125 53.1022 48.2624 51.5668 46.7269C50.0313 45.1915 49.1687 43.109 49.1687 40.9375C49.1687 38.766 50.0313 36.6835 51.5668 35.1481C53.1022 33.6126 55.1847 32.75 57.3562 32.75H106.481C108.653 32.75 110.735 33.6126 112.271 35.1481C113.806 36.6835 114.669 38.766 114.669 40.9375C114.669 43.109 113.806 45.1915 112.271 46.7269C110.735 48.2624 108.653 49.125 106.481 49.125Z" fill="#009606"/>
<path d="M90.2522 217.399H85.9322V213.079C85.9322 211.934 85.4771 210.835 84.6669 210.025C83.8568 209.215 82.758 208.759 81.6122 208.759C80.4665 208.759 79.3677 209.215 78.5576 210.025C77.7474 210.835 77.2923 211.934 77.2923 213.079V217.399H72.9723C71.8266 217.399 70.7278 217.854 69.9176 218.665C69.1075 219.475 68.6523 220.574 68.6523 221.719C68.6523 222.865 69.1075 223.964 69.9176 224.774C70.7278 225.584 71.8266 226.039 72.9723 226.039H77.2923V230.359C77.2923 231.505 77.7474 232.604 78.5576 233.414C79.3677 234.224 80.4665 234.679 81.6122 234.679C82.758 234.679 83.8568 234.224 84.6669 233.414C85.4771 232.604 85.9322 231.505 85.9322 230.359V226.039H90.2522C91.3979 226.039 92.4967 225.584 93.3068 224.774C94.117 223.964 94.5721 222.865 94.5721 221.719C94.5721 220.574 94.117 219.475 93.3068 218.665C92.4967 217.854 91.3979 217.399 90.2522 217.399Z" fill="#62DF85"/>
<path d="M156.575 107.621C150.217 107.621 144.565 105.501 141.033 101.262C137.5 97.0236 134.674 91.3718 134.674 85.7201C134.674 80.0683 136.794 74.4165 141.033 70.1777C145.271 65.9389 150.923 63.8195 156.575 63.8195C168.585 63.8195 178.476 73.7101 178.476 86.4266C178.476 97.7301 168.585 107.621 156.575 107.621ZM156.575 72.2971C153.043 72.2971 149.51 73.7101 146.684 76.5359C143.858 79.3618 142.446 82.1877 142.446 86.4266C142.446 89.9589 143.858 93.4913 146.684 96.3172C149.51 99.143 152.336 100.556 156.575 100.556C164.346 100.556 169.998 94.1977 169.998 87.133C170.704 77.9489 164.346 72.2971 156.575 72.2971Z" fill="#009606"/>
<path d="M185.541 138.706H177.063V133.76C177.063 128.109 174.944 123.163 171.411 118.925C167.879 114.686 162.227 112.566 157.282 112.566C151.63 112.566 146.685 114.686 143.152 118.218C138.913 121.75 136.794 127.402 136.794 132.348V138.706H128.316V133.76C128.316 125.989 131.849 118.925 136.794 113.273C142.446 107.621 149.511 104.795 157.282 104.795C165.053 104.795 172.118 108.328 177.769 113.273C183.421 118.925 186.247 125.989 186.247 133.76V138.706H185.541Z" fill="#009606"/>
<path d="M208.628 147.112H181.202V153.837H208.628V147.112Z" fill="#009606"/>
<path d="M162.918 147.112H105.781V153.837H162.918V147.112Z" fill="#009606"/>
<path d="M208.628 166.167H105.781V172.892H208.628V166.167Z" fill="#009606"/>
<path d="M208.627 185.221H153.776V191.946H208.627V185.221Z" fill="#009606"/>
<path d="M135.492 185.221H105.781V191.946H135.492V185.221Z" fill="#009606"/>
</g>
<defs>
<clipPath id="clip0_2353_14921">
<rect width="208.759" height="262" fill="white"/>
</clipPath>
</defs>
</svg>
