<svg width="19" height="19" viewBox="0 0 19 19" fill="none" xmlns="http://www.w3.org/2000/svg">
<path d="M18.2505 8.18756V9.50006C18.2505 13.6248 18.2505 15.6873 16.969 16.9686C15.6877 18.2501 13.6252 18.2501 9.50049 18.2501C5.37569 18.2501 3.3133 18.2501 2.0319 16.9686C0.750488 15.6873 0.750488 13.6248 0.750488 9.50006C0.750488 5.37527 0.750488 3.31287 2.0319 2.03147C3.3133 0.750061 5.37569 0.750061 9.50049 0.750061H10.813" stroke="#62DF85" stroke-width="1.3125" stroke-linecap="round"/>
<path d="M13.571 2.02324L14.1388 1.45552C15.0794 0.514907 16.6044 0.514907 17.5451 1.45552C18.4856 2.39615 18.4856 3.92119 17.5451 4.86181L16.9773 5.42952M13.571 2.02324C13.571 2.02324 13.642 3.22963 14.7065 4.29409C15.7709 5.35856 16.9773 5.42952 16.9773 5.42952M13.571 2.02324L8.35179 7.2425C7.99829 7.59601 7.82154 7.77273 7.66949 7.96768C7.49017 8.19754 7.33643 8.4463 7.211 8.7095C7.10466 8.93263 7.02561 9.16975 6.86752 9.64409L6.36136 11.1626M16.9773 5.42952L11.7581 10.6488C11.4046 11.0023 11.2278 11.179 11.0329 11.3311C10.803 11.5104 10.5543 11.6641 10.2911 11.7896C10.0679 11.8959 9.8308 11.9749 9.35646 12.133L7.83799 12.6392M6.36136 11.1626L6.03384 12.1451C5.95604 12.3785 6.01678 12.6358 6.19075 12.8098C6.36472 12.9838 6.62205 13.0445 6.85544 12.9667L7.83799 12.6392M6.36136 11.1626L7.83799 12.6392" stroke="#009606" stroke-width="1.3125"/>
</svg>
