<svg width="19" height="19" viewBox="0 0 19 19" fill="none" xmlns="http://www.w3.org/2000/svg">
<path fill-rule="evenodd" clip-rule="evenodd" d="M0.750003 11.4688C1.11244 11.4688 1.40625 11.7626 1.40625 12.125C1.40625 13.8042 1.40877 14.7512 1.52463 15.4151C1.62741 16.0042 1.81292 16.3346 2.23915 16.7608L2.23917 16.7608C2.60948 17.1311 3.11667 17.3531 3.997 17.4715C4.8962 17.5924 6.08153 17.5938 7.75 17.5938C8.11244 17.5938 8.40625 17.8876 8.40625 18.25C8.40625 18.6124 8.11244 18.9062 7.75 18.9062H7.70064C6.0926 18.9063 4.81892 18.9063 3.82211 18.7723C2.79624 18.6343 1.96592 18.3437 1.3111 17.6889C1.3111 17.6889 1.31109 17.6889 1.31108 17.6889M1.31108 17.6889C0.7122 17.09 0.385158 16.5204 0.231662 15.6408C0.0936795 14.85 0.0937085 13.7835 0.0937515 12.2093C0.0937523 12.1813 0.0937531 12.1533 0.0937531 12.125C0.0937531 11.7626 0.387566 11.4688 0.750003 11.4688" fill="#62DF85"/>
<path fill-rule="evenodd" clip-rule="evenodd" d="M18.25 11.4688C18.6124 11.4688 18.9062 11.7626 18.9062 12.125L18.9063 12.2093C18.9063 13.7835 18.9063 14.85 18.7683 15.6408C18.6148 16.5204 18.2878 17.09 17.6889 17.6889C17.6889 17.6889 17.6889 17.6889 17.6889 17.6889M17.6889 17.6889C17.0341 18.3437 16.2037 18.6343 15.1779 18.7723C14.1811 18.9063 12.9074 18.9063 11.2994 18.9062H11.25C10.8876 18.9062 10.5938 18.6124 10.5938 18.25C10.5938 17.8876 10.8876 17.5938 11.25 17.5938C12.9185 17.5938 14.1038 17.5924 15.003 17.4715C15.8833 17.3531 16.3905 17.1311 16.7608 16.7608L16.7608 16.7608C17.1871 16.3346 17.3726 16.0042 17.4754 15.4151C17.5912 14.7512 17.5938 13.8042 17.5938 12.125C17.5938 11.7626 17.8876 11.4688 18.25 11.4688" fill="#62DF85"/>
<path fill-rule="evenodd" clip-rule="evenodd" d="M15.003 1.52848C14.1038 1.40758 12.9185 1.40619 11.25 1.40619C10.8876 1.40619 10.5938 1.11238 10.5938 0.74994C10.5938 0.387503 10.8876 0.0936895 11.25 0.0936895C11.2665 0.0936895 11.2829 0.0936894 11.2994 0.0936892C12.9074 0.0936753 14.1811 0.0936643 15.1779 0.227682C16.2038 0.365604 17.0341 0.6562 17.6889 1.31102C17.6889 1.31103 17.6889 1.31103 17.6889 1.31104M17.6889 1.31104C18.2878 1.90991 18.6148 2.47951 18.7683 3.35918C18.9063 4.14993 18.9063 5.21637 18.9063 6.79066L18.9062 6.87494C18.9062 7.23738 18.6124 7.53119 18.25 7.53119C17.8876 7.53119 17.5938 7.23738 17.5938 6.87494C17.5938 5.19574 17.5912 4.24871 17.4754 3.5848C17.3726 2.99577 17.1871 2.66536 16.7608 2.23911L16.7608 2.23909C16.3905 1.8688 15.8833 1.64684 15.003 1.52848" fill="#62DF85"/>
<path fill-rule="evenodd" clip-rule="evenodd" d="M7.70064 0.0936892L7.75 0.0936895C8.11244 0.0936895 8.40625 0.387503 8.40625 0.74994C8.40625 1.11238 8.11244 1.40619 7.75 1.40619C6.08153 1.40619 4.8962 1.40758 3.997 1.52848C3.11667 1.64683 2.60948 1.86879 2.23917 2.2391C2.23917 2.2391 2.23916 2.2391 2.23916 2.2391M2.23916 2.2391C1.81292 2.66535 1.62741 2.99577 1.52463 3.5848C1.40877 4.24871 1.40625 5.19574 1.40625 6.87494C1.40625 7.23738 1.11244 7.53119 0.750003 7.53119C0.387566 7.53119 0.0937531 7.23738 0.0937531 6.87494L0.0937515 6.79066C0.0937085 5.21638 0.0936795 4.14993 0.231662 3.35918C0.38516 2.47951 0.712207 1.90991 1.31109 1.31103L1.31109 1.31102C1.96591 0.656208 2.79624 0.365606 3.82211 0.227682C4.81892 0.0936643 6.0926 0.0936753 7.70064 0.0936892" fill="#62DF85"/>
<path fill-rule="evenodd" clip-rule="evenodd" d="M9.5 5.78131C7.19787 5.78131 5.6206 7.00375 4.65291 8.12624L4.6529 8.12626C4.3782 8.44488 4.24446 8.60624 4.15841 8.78017C4.08548 8.92756 4.03125 9.12032 4.03125 9.50006C4.03125 9.8798 4.08548 10.0726 4.15841 10.22C4.24447 10.3939 4.37821 10.5552 4.65291 10.8739L4.65292 10.8739C5.62061 11.9964 7.19787 13.2188 9.5 13.2188C11.8021 13.2188 13.3794 11.9964 14.3471 10.8739L14.8441 11.3024L14.3471 10.8739C14.6218 10.5552 14.7555 10.3939 14.8416 10.22C14.9145 10.0726 14.9688 9.87979 14.9688 9.50006C14.9688 9.12033 14.9145 8.92756 14.8416 8.78017C14.7555 8.60623 14.6218 8.44488 14.3471 8.12625C13.3794 7.00374 11.8021 5.78131 9.5 5.78131ZM3.65883 7.26923C4.77006 5.98025 6.67933 4.46881 9.5 4.46881C12.3207 4.46881 14.2299 5.98026 15.3412 7.26924L15.3412 7.26926C15.3506 7.28016 15.36 7.29107 15.3694 7.302C15.6066 7.57683 15.8504 7.85945 16.018 8.19811C16.2053 8.57679 16.2812 8.98327 16.2812 9.50006C16.2812 10.0169 16.2053 10.4233 16.018 10.802C15.8504 11.1407 15.6066 11.4233 15.3694 11.6981C15.36 11.7091 15.3506 11.72 15.3412 11.7309L15.3412 11.7309C14.2299 13.0199 12.3207 14.5313 9.5 14.5313C6.67932 14.5313 4.77005 13.0199 3.65884 11.7309L4.15588 11.3024L3.65884 11.7309C3.64945 11.72 3.64005 11.7091 3.63064 11.6982C3.39349 11.4233 3.14961 11.1407 2.98203 10.802C2.79467 10.4233 2.71875 10.0168 2.71875 9.50006C2.71875 8.98328 2.79466 8.5768 2.98202 8.19812C3.14961 7.85941 3.39349 7.57676 3.63065 7.3019C3.64006 7.29101 3.64945 7.28012 3.65882 7.26925" fill="#009606"/>
<path fill-rule="evenodd" clip-rule="evenodd" d="M9.5 8.40631C8.89594 8.40631 8.40625 8.896 8.40625 9.50006C8.40625 10.1041 8.89594 10.5938 9.5 10.5938C10.1041 10.5938 10.5938 10.1041 10.5938 9.50006C10.5938 8.896 10.1041 8.40631 9.5 8.40631ZM7.09375 9.50006C7.09375 8.17113 8.17106 7.09381 9.5 7.09381C10.8289 7.09381 11.9062 8.17113 11.9062 9.50006C11.9062 10.829 10.8289 11.9063 9.5 11.9063C8.17106 11.9063 7.09375 10.829 7.09375 9.50006Z" fill="#009606"/>
</svg>
