<svg width="25" height="26" viewBox="0 0 25 26" fill="none" xmlns="http://www.w3.org/2000/svg">
<path d="M20.6396 9.85059H18.5059C18.1006 9.85059 17.7734 9.52344 17.7734 9.11816C17.7734 8.71289 18.1006 8.38574 18.5059 8.38574H20.6396C21.0449 8.38574 21.3721 8.71289 21.3721 9.11816C21.3721 9.52344 21.0425 9.85059 20.6396 9.85059ZM16.1694 9.85059H6.42334C6.01807 9.85059 5.69092 9.52344 5.69092 9.11816C5.69092 8.71289 6.01807 8.38574 6.42334 8.38574H16.1694C16.5747 8.38574 16.9019 8.71289 16.9019 9.11816C16.9019 9.52344 16.5723 9.85059 16.1694 9.85059Z" fill="#62DF85"/>
<path d="M9.2334 21.8185C9.2334 21.9949 9.26813 22.1695 9.33561 22.3324C9.40309 22.4953 9.502 22.6433 9.62669 22.768C9.75138 22.8927 9.8994 22.9916 10.0623 23.0591C10.2252 23.1266 10.3998 23.1613 10.5762 23.1613C10.7525 23.1613 10.9271 23.1266 11.09 23.0591C11.2529 22.9916 11.401 22.8927 11.5257 22.768C11.6503 22.6433 11.7493 22.4953 11.8167 22.3324C11.8842 22.1695 11.9189 21.9949 11.9189 21.8185C11.9189 21.6422 11.8842 21.4676 11.8167 21.3047C11.7493 21.1418 11.6503 20.9937 11.5257 20.8691C11.401 20.7444 11.2529 20.6455 11.09 20.578C10.9271 20.5105 10.7525 20.4758 10.5762 20.4758C10.3998 20.4758 10.2252 20.5105 10.0623 20.578C9.8994 20.6455 9.75138 20.7444 9.62669 20.8691C9.502 20.9937 9.40309 21.1418 9.33561 21.3047C9.26813 21.4676 9.2334 21.6422 9.2334 21.8185Z" fill="#62DF85"/>
<path d="M19.519 21.8185C19.519 22.1747 19.6605 22.5162 19.9123 22.768C20.1642 23.0198 20.5057 23.1613 20.8618 23.1613C21.2179 23.1613 21.5595 23.0198 21.8113 22.768C22.0631 22.5162 22.2046 22.1747 22.2046 21.8185C22.2046 21.4624 22.0631 21.1209 21.8113 20.8691C21.5595 20.6172 21.2179 20.4758 20.8618 20.4758C20.5057 20.4758 20.1642 20.6172 19.9123 20.8691C19.6605 21.1209 19.519 21.4624 19.519 21.8185Z" fill="#62DF85"/>
<path d="M21.7236 18.1295H9.24799C8.32758 18.1295 7.57807 17.38 7.57807 16.4595V16.4254L6.7016 7.09186V7.08698V7.0821L6.55512 5.72956C6.34516 3.61042 5.14887 2.86091 4.17963 2.60212L2.47797 2.18464C2.08491 2.08698 1.6894 2.32868 1.59174 2.72175C1.49409 3.11481 1.73578 3.51032 2.12885 3.60798L3.81098 4.02057C4.20649 4.12556 4.49702 4.32331 4.70453 4.6236C4.9145 4.92634 5.04633 5.3487 5.0976 5.87848L5.24409 7.23591L6.11323 16.4962C6.13276 18.2076 7.53168 19.5943 9.24799 19.5943H21.7236C22.1289 19.5943 22.456 19.2672 22.456 18.8619C22.456 18.4566 22.1289 18.1295 21.7236 18.1295Z" fill="#009606"/>
<path d="M20.5151 5.32892H9.30176C8.89648 5.32892 8.56934 5.65607 8.56934 6.06134C8.56934 6.46661 8.89648 6.79376 9.30176 6.79376H20.5151C21.2524 6.79376 21.8555 7.38702 21.8701 8.11945L21.3843 13.6492L21.3818 13.681V13.7127C21.3818 14.4598 20.7739 15.0677 20.0269 15.0677H10.6445C10.2393 15.0677 9.91211 15.3948 9.91211 15.8001C9.91211 16.2054 10.2393 16.5325 10.6445 16.5325H20.0269C21.5698 16.5325 22.8271 15.285 22.8467 13.7469L23.3325 8.21466L23.335 8.18292V8.15118C23.335 6.59357 22.0703 5.32892 20.5151 5.32892Z" fill="#009606"/>
<path d="M9.97314 21.0592C10.1489 21.0592 10.293 21.2032 10.293 21.379C10.293 21.5548 10.1489 21.6989 9.97314 21.6989C9.79736 21.6989 9.65332 21.5548 9.65332 21.379C9.65332 21.2032 9.79736 21.0592 9.97314 21.0592ZM9.97314 19.5944C8.98682 19.5944 8.18848 20.3927 8.18848 21.379C8.18848 22.3654 8.98682 23.1637 9.97314 23.1637C10.9595 23.1637 11.7578 22.3654 11.7578 21.379C11.7578 20.3927 10.9595 19.5944 9.97314 19.5944ZM20.0952 21.0592C20.271 21.0592 20.415 21.2032 20.415 21.379C20.415 21.5548 20.271 21.6989 20.0952 21.6989C19.9194 21.6989 19.7754 21.5548 19.7754 21.379C19.7754 21.2032 19.9194 21.0592 20.0952 21.0592ZM20.0952 19.5944C19.1089 19.5944 18.3105 20.3927 18.3105 21.379C18.3105 22.3654 19.1089 23.1637 20.0952 23.1637C21.0815 23.1637 21.8799 22.3654 21.8799 21.379C21.8799 20.3927 21.0815 19.5944 20.0952 19.5944Z" fill="#009606"/>
</svg>
