<svg width="21" height="21" viewBox="0 0 21 21" fill="none" xmlns="http://www.w3.org/2000/svg">
<path fill-rule="evenodd" clip-rule="evenodd" d="M10.4166 -8.01086e-05C4.66364 -8.01086e-05 -8.01086e-05 4.66358 -8.01086e-05 10.4166C-8.01086e-05 16.1695 4.66364 20.8333 10.4166 20.8333C16.1696 20.8333 20.8333 16.1695 20.8333 10.4166C20.8333 4.66358 16.1696 -8.01086e-05 10.4166 -8.01086e-05ZM10.4166 18.7499C5.8216 18.7499 2.08325 15.0116 2.08325 10.4166C2.08325 5.8216 5.8216 2.08325 10.4166 2.08325C15.0116 2.08325 18.7499 5.8216 18.7499 10.4166C18.7499 15.0116 15.0116 18.7499 10.4166 18.7499ZM11.721 6.24992C11.721 7.00517 11.1711 7.552 10.4272 7.552C9.65318 7.552 9.11679 7.00517 9.11679 6.23547C9.11679 5.4957 9.6677 4.94784 10.4272 4.94784C11.1711 4.94784 11.721 5.4957 11.721 6.24992ZM9.3772 9.37492H11.4605V15.6249H9.3772V9.37492Z" fill="white"/>
</svg>
