<svg width="19" height="19" viewBox="0 0 19 19" fill="none" xmlns="http://www.w3.org/2000/svg">
<path d="M0.75 9.50012C0.75 5.37533 0.75 3.31294 2.03141 2.03153C3.31281 0.750122 5.37521 0.750122 9.5 0.750122C13.6248 0.750122 15.6872 0.750122 16.9686 2.03153C18.25 3.31294 18.25 5.37533 18.25 9.50012C18.25 13.6249 18.25 15.6873 16.9686 16.9687C15.6872 18.2501 13.6248 18.2501 9.5 18.2501C5.37521 18.2501 3.31281 18.2501 2.03141 16.9687C0.75 15.6873 0.75 13.6249 0.75 9.50012Z" stroke="white" stroke-width="1.3125"/>
<path d="M17.8125 6.00012H1.1875" stroke="white" stroke-width="1.3125" stroke-linecap="round"/>
<path d="M8.1875 1.18738L5.125 5.99988" stroke="white" stroke-width="1.3125" stroke-linecap="round"/>
<path d="M13.875 1.18738L10.8125 5.99988" stroke="white" stroke-width="1.3125" stroke-linecap="round"/>
<path d="M12.125 11.6874C12.125 11.1331 11.5457 10.7594 10.3872 10.0119C9.21291 9.25425 8.6257 8.87537 8.18785 9.15353C7.75 9.4317 7.75 10.1836 7.75 11.6874C7.75 13.1911 7.75 13.943 8.18785 14.2212C8.6257 14.4993 9.21291 14.1205 10.3872 13.3628C11.5457 12.6153 12.125 12.2416 12.125 11.6874Z" stroke="white" stroke-width="1.3125" stroke-linecap="round"/>
</svg>
