<svg width="18" height="20" viewBox="0 0 18 20" fill="none" xmlns="http://www.w3.org/2000/svg">
<path d="M17.2179 5.41683C17.1467 3.70055 16.9169 2.64827 16.176 1.90744C15.1022 0.833496 13.3736 0.833496 9.91667 0.833496H8.08333C4.62636 0.833496 2.89789 0.833496 1.82394 1.90744C0.75 2.98138 0.75 4.70986 0.75 8.16683V11.8335C0.75 15.2904 0.75 17.019 1.82394 18.0929C2.89789 19.1668 4.62636 19.1668 8.08333 19.1668H9.91667C13.3736 19.1668 15.1022 19.1668 16.176 18.0929C17.25 17.019 17.25 15.2904 17.25 11.8335V9.0835" stroke="white" stroke-width="1.375" stroke-linecap="round"/>
<path d="M3.5 10C3.5 8.70365 3.5 8.05546 3.90273 7.65273C4.30546 7.25 4.95364 7.25 6.25 7.25H11.75C13.0464 7.25 13.6945 7.25 14.0973 7.65273C14.5 8.05546 14.5 8.70365 14.5 10V13.6667C14.5 14.963 14.5 15.6112 14.0973 16.014C13.6945 16.4167 13.0464 16.4167 11.75 16.4167H6.25C4.95364 16.4167 4.30546 16.4167 3.90273 16.014C3.5 15.6112 3.5 14.963 3.5 13.6667V10Z" stroke="white" stroke-width="1.375"/>
<path d="M4.4165 4.5H8.99984" stroke="white" stroke-width="1.375" stroke-linecap="round"/>
</svg>
