<svg width="18" height="17" viewBox="0 0 18 17" fill="none" xmlns="http://www.w3.org/2000/svg">
<path fill-rule="evenodd" clip-rule="evenodd" d="M15.7763 11.2056C15.7763 10.6798 15.5674 10.1755 15.1957 9.80371C14.8239 9.43191 14.3196 9.22302 13.7938 9.22302H13.7916C13.2658 9.22302 12.7615 9.43191 12.3897 9.80371C12.0179 10.1755 11.809 10.6798 11.809 11.2056C11.809 12.092 11.809 13.2499 11.809 14.1362C11.809 14.662 12.0179 15.1663 12.3897 15.5381C12.7615 15.9099 13.2658 16.1188 13.7916 16.1188H13.7938C14.3196 16.1188 14.8239 15.9099 15.1957 15.5381C15.5674 15.1663 15.7763 14.662 15.7763 14.1362V11.2056ZM6.20117 11.2056C6.20119 10.6798 5.99231 10.1755 5.62051 9.80371C5.24871 9.43191 4.74446 9.22302 4.21864 9.22302H4.21642C3.69062 9.22302 3.18635 9.43191 2.81455 9.80371C2.44275 10.1755 2.23389 10.6798 2.23389 11.2056C2.23389 12.092 2.23389 13.2499 2.23389 14.1362C2.23389 14.662 2.44275 15.1663 2.81455 15.5381C3.18635 15.9099 3.69062 16.1188 4.21642 16.1188H4.21864C4.74446 16.1188 5.24871 15.9099 5.62051 15.5381C5.99231 15.1663 6.20119 14.662 6.20117 14.1362V11.2056ZM14.4901 11.2056V14.1362C14.4901 14.3209 14.4167 14.498 14.2861 14.6286C14.1556 14.7592 13.9785 14.8325 13.7938 14.8326C13.7937 14.8326 13.7916 14.8326 13.7916 14.8326C13.6069 14.8325 13.4298 14.7592 13.2992 14.6286C13.1686 14.498 13.0953 14.3209 13.0953 14.1362V11.2056C13.0953 11.0209 13.1686 10.8438 13.2992 10.7132C13.4298 10.5826 13.6069 10.5093 13.7915 10.5093C13.7916 10.5093 13.7938 10.5093 13.7938 10.5093C13.9785 10.5093 14.1556 10.5826 14.2861 10.7132C14.4167 10.8438 14.4901 11.0209 14.4901 11.2056ZM4.91492 11.2056V14.1362C4.91492 14.3209 4.84158 14.498 4.711 14.6286C4.58042 14.7592 4.40333 14.8325 4.21868 14.8326C4.2186 14.8326 4.21644 14.8326 4.21644 14.8326C4.03173 14.8325 3.85464 14.7592 3.72408 14.6286C3.5935 14.498 3.52014 14.3209 3.52014 14.1362V11.2056C3.52014 11.0209 3.5935 10.8438 3.72408 10.7132C3.85464 10.5826 4.03173 10.5093 4.2164 10.5093C4.21648 10.5093 4.21864 10.5093 4.21864 10.5093C4.40332 10.5093 4.58042 10.5826 4.711 10.7132C4.84158 10.8438 4.91492 11.0209 4.91492 11.2056Z" fill="white"/>
<path fill-rule="evenodd" clip-rule="evenodd" d="M17.4811 12.7092V8.15128C17.4811 4.00744 14.1218 0.648193 9.97798 0.648193C9.33237 0.648193 8.67778 0.648193 8.03216 0.648193C3.8883 0.648193 0.529053 4.00744 0.529053 8.15128C0.529053 10.5746 0.529053 12.7092 0.529053 12.7092C0.529053 13.0641 0.817214 13.3523 1.17218 13.3523C1.52712 13.3523 1.8153 13.0641 1.8153 12.7092V8.15132C1.81532 4.7178 4.5987 1.93444 8.03216 1.93444C8.67778 1.93444 9.33237 1.93444 9.97798 1.93444C13.4115 1.93444 16.1948 4.7178 16.1949 8.15126C16.1949 8.15132 16.1949 12.7092 16.1949 12.7092C16.1949 13.0641 16.483 13.3523 16.838 13.3523C17.1929 13.3523 17.4811 13.0641 17.4811 12.7092ZM7.09005 3.84947H10.5371C10.892 3.84947 11.1802 3.56129 11.1802 3.20635C11.1802 2.85138 10.892 2.56322 10.5371 2.56322H7.09005C6.73509 2.56322 6.44693 2.85138 6.44693 3.20635C6.44693 3.56129 6.73509 3.84947 7.09005 3.84947Z" fill="white"/>
</svg>
