<svg width="16" height="17" viewBox="0 0 16 17" fill="none" xmlns="http://www.w3.org/2000/svg">
<path d="M7.50024 0.625C7.98351 0.625 8.37524 1.01675 8.37524 1.5C8.37524 1.94873 8.03747 2.31857 7.60229 2.36911L7.50024 2.375H3.12524C2.67652 2.375 2.30668 2.71279 2.25613 3.14796L2.25024 3.25V13.75C2.25024 14.1987 2.58803 14.5686 3.0232 14.6191L3.12524 14.625H7.06274C7.54601 14.625 7.93774 15.0167 7.93774 15.5C7.93774 15.9487 7.59997 16.3186 7.16479 16.3691L7.06274 16.375H3.12524C1.72728 16.375 0.584541 15.2822 0.5047 13.9042L0.500244 13.75V3.25C0.500244 1.85203 1.59305 0.709297 2.97101 0.629456L3.12524 0.625H7.50024ZM12.4939 5.40641L14.9688 7.88129C15.3105 8.22298 15.3105 8.77703 14.9688 9.11871L12.4939 11.5936C12.1522 11.9353 11.5982 11.9353 11.2564 11.5936C10.9148 11.2519 10.9148 10.6978 11.2564 10.3561L12.2377 9.375H7.50024C7.01698 9.375 6.62524 8.98326 6.62524 8.5C6.62524 8.01674 7.01698 7.625 7.50024 7.625H12.2377L11.2564 6.64385C10.9148 6.30214 10.9148 5.74812 11.2564 5.40641C11.5982 5.0647 12.1522 5.0647 12.4939 5.40641Z" fill="white"/>
</svg>
