<svg width="21" height="21" viewBox="0 0 21 21" fill="none" xmlns="http://www.w3.org/2000/svg">
<path d="M10.5001 2.80295C14.7441 2.80295 18.1972 6.25607 18.1972 10.5001C18.1972 14.7441 14.7441 18.1972 10.5001 18.1972C6.25607 18.1972 2.80295 14.7441 2.80295 10.5001C2.80295 6.25607 6.25607 2.80295 10.5001 2.80295ZM10.5001 0.878662C5.18617 0.878662 0.878662 5.18617 0.878662 10.5001C0.878662 15.814 5.18617 20.1215 10.5001 20.1215C15.814 20.1215 20.1215 15.814 20.1215 10.5001C20.1215 5.18617 15.814 0.878662 10.5001 0.878662ZM14.3486 8.5758C14.3486 7.55509 13.9432 6.57619 13.2214 5.85445C12.4997 5.1327 11.5208 4.72723 10.5001 4.72723C9.47938 4.72723 8.50048 5.1327 7.77873 5.85445C7.05698 6.57619 6.65151 7.55509 6.65151 8.5758H8.5758C8.5758 7.51455 9.43884 6.65151 10.5001 6.65151C11.5613 6.65151 12.4244 7.51455 12.4244 8.5758C12.4244 9.63704 11.5613 10.5001 10.5001 10.5001C10.2449 10.5001 10.0002 10.6014 9.81974 10.7819C9.63931 10.9623 9.53794 11.207 9.53794 11.4622V13.3865H11.4622V12.2887C12.2868 12.0773 13.0179 11.5979 13.5403 10.9258C14.0628 10.2537 14.3472 9.42708 14.3486 8.5758ZM11.4622 14.3486H9.53794V16.2729H11.4622V14.3486Z" fill="white"/>
</svg>
