<svg width="21" height="21" viewBox="0 0 21 21" fill="none" xmlns="http://www.w3.org/2000/svg">
<path d="M8.53521 5.37793H12.6065C14.7563 5.37793 15.7949 6.41654 15.743 8.51448V12.5857C15.7949 14.7356 14.7563 15.7742 12.6065 15.7222H8.53521C6.43727 15.7638 5.39868 14.7252 5.39868 12.5753V8.50408C5.39868 6.41652 6.43727 5.37793 8.53521 5.37793Z" stroke="white" stroke-width="1.55788" stroke-linecap="round" stroke-linejoin="round"/>
<path d="M10.8574 12.5062L10.8574 10.1807L13.183 10.1807L13.183 12.5062" stroke="white" stroke-width="1.38079" stroke-linecap="round" stroke-linejoin="round"/>
<path d="M8.24097 7.56452L8.24097 10.1808L8.24097 12.797" stroke="white" stroke-width="1.38079" stroke-linecap="round" stroke-linejoin="round"/>
<path d="M12.3107 7.85498L12.02 7.85498" stroke="white" stroke-width="1.38079" stroke-linecap="round" stroke-linejoin="round"/>
<path d="M13.1829 12.797C11.1481 12.797 10.5667 12.797 8.53185 12.7677" stroke="white" stroke-width="1.38079" stroke-linecap="round" stroke-linejoin="round"/>
<path d="M1 12.7091C1 16.7284 4.25077 19.9792 8.2701 19.9792L7.17958 18.1617" stroke="white" stroke-width="1.55788" stroke-linecap="round" stroke-linejoin="round"/>
<path d="M20.0001 8.24922C20.0001 4.2299 16.7493 0.979126 12.73 0.979126L13.8205 2.79665" stroke="white" stroke-width="1.55788" stroke-linecap="round" stroke-linejoin="round"/>
</svg>
