<svg width="20" height="18" viewBox="0 0 20 18" fill="none" xmlns="http://www.w3.org/2000/svg">
<path d="M4.5 5.3335H8.16667" stroke="white" stroke-width="1.375" stroke-linecap="round" stroke-linejoin="round"/>
<path d="M19.1667 7.625C19.1667 7.55405 19.1667 7.13665 19.1646 7.10672C19.1321 6.64769 18.7384 6.28205 18.244 6.25196C18.2118 6.25 18.1736 6.25 18.0972 6.25H15.7116C14.076 6.25 12.75 7.48117 12.75 9C12.75 10.5188 14.076 11.75 15.7116 11.75H18.0972C18.1736 11.75 18.2118 11.75 18.244 11.7481C18.7384 11.7179 19.1321 11.3524 19.1646 10.8933C19.1667 10.8633 19.1667 10.446 19.1667 10.375" stroke="white" stroke-width="1.375" stroke-linecap="round"/>
<path d="M10.9168 1.6665C14.3738 1.6665 16.1023 1.6665 17.1762 2.74044C17.917 3.48127 18.1469 4.53356 18.2181 6.24984M8.16683 16.3332H10.9168C14.3738 16.3332 16.1023 16.3332 17.1762 15.2592C17.917 14.5184 18.1469 13.4661 18.2181 11.7498M7.25016 1.66736C4.39539 1.67571 2.88194 1.76594 1.90744 2.74044C0.833496 3.81439 0.833496 5.54287 0.833496 8.99984C0.833496 12.4568 0.833496 14.1853 1.90744 15.2592C2.50618 15.858 3.3084 16.1229 4.50016 16.2401" stroke="white" stroke-width="1.375" stroke-linecap="round"/>
</svg>
