<svg width="14" height="14" viewBox="0 0 14 14" fill="none" xmlns="http://www.w3.org/2000/svg">
<path fill-rule="evenodd" clip-rule="evenodd" d="M6.35497 0.480835C3.11058 0.480835 0.480469 3.11093 0.480469 6.35528C0.480469 9.59977 3.11058 12.2299 6.35497 12.2299C7.50372 12.2299 8.57545 11.9001 9.48062 11.3302L11.1391 12.9886C11.6497 13.4993 12.4776 13.4993 12.9882 12.9886C13.4987 12.478 13.4987 11.6501 12.9882 11.1396L11.3298 9.48118C11.8997 8.57589 12.2294 7.50415 12.2294 6.35528C12.2294 3.11093 9.59933 0.480835 6.35497 0.480835ZM3.09541 6.35528C3.09541 4.55515 4.55472 3.09578 6.35497 3.09578C8.15523 3.09578 9.6145 4.55515 9.6145 6.35528C9.6145 8.15553 8.15523 9.61493 6.35497 9.61493C4.55472 9.61493 3.09541 8.15553 3.09541 6.35528Z" fill="#009606"/>
</svg>
