<svg width="24" height="24" viewBox="0 0 24 24" fill="none" xmlns="http://www.w3.org/2000/svg">
<path d="M22.4866 17.2066L19.0958 9.28739C17.9475 6.60073 15.835 6.49239 14.4158 9.04906L12.3683 12.7432C11.3283 14.6174 9.38917 14.7799 8.04583 13.1007L7.8075 12.7974C6.41 11.0424 4.43833 11.2591 3.43083 13.2632L1.5675 17.0007C0.256668 19.6007 2.1525 22.6666 5.05583 22.6666H18.8791C21.6958 22.6666 23.5916 19.7957 22.4866 17.2066Z" stroke="#009606" stroke-width="1.625" stroke-linecap="round" stroke-linejoin="round"/>
<path d="M6.55078 7.5C8.3457 7.5 9.80078 6.04492 9.80078 4.25C9.80078 2.45508 8.3457 1 6.55078 1C4.75586 1 3.30078 2.45508 3.30078 4.25C3.30078 6.04492 4.75586 7.5 6.55078 7.5Z" stroke="#009606" stroke-width="1.625" stroke-linecap="round" stroke-linejoin="round"/>
</svg>
