<svg width="16" height="13" viewBox="0 0 16 13" fill="none" xmlns="http://www.w3.org/2000/svg">
<path d="M4.79008 2.70272V3.20272H5.12494L5.25243 2.89309L4.79008 2.70272ZM4.94999 2.31435L5.41234 2.50471L5.41234 2.50471L4.94999 2.31435ZM11.26 2.31435L11.7223 2.12399L11.7223 2.12398L11.26 2.31435ZM11.4199 2.70272L10.9575 2.89309L11.085 3.20272H11.4199V2.70272ZM5.25243 2.89309L5.41234 2.50471L4.48765 2.12398L4.32774 2.51236L5.25243 2.89309ZM5.41234 2.50471C5.64376 1.94264 6.19152 1.57581 6.79937 1.57581V0.575806C5.78628 0.575806 4.87336 1.1872 4.48765 2.12398L5.41234 2.50471ZM6.79937 1.57581L9.41059 1.57581V0.575806L6.79937 0.575806V1.57581ZM9.41059 1.57581C10.0184 1.57581 10.5662 1.94264 10.7976 2.50471L11.7223 2.12398C11.3366 1.1872 10.4237 0.575806 9.41059 0.575806V1.57581ZM10.7976 2.50471L10.9575 2.89309L11.8822 2.51236L11.7223 2.12399L10.7976 2.50471ZM11.4199 3.20272H12V2.20272H11.4199V3.20272ZM12 3.20272C13.3807 3.20272 14.5 4.32201 14.5 5.70272L15.5 5.70272C15.5 3.76973 13.933 2.20272 12 2.20272V3.20272ZM14.5 5.70272L14.5 8.9993L15.5 8.9993L15.5 5.70272L14.5 5.70272ZM14.5 8.9993C14.5 10.38 13.3807 11.4993 12 11.4993V12.4993C13.933 12.4993 15.5 10.9323 15.5 8.9993L14.5 8.9993ZM12 11.4993L4 11.4993V12.4993L12 12.4993V11.4993ZM4 11.4993C2.61929 11.4993 1.5 10.38 1.5 8.9993H0.5C0.5 10.9323 2.067 12.4993 4 12.4993V11.4993ZM1.5 8.9993L1.5 5.70272H0.5L0.5 8.9993H1.5ZM1.5 5.70272C1.5 4.32201 2.61929 3.20272 4 3.20272L4 2.20272C2.067 2.20272 0.5 3.76973 0.5 5.70272H1.5ZM4 3.20272H4.79008V2.20272L4 2.20272L4 3.20272Z" fill="#F0FCF3"/>
<path d="M6.56653 4.63414C7.46177 4.15363 8.53823 4.15363 9.43347 4.63414L9.59762 4.72225C10.4803 5.19603 11.0311 6.11673 11.0311 7.11855V7.11855C11.0311 8.12037 10.4803 9.04107 9.59762 9.51485L9.43347 9.60295C8.53823 10.0835 7.46177 10.0835 6.56653 9.60295L6.40238 9.51485C5.51968 9.04107 4.96891 8.12037 4.96891 7.11855V7.11855C4.96891 6.11673 5.51967 5.19603 6.40238 4.72225L6.56653 4.63414Z" stroke="#F0FCF3" stroke-linecap="round" stroke-linejoin="round"/>
</svg>
