<svg width="21" height="21" viewBox="0 0 21 21" fill="none" xmlns="http://www.w3.org/2000/svg">
<path d="M12.8093 19.187C12.8371 19.1889 12.8646 19.1912 12.8928 19.1912H19.2507C19.9946 19.1912 20.5993 18.5859 20.5993 17.8425V3.10392C20.5993 2.36047 19.9946 1.75529 19.2507 1.75529H12.8928C12.8648 1.75529 12.8371 1.75801 12.8093 1.7597V0L0.400391 1.65608V19.3011L12.8093 21V19.187ZM12.8093 12.709H14.5824V12.4145H12.8093V11.6961H14.5824V11.401H12.8093V10.7184H14.5824V10.4233H12.8093V9.7349H14.5824V9.44036H12.8093V8.53038H18.7366C18.7501 8.53038 18.7611 8.54178 18.7611 8.55522V13.7172C18.7611 13.7308 18.7501 13.7417 18.7366 13.7417H12.8093V12.709ZM12.8928 2.52594H19.2507C19.5694 2.52594 19.8286 2.78529 19.8286 3.10392V17.8425C19.8286 18.1611 19.5694 18.4205 19.2507 18.4205H12.8928C12.8645 18.4205 12.8368 18.4164 12.8094 18.4122V13.9875H18.7367C18.8857 13.9875 19.0068 13.8667 19.0068 13.7172V8.55522C19.0068 8.40594 18.8857 8.28476 18.7367 8.28476H12.8093V2.53458C12.8368 2.53035 12.8643 2.52594 12.8928 2.52594ZM3.4708 12.94L2.50488 12.8898L1.38126 8.94621L2.24532 8.92173L2.6815 10.5964C2.80512 11.0716 2.91827 11.5314 3.00508 12.0338L3.02128 12.0343C3.11375 11.5542 3.22862 11.0779 3.35496 10.6181L3.8334 8.87697L4.7585 8.8508L3.4708 12.94ZM7.25294 12.3867C7.54834 12.398 7.88012 12.3453 8.07682 12.2736L8.22821 13.0616C8.04345 13.1445 7.63196 13.221 7.1066 13.1935C5.66507 13.1169 4.95201 12.1813 4.95201 10.9934C4.95201 9.56981 5.93112 8.74923 7.20251 8.71149C7.71017 8.69644 8.10334 8.78977 8.28144 8.87697L8.07682 9.67576C7.87335 9.59336 7.59357 9.5191 7.24663 9.52401C6.48447 9.5353 5.90707 10.0035 5.90707 10.9489C5.90721 11.7997 6.39788 12.3536 7.25294 12.3867ZM11.8399 9.52756L9.95658 9.55286V10.5973L11.7128 10.6061V11.4731L9.95658 11.4384V13.2766L8.89966 13.2217V8.73482L11.8399 8.65196V9.52756Z" fill="#009606"/>
<path d="M17.8773 11.2892L17.2954 10.9829C17.2954 10.9829 17.2646 10.9466 17.2107 10.902C17.3233 10.7726 17.4083 10.5993 17.4296 10.4283C17.4461 10.416 17.4737 10.3873 17.4845 10.3206C17.4845 10.3206 17.5536 10.0718 17.4521 10.1192C17.5234 9.74144 17.4694 9.61234 17.4694 9.61234C17.3972 9.36278 17.3912 9.30866 17.1283 9.24236C16.8666 9.17576 16.54 9.27856 16.54 9.27856C16.3225 9.34339 16.2329 9.46568 16.2329 9.46568C16.0422 9.68055 16.1411 10.0264 16.1705 10.1152C16.0852 10.09 16.15 10.3206 16.15 10.3206C16.1603 10.3868 16.1876 10.416 16.2049 10.4283C16.2283 10.5965 16.3202 10.7776 16.4454 10.911C16.4181 10.9316 16.3908 10.9541 16.3631 10.9801C16.3631 10.9801 16.3609 11.0749 16.0913 11.1698C16.0913 11.1698 15.5863 11.3289 15.5033 11.5129C15.5033 11.5129 15.2279 12.1409 15.2919 12.6983C15.2919 12.6983 15.2949 12.7445 15.3867 12.8028C15.3867 12.8028 16.0222 13.0689 16.8957 13.0508C16.8957 13.0508 17.7453 13.0075 18.2876 12.7656C18.2876 12.7656 18.3644 12.7475 18.3673 12.5699C18.3673 12.5699 18.3395 11.7918 18.1039 11.4426C18.1039 11.4426 18.0365 11.3512 17.8773 11.2892Z" fill="#62DF85"/>
</svg>
