<svg width="36" height="36" viewBox="0 0 36 36" fill="none" xmlns="http://www.w3.org/2000/svg">
<path d="M26.1266 33.2532C22.1986 33.2532 19 30.0685 19 26.1265C19 22.1984 22.1845 19 26.1266 19C30.0547 19 33.2532 22.1844 33.2532 26.1265C33.2532 30.0685 30.0687 33.2532 26.1266 33.2532Z" stroke="#62DF85" stroke-width="2.10431" stroke-linecap="round" stroke-linejoin="round"/>
<path d="M6.94835 2.16663H13.155C16.4325 2.16663 18.0159 3.74999 17.9367 6.94832V13.155C18.0159 16.4325 16.4325 18.0158 13.155 17.9366H6.94835C3.75002 18 2.16669 16.4166 2.16669 13.1391V6.93248C2.16669 3.74997 3.75002 2.16663 6.94835 2.16663Z" stroke="#62DF85" stroke-width="2.375" stroke-linecap="round" stroke-linejoin="round"/>
<path d="M10.4885 13.0338L10.4885 9.48849L14.0338 9.48849L14.0338 13.0338" stroke="#009606" stroke-width="2.10503" stroke-linecap="round" stroke-linejoin="round"/>
<path d="M6.5 5.49996L6.5 9.48844L6.5 13.4769" stroke="#009606" stroke-width="2.10503" stroke-linecap="round" stroke-linejoin="round"/>
<path d="M12.7043 5.94312L12.2611 5.94312" stroke="#009606" stroke-width="2.10503" stroke-linecap="round" stroke-linejoin="round"/>
<path d="M14.0338 13.4769C10.9316 13.4769 10.0453 13.4769 6.94315 13.4323" stroke="#009606" stroke-width="2.10503" stroke-linecap="round" stroke-linejoin="round"/>
<path d="M2.16669 22.75C2.16669 28.8775 7.12252 33.8333 13.25 33.8333L11.5875 31.0625" stroke="#009606" stroke-width="2.375" stroke-linecap="round" stroke-linejoin="round"/>
<path d="M33.8333 13.25C33.8333 7.12246 28.8775 2.16663 22.75 2.16663L24.4125 4.93746" stroke="#009606" stroke-width="2.375" stroke-linecap="round" stroke-linejoin="round"/>
<path d="M24.5405 23.6544L24.5405 29.325" stroke="#009606" stroke-width="1.68345" stroke-linecap="round" stroke-linejoin="round"/>
<path d="M24.5405 23.6544H28.0846" stroke="#009606" stroke-width="1.68345" stroke-linecap="round" stroke-linejoin="round"/>
<path d="M24.5405 29.325H28.0846" stroke="#009606" stroke-width="1.68345" stroke-linecap="round" stroke-linejoin="round"/>
<path d="M24.5405 26.4897H28.0846" stroke="#009606" stroke-width="1.68345" stroke-linecap="round" stroke-linejoin="round"/>
</svg>
