<svg width="36" height="36" viewBox="0 0 36 36" fill="none" xmlns="http://www.w3.org/2000/svg">
<path d="M26.1266 33.2532C22.1986 33.2532 19 30.0685 19 26.1265C19 22.1984 22.1845 19 26.1266 19C30.0547 19 33.2532 22.1844 33.2532 26.1265C33.2532 30.0685 30.0687 33.2532 26.1266 33.2532Z" stroke="#62DF85" stroke-width="2.10431" stroke-linecap="round" stroke-linejoin="round"/>
<path d="M6.94835 2.16663H13.155C16.4325 2.16663 18.0159 3.74999 17.9367 6.94832V13.155C18.0159 16.4325 16.4325 18.0158 13.155 17.9366H6.94835C3.75002 18 2.16669 16.4166 2.16669 13.1391V6.93248C2.16669 3.74997 3.75002 2.16663 6.94835 2.16663Z" stroke="#62DF85" stroke-width="2.375" stroke-linecap="round" stroke-linejoin="round"/>
<path d="M2.16669 22.75C2.16669 28.8775 7.12252 33.8333 13.25 33.8333L11.5875 31.0625" stroke="#009606" stroke-width="2.375" stroke-linecap="round" stroke-linejoin="round"/>
<path d="M33.8333 13.25C33.8333 7.12246 28.8775 2.16663 22.75 2.16663L24.4125 4.93746" stroke="#009606" stroke-width="2.375" stroke-linecap="round" stroke-linejoin="round"/>
<path d="M7 6L7 14" stroke="#009606" stroke-width="2.37499" stroke-linecap="round" stroke-linejoin="round"/>
<path d="M7 6L12 6" stroke="#009606" stroke-width="2.37499" stroke-linecap="round" stroke-linejoin="round"/>
<path d="M7 14H12" stroke="#009606" stroke-width="2.37499" stroke-linecap="round" stroke-linejoin="round"/>
<path d="M7 10.0001H12" stroke="#009606" stroke-width="2.37499" stroke-linecap="round" stroke-linejoin="round"/>
<path d="M25.7746 28.2408L25.7746 25.7745L28.2409 25.7745L28.2409 28.2408" stroke="#009606" stroke-width="1.46437" stroke-linecap="round" stroke-linejoin="round"/>
<path d="M23 23L23 25.7746L23 28.5492" stroke="#009606" stroke-width="1.46437" stroke-linecap="round" stroke-linejoin="round"/>
<path d="M27.316 23.3082L27.0078 23.3082" stroke="#009606" stroke-width="1.46437" stroke-linecap="round" stroke-linejoin="round"/>
<path d="M28.2409 28.5492C26.0829 28.5492 25.4663 28.5492 23.3083 28.5182" stroke="#009606" stroke-width="1.46437" stroke-linecap="round" stroke-linejoin="round"/>
</svg>
