<?xml version="1.0" encoding="UTF-8" standalone="no"?>
<!DOCTYPE svg PUBLIC "-//W3C//DTD SVG 1.1//EN" "http://www.w3.org/Graphics/SVG/1.1/DTD/svg11.dtd">
<svg xmlns="http://www.w3.org/2000/svg" version="1.1" viewBox="0.00 0.00 24.00 24.00" width="24.00" height="24.00">
<g>
<path fill="#000000" d="
  M 24.00 5.64
  L 24.00 6.81
  Q 23.44 9.05 21.89 10.64
  C 18.34 14.26 14.70 19.23 9.33 14.60
  A 1.25 1.24 -54.0 0 1 9.08 13.00
  Q 9.42 12.45 10.12 12.22
  A 1.32 1.30 56.1 0 1 11.40 12.48
  Q 13.69 14.54 15.86 12.42
  Q 18.17 10.15 20.24 7.98
  A 2.55 2.54 55.2 0 0 20.73 5.20
  C 19.74 2.96 17.15 2.51 15.50 4.30
  Q 14.69 5.18 13.87 6.01
  Q 13.03 6.87 11.98 6.28
  L 11.55 6.04
  Q 10.36 5.36 11.30 4.36
  C 12.79 2.78 14.35 0.82 16.59 0.40
  Q 22.20 -0.63 24.00 5.64
  Z"
/>
<path fill="#000000" d="
  M 6.41 24.00
  L 6.02 24.00
  C -0.67 22.52 -1.42 16.90 3.01 12.48
  C 6.48 9.03 9.15 5.60 14.52 9.14
  A 1.32 1.32 0.0 0 1 15.12 10.30
  Q 15.09 11.26 14.50 11.63
  Q 13.49 12.26 12.60 11.47
  C 11.34 10.35 9.60 10.22 8.38 11.46
  Q 6.17 13.69 4.06 15.79
  C 1.26 18.59 5.43 22.65 8.29 19.98
  Q 9.26 19.08 10.11 18.13
  A 1.62 1.61 31.7 0 1 11.94 17.70
  L 12.40 17.89
  Q 13.64 18.41 12.87 19.52
  Q 10.32 23.15 6.41 24.00
  Z"
/>
</g>
</svg>
